<svg width="20" height="20" viewBox="0 0 20 20" fill="none" xmlns="http://www.w3.org/2000/svg">
<path d="M17.0711 2.92895C15.1823 1.0402 12.6711 0 10 0C7.32891 0 4.8177 1.0402 2.92891 2.92895C1.0402 4.8177 0 7.32891 0 10C0 12.6711 1.0402 15.1823 2.92891 17.0711C4.8177 18.9598 7.32891 20 10 20C12.6711 20 15.1823 18.9598 17.0711 17.0711C18.9598 15.1823 20 12.6711 20 10C20 7.32891 18.9598 4.8177 17.0711 2.92895ZM10 18.8281C7.62328 18.8281 5.4632 17.8837 3.87453 16.3508C4.73484 13.7221 7.20652 11.9141 10 11.9141C12.7935 11.9141 15.2652 13.7221 16.1255 16.3509C14.5368 17.8837 12.3767 18.8281 10 18.8281ZM7.07031 7.8125C7.07031 6.19707 8.38457 4.88281 10 4.88281C11.6154 4.88281 12.9297 6.19707 12.9297 7.8125C12.9297 9.42793 11.6154 10.7422 10 10.7422C8.38457 10.7422 7.07031 9.42793 7.07031 7.8125ZM17.0055 15.3654C16.1434 13.3484 14.4506 11.8158 12.4048 11.133C13.4321 10.3869 14.1016 9.17648 14.1016 7.8125C14.1016 5.5509 12.2616 3.71094 10 3.71094C7.7384 3.71094 5.89844 5.5509 5.89844 7.8125C5.89844 9.17648 6.56785 10.3869 7.59523 11.133C5.54938 11.8158 3.85664 13.3484 2.99453 15.3654C1.85211 13.8773 1.17188 12.0167 1.17188 10C1.17188 5.13215 5.13215 1.17188 10 1.17188C14.8679 1.17188 18.8281 5.13215 18.8281 10C18.8281 12.0167 18.1479 13.8773 17.0055 15.3654Z" fill="#D05EFC"/>
</svg>
