<svg width="26" height="19" viewBox="0 0 26 19" fill="none" xmlns="http://www.w3.org/2000/svg">
<path d="M25.3104 5.98182L25.3172 5.97861C25.4212 5.9756 25.5199 5.9324 25.5926 5.85809C25.6653 5.78379 25.7064 5.68418 25.7072 5.58021C25.7078 5.52769 25.6979 5.47556 25.6782 5.42686C25.6585 5.37816 25.6294 5.33385 25.5924 5.2965C25.5555 5.25915 25.5115 5.2295 25.463 5.20926C25.4145 5.18902 25.3625 5.17861 25.31 5.17861C25.1967 5.14246 24.8996 4.65371 24.8996 3.77299C24.8996 2.89227 25.1971 2.40351 25.3104 2.36737L25.316 2.36456C25.4146 2.35754 25.507 2.31445 25.5758 2.24353C25.6446 2.17261 25.6848 2.07883 25.6888 1.98013C25.6927 1.88143 25.6602 1.78472 25.5974 1.7085C25.5345 1.63228 25.4458 1.58189 25.3482 1.56697L12.4048 0.0448797C11.9009 -0.0149599 11.3918 -0.0149599 10.8879 0.0448797L1.55863 1.16536H1.55261C0.797187 1.21757 0.401606 2.2995 0.401606 3.37138C0.37533 4.00872 0.543401 4.63898 0.883533 5.17861C0.543283 5.71818 0.375202 6.34849 0.401606 6.98584C0.380035 7.59931 0.533241 8.20628 0.843372 8.73604C0.288754 9.29427 0 10.4525 0 11.6043C0 13.1874 0.542569 14.7902 1.57992 14.8172L15.214 16.4212C15.2296 16.423 15.2453 16.4238 15.261 16.4236C15.277 16.4237 15.293 16.4227 15.3088 16.4208L18.4739 16.0408V17.6284C18.4738 17.7162 18.5026 17.8017 18.5558 17.8716C18.609 17.9415 18.6836 17.9921 18.7682 18.0155C18.8032 18.0251 18.8392 18.0299 18.8755 18.03C18.9448 18.03 19.0129 18.012 19.0732 17.9779C19.1335 17.9438 19.184 17.8946 19.2196 17.8352L20.1172 16.3392L20.9638 17.4678C21.0144 17.5352 21.0849 17.585 21.1654 17.6101C21.2458 17.6353 21.3321 17.6344 21.4121 17.6078C21.4921 17.5811 21.5616 17.53 21.6109 17.4616C21.6602 17.3932 21.6867 17.3111 21.6867 17.2268V15.6557L25.349 15.2159C25.4507 15.2038 25.5439 15.1533 25.6096 15.0748C25.6753 14.9962 25.7085 14.8955 25.7024 14.7932C25.6963 14.691 25.6514 14.5949 25.5768 14.5247C25.5022 14.4545 25.4036 14.4155 25.3012 14.4155C25.02 14.4155 24.498 13.5007 24.498 12.0059C24.498 10.524 24.9911 9.66615 25.3012 9.59627C25.4082 9.5966 25.511 9.55453 25.5871 9.47927C25.6631 9.40401 25.7063 9.30168 25.7072 9.19467C25.708 9.09649 25.6725 9.00148 25.6075 8.92793C25.5425 8.85437 25.4525 8.80748 25.355 8.79628C25.3391 8.79439 25.3232 8.79332 25.3072 8.79306C25.1919 8.74889 24.8996 8.26134 24.8996 7.38744C24.8996 6.50391 25.1971 6.01797 25.3104 5.98182ZM12.9666 15.3477C12.5875 14.5872 12.4096 13.7423 12.4498 12.8935C12.4204 12.0786 12.5788 11.2679 12.9128 10.524L14.2353 10.6794C13.8255 11.4585 13.6254 12.3309 13.6546 13.2107C13.641 13.99 13.7915 14.7634 14.0964 15.4806L12.9666 15.3477ZM11.3458 15.1569C10.9792 14.4004 10.8065 13.5646 10.8434 12.7248C10.8111 11.903 10.9743 11.0853 11.3197 10.3388L12.0707 10.4272C11.7718 11.2143 11.6277 12.0517 11.6466 12.8935C11.634 13.691 11.7628 14.4845 12.0269 15.2372L11.3458 15.1569ZM4.85421 14.3939C4.54835 13.6705 4.40218 12.8897 4.4257 12.1047C4.37875 11.2331 4.57213 10.3654 4.98473 9.59627L10.4317 10.236C10.4438 10.236 10.4546 10.2433 10.4666 10.2433C10.4697 10.2435 10.4728 10.2435 10.4759 10.2433C10.1713 11.0344 10.0233 11.8772 10.0401 12.7248C10.0285 13.5147 10.1544 14.3005 10.412 15.0473L4.85421 14.3939ZM3.2506 14.2055C2.94169 13.4806 2.79449 12.6971 2.81927 11.9095C2.77171 11.0398 2.96339 10.1736 3.37349 9.40511L4.12128 9.49306C3.76884 10.3171 3.59816 11.2075 3.62088 12.1035C3.61149 12.8439 3.71994 13.5811 3.94216 14.2874L3.2506 14.2055ZM1.61526 8.39146C1.50201 8.35531 1.20482 7.86656 1.20482 6.98584C1.20482 6.11274 1.49638 5.626 1.60321 5.58262L3.50562 5.80431C3.51244 5.80431 3.51766 5.80953 3.52409 5.81034L11.602 6.75812C11.4223 7.28354 11.3354 7.83624 11.3454 8.39146C11.3443 8.78051 11.3859 9.1685 11.4695 9.54848L10.7012 9.45852C10.5127 8.99258 10.4243 8.49219 10.4417 7.98985C10.4414 7.74996 10.4683 7.5108 10.5221 7.277C10.5339 7.2256 10.5356 7.17238 10.5269 7.12035C10.5182 7.06833 10.4993 7.01853 10.4713 6.9738C10.4434 6.92906 10.4069 6.89028 10.364 6.85964C10.321 6.82901 10.2725 6.80714 10.2211 6.79527C10.1697 6.78341 10.1164 6.78178 10.0644 6.79048C10.0124 6.79919 9.9626 6.81806 9.91786 6.84601C9.87313 6.87396 9.83434 6.91044 9.80371 6.95339C9.77308 6.99633 9.75121 7.04488 9.73934 7.09628C9.67215 7.38938 9.63834 7.68914 9.63854 7.98985C9.63419 8.45084 9.69297 8.91026 9.81324 9.35531L4.83814 8.77057H4.82971L3.22891 8.58182C3.2253 8.58182 3.22208 8.58182 3.21847 8.58182L1.61526 8.39146ZM3.87148 2.23403L5.43091 2.41676H5.43493L14.3586 3.46857C14.15 3.9439 14.0468 4.45879 14.0562 4.97781C14.0529 5.41506 14.1242 5.84966 14.267 6.26295L5.57509 5.24246C5.46824 4.82819 5.41665 4.4016 5.42168 3.97379C5.42111 3.72246 5.43653 3.47135 5.46786 3.22198C5.47461 3.16967 5.47099 3.11653 5.45721 3.06561C5.44342 3.01469 5.41975 2.96699 5.38753 2.92522C5.3553 2.88345 5.31517 2.84844 5.26942 2.82218C5.22367 2.79593 5.17319 2.77894 5.12088 2.77219C5.06856 2.76544 5.01542 2.76906 4.9645 2.78284C4.91358 2.79662 4.86588 2.8203 4.82411 2.85252C4.78234 2.88474 4.74733 2.92488 4.72107 2.97063C4.69482 3.01638 4.67783 3.06686 4.67108 3.11917C4.63541 3.40264 4.61784 3.68809 4.61847 3.97379C4.61727 4.36624 4.65399 4.75788 4.7281 5.14327L3.83172 5.03805C3.67261 4.56626 3.59904 4.06984 3.61445 3.57219C3.61401 3.11383 3.70126 2.65961 3.87148 2.23403ZM15.261 3.57219C15.2769 3.57224 15.2927 3.5713 15.3084 3.56937L24.3044 2.49106C24.1628 2.90348 24.0925 3.33697 24.0963 3.77299C24.0867 4.2931 24.1905 4.80906 24.4004 5.28503L15.2654 6.37981C15.149 6.33363 14.8594 5.8505 14.8594 4.97781C14.8594 4.09708 15.1566 3.60833 15.261 3.57219ZM12.3293 9.64929C12.2045 9.24185 12.1435 8.81755 12.1486 8.39146C12.1202 7.86364 12.2211 7.33689 12.4425 6.85692L14.3598 7.08182C14.1503 7.55734 14.0467 8.07273 14.0562 8.59226C14.0529 9.02951 14.1242 9.46412 14.267 9.8774L12.3293 9.64929ZM15.2666 9.99467C15.1494 9.94848 14.8594 9.46535 14.8594 8.59226C14.8594 7.71154 15.1566 7.22278 15.261 7.18664C15.277 7.18671 15.293 7.18578 15.3088 7.18383L24.3048 6.10552C24.1631 6.51791 24.0926 6.9514 24.0963 7.38744C24.0885 7.90795 24.1954 8.4238 24.4096 8.89828L15.2666 9.99467ZM10.9831 0.841265C11.424 0.789058 11.8695 0.789058 12.3104 0.841265L21.9008 1.96897L15.261 2.76616L5.52891 1.61918H5.52489L5.01525 1.55934L10.9831 0.841265ZM1.6012 1.96576L3.0502 2.13564C2.89227 2.59814 2.81154 3.08347 2.81124 3.57219C2.80748 4.03018 2.85776 4.48702 2.96104 4.93323L1.61526 4.777C1.50201 4.74086 1.20482 4.2521 1.20482 3.37138C1.20482 2.50472 1.49237 2.01797 1.6012 1.96777V1.96576ZM1.60642 14.0139C1.3253 14.0139 0.803212 13.0991 0.803212 11.6043C0.803212 10.1184 1.31646 9.20832 1.6004 9.19668L2.51365 9.3039C2.1633 10.1268 1.99362 11.0154 2.01606 11.9095C2.00701 12.6515 2.11669 13.3901 2.34096 14.0975L1.65341 14.0172C1.63783 14.0151 1.62214 14.014 1.60642 14.0139ZM20.4016 15.3794C20.3625 15.3262 20.3107 15.2836 20.2509 15.2556C20.1912 15.2275 20.1253 15.2149 20.0594 15.2188C19.9941 15.2225 19.9306 15.2422 19.8746 15.2761C19.8186 15.31 19.7718 15.357 19.7381 15.4131L19.2771 16.1786V12.7336L20.8835 12.54V16.022L20.4016 15.3794ZM21.6867 14.8465V12.4433L21.9389 12.4127C22.0447 12.4001 22.1412 12.346 22.2071 12.2622C22.273 12.1785 22.3029 12.072 22.2903 11.9662C22.2777 11.8603 22.2236 11.7639 22.1398 11.698C22.0561 11.6321 21.9496 11.6021 21.8437 11.6147L21.2413 11.6878H21.2385L18.8289 11.977C18.8245 11.977 18.8209 11.9802 18.8164 11.9806L18.316 12.0413C18.2145 12.0533 18.1213 12.1037 18.0556 12.1821C17.9899 12.2605 17.9566 12.3611 17.9625 12.4632C17.9684 12.5653 18.013 12.6613 18.0873 12.7317C18.1616 12.802 18.2599 12.8413 18.3622 12.8417C18.3781 12.8417 18.3939 12.8408 18.4096 12.8388L18.4739 12.8308V15.232L15.261 15.6176L15.2257 15.6135C14.9486 15.5465 14.4578 14.6898 14.4578 13.2107C14.4578 11.716 14.9799 10.8011 15.261 10.8011C15.277 10.8012 15.293 10.8002 15.3088 10.7983L24.1365 9.74005C23.8321 10.456 23.6815 11.228 23.6947 12.0059C23.6657 12.885 23.8648 13.7567 24.2726 14.536L21.6867 14.8465Z" fill="#D05EFC"/>
</svg>
