<svg width="22" height="21" viewBox="0 0 22 21" fill="none" xmlns="http://www.w3.org/2000/svg">
<path d="M21.8731 3.9491C21.811 3.86002 21.7292 3.78647 21.634 3.73419C21.5388 3.6819 21.4329 3.65228 21.3244 3.64764L7.67755 3.0594C7.286 3.04227 6.9588 3.34456 6.94206 3.7343C6.92542 4.12388 7.22722 4.45305 7.6169 4.46979L20.3398 5.01825L17.8382 12.8234H6.70584L4.6946 1.87239C4.67291 1.75433 4.62146 1.64376 4.54512 1.55112C4.46878 1.45848 4.37008 1.38685 4.25835 1.34298L0.964293 0.0488839C0.601246 -0.0932528 0.191576 0.0850704 0.0489958 0.447674C-0.0933378 0.810474 0.0849361 1.22039 0.447786 1.36297L3.37673 2.5136L5.42346 13.6568C5.45333 13.8192 5.53916 13.966 5.66602 14.0716C5.79288 14.1773 5.95275 14.2351 6.11784 14.2351H6.45736L5.68208 16.3886C5.65004 16.4774 5.63988 16.5726 5.65246 16.6662C5.66504 16.7597 5.69999 16.8489 5.75435 16.926C5.80861 17.0032 5.88065 17.0663 5.96438 17.1098C6.04812 17.1533 6.14109 17.176 6.23546 17.176H6.77924C6.44229 17.551 6.23546 18.0448 6.23546 18.5878C6.23546 19.7555 7.18561 20.7054 8.35308 20.7054C9.52055 20.7054 10.4707 19.7555 10.4707 18.5878C10.4707 18.0449 10.2639 17.551 9.92698 17.176H14.5439C14.2068 17.551 14.0001 18.0448 14.0001 18.5878C14.0001 19.7555 14.95 20.7054 16.1177 20.7054C17.2854 20.7054 18.2353 19.7555 18.2353 18.5878C18.2353 18.0449 18.0285 17.551 17.6917 17.176H18.353C18.6779 17.176 18.9412 16.9127 18.9412 16.5878C18.9412 16.2629 18.6779 15.9996 18.353 15.9996H7.07243L7.70764 14.2349H18.3529C18.5024 14.235 18.6481 14.1875 18.7689 14.0993C18.8897 14.0112 18.9794 13.887 19.025 13.7446L21.9662 4.56811C21.9994 4.46474 22.0083 4.35508 21.9922 4.2477C21.976 4.14032 21.9353 4.03812 21.8731 3.9491ZM8.35313 19.5292C7.83407 19.5292 7.41194 19.1071 7.41194 18.588C7.41194 18.069 7.83407 17.6469 8.35313 17.6469C8.8722 17.6469 9.29428 18.069 9.29428 18.588C9.29428 19.1071 8.8722 19.5292 8.35313 19.5292ZM16.1177 19.5292C15.5986 19.5292 15.1765 19.1071 15.1765 18.588C15.1765 18.069 15.5986 17.6469 16.1177 17.6469C16.6367 17.6469 17.0588 18.069 17.0588 18.588C17.0588 19.1071 16.6367 19.5292 16.1177 19.5292Z" fill="#19254B"/>
</svg>
