<svg width="50" height="51" viewBox="0 0 50 51" fill="none" xmlns="http://www.w3.org/2000/svg">
<path d="M20.5003 14.5C17.3003 5.29998 24.8337 1.66664 29.0003 0.999976C30.6003 0.60719 33.667 2.16965 35.0003 2.99998C41.8003 9.39998 38.167 15.6666 35.5003 18C27.1003 23.2 22.0003 17.8333 20.5003 14.5Z" fill="#FFEDE2"/>
<path d="M22.9847 33.9231C23.3659 33.5411 23.3659 32.923 22.9847 32.541C22.6031 32.1602 21.985 32.1602 21.603 32.541C21.2222 32.923 21.2222 33.5411 21.603 33.9231C21.985 34.3039 22.6031 34.3039 22.9847 33.9231Z" fill="#FF6100"/>
<path d="M18.3604 10.7425C18.3604 16.6659 23.1794 21.4854 29.1028 21.4854C35.0262 21.4854 39.8453 16.6659 39.8453 10.7425C39.8453 4.81908 35.0262 0 29.1028 0C23.1794 0 18.3604 4.81908 18.3604 10.7425ZM37.8924 10.7425C37.8924 15.589 33.9494 19.532 29.1028 19.532C24.2563 19.532 20.3133 15.589 20.3133 10.7425C20.3133 5.89631 24.2563 1.95335 29.1028 1.95335C33.9494 1.95335 37.8924 5.89631 37.8924 10.7425Z" fill="#FF6100"/>
<path d="M11.2488 49.7267C11.6273 50.1083 12.2436 50.1125 12.6271 49.7347L17.3618 45.0702C18.1662 44.2658 18.4108 43.0748 18.0571 42.0396L19.0755 41.0574C19.6239 40.5277 20.3458 40.2358 21.109 40.2358H34.0918C36.3951 40.2358 38.572 39.3513 40.2224 37.7452C40.2903 37.6792 39.7069 38.3664 49.0795 27.1645C50.4696 25.5198 50.2616 23.0502 48.6155 21.6585C46.9796 20.2799 44.529 20.4779 43.1351 22.0943L37.3723 28.0173C36.6446 27.1218 35.535 26.5635 34.336 26.5635H23.4459C21.8962 25.9152 20.252 25.587 18.5554 25.587C13.8527 25.587 9.74645 27.759 7.54277 31.8313C6.61437 31.6554 5.63521 31.9363 4.9308 32.6407L0.284952 37.3003C-0.0943472 37.6807 -0.0951103 38.2962 0.283426 38.6778L11.2488 49.7267ZM18.555 27.54C20.0509 27.54 21.4971 27.841 22.8544 28.4348C22.978 28.489 23.1112 28.5168 23.2459 28.5168H34.336C35.3949 28.5168 36.2894 29.3804 36.2894 30.4698C36.2894 31.547 35.4133 32.4232 34.336 32.4232H26.3681C25.8289 32.4232 25.3916 32.8605 25.3916 33.3997C25.3916 33.9392 25.8289 34.3761 26.3681 34.3761H34.336C36.4901 34.3761 38.2424 32.6239 38.2424 30.4698C38.2424 30.2981 38.2301 30.1279 38.208 29.9592C43.7826 24.2289 44.5687 23.4238 44.6023 23.3837C45.2983 22.5621 46.5339 22.458 47.3558 23.1509C48.1785 23.8466 48.2827 25.0814 47.5848 25.9075L38.8254 36.3791C37.5463 37.607 35.867 38.2828 34.0918 38.2828H21.109C19.8368 38.2828 18.6325 38.7694 17.719 39.652L16.889 40.4529L9.23817 32.8025C11.0263 29.4479 14.3816 27.54 18.555 27.54ZM6.31291 34.0209C6.63497 33.6988 7.12951 33.6408 7.52217 33.8835C7.69121 33.9865 7.20583 33.5447 15.9808 42.3075C16.3712 42.6978 16.3502 43.3198 15.9862 43.6838L11.9497 47.6604L2.35393 37.9913L6.31291 34.0209Z" fill="#FF6100"/>
<path d="M27.9308 4.88312V6.0275C26.7941 6.43046 25.9775 7.51608 25.9775 8.78944C25.9775 10.4047 27.2917 11.7193 28.9073 11.7193C29.4457 11.7193 29.8838 12.1573 29.8838 12.6958C29.8838 13.2342 29.4457 13.6723 28.9073 13.6723C28.4902 13.6723 28.0396 13.4101 27.6393 12.9335C27.292 12.5206 26.6762 12.4676 26.2633 12.8144C25.8504 13.1617 25.797 13.7776 26.1442 14.1905C26.6662 14.8113 27.2802 15.244 27.9308 15.4623V16.6021C27.9308 17.1417 28.3681 17.5786 28.9073 17.5786C29.4465 17.5786 29.8838 17.1417 29.8838 16.6021V15.4577C31.0205 15.0544 31.8371 13.9687 31.8371 12.6958C31.8371 11.0801 30.523 9.76593 28.9073 9.76593C28.3689 9.76593 27.9308 9.32786 27.9308 8.78944C27.9308 8.25102 28.3689 7.81257 28.9073 7.81257C29.2534 7.81257 29.6186 7.98925 29.9635 8.32314C30.3512 8.69824 30.9694 8.68794 31.3445 8.30063C31.7196 7.91293 31.7093 7.29476 31.322 6.91966C30.8263 6.44 30.3302 6.16869 29.8838 6.02063V4.88312C29.8838 4.34355 29.4465 3.90625 28.9073 3.90625C28.3681 3.90625 27.9308 4.34355 27.9308 4.88312Z" fill="#FF6100"/>
</svg>
