<svg width="50" height="50" viewBox="0 0 50 50" fill="none" xmlns="http://www.w3.org/2000/svg">
<path d="M10.4997 22.5C12.4997 12.9 20.6664 10.5 24.4997 10.5C35.6997 9.7 39.4998 19.5 39.9998 24.5C39.1998 36.5 29.6664 39.5 24.9997 39.5C11.7997 39.1 9.83307 28 10.4997 22.5Z" fill="#FF6100"/>
<path d="M30.4324 14.7161C29.2607 14.7161 28.2833 15.5604 28.0749 16.6724L20.3783 19.8694H17.5883C16.3662 19.8694 15.3721 20.8113 15.3721 21.9691V25.581C15.3721 26.4479 15.9295 27.1937 16.7226 27.5138V32.2283C16.7226 33.4789 17.7399 34.4962 18.9905 34.4962C20.2411 34.4962 21.2585 33.4789 21.2585 32.2283V28.0463L28.0749 30.8777C28.2833 31.9897 29.2608 32.8341 30.4324 32.8341C31.7554 32.8341 32.8316 31.7579 32.8316 30.4349V27.7322C34.5982 27.2739 35.9015 25.6511 35.9015 23.775C35.9015 21.8989 34.5982 20.2762 32.8316 19.818V17.1152C32.8316 15.7922 31.7554 14.7161 30.4324 14.7161ZM21.2585 21.0931L28.0333 18.2791V29.2712L21.2585 26.4571V21.0931ZM16.8397 21.9691C16.8397 21.6207 17.1755 21.3371 17.5882 21.3371H19.7907V26.2129H17.5883C17.1756 26.2129 16.8398 25.9294 16.8398 25.5809V21.9691H16.8397ZM18.9905 33.0286C18.5492 33.0286 18.1902 32.6696 18.1902 32.2283V27.6807H19.7907V32.2283C19.7908 32.6696 19.4317 33.0286 18.9905 33.0286ZM31.3639 30.435C31.3639 30.9486 30.946 31.3665 30.4324 31.3665C29.9188 31.3665 29.501 30.9486 29.501 30.435V17.1152C29.501 16.6016 29.9188 16.1837 30.4324 16.1837C30.946 16.1837 31.3639 16.6015 31.3639 17.1152V30.435ZM34.4338 23.775C34.4338 24.8442 33.7736 25.785 32.8316 26.187V21.3632C33.7735 21.7651 34.4338 22.7058 34.4338 23.775Z" fill="white"/>
<path d="M43.2685 37.548C41.988 37.548 40.7727 37.9673 39.7764 38.7385L36.4497 35.4118C38.9533 32.6617 40.2876 29.2206 40.4517 25.7338H43.118C43.4559 27.3015 44.8524 28.4802 46.5197 28.4802C48.4388 28.4803 50 26.919 50 25C50 23.081 48.4388 21.5197 46.5197 21.5197C44.8524 21.5197 43.456 22.6984 43.118 24.2661H40.4517C40.2876 20.7794 38.9533 17.3383 36.4497 14.5881L39.7764 11.2614C40.7676 12.0285 41.9763 12.4478 43.2496 12.4519H43.2521C43.6563 12.4519 43.9846 12.1249 43.9859 11.7204C43.9873 11.3151 43.6598 10.9855 43.2545 10.9842C42.1239 10.9805 41.0609 10.5382 40.2614 9.73867C38.6034 8.08057 38.6034 5.38262 40.2614 3.72451C41.0646 2.92129 42.1325 2.479 43.2686 2.479C44.4045 2.479 45.4724 2.92129 46.2756 3.72451C47.0789 4.52773 47.5212 5.59561 47.5212 6.73154C47.5212 7.86748 47.0789 8.93535 46.2756 9.73867C46.0874 9.92686 45.882 10.0975 45.6648 10.2459C45.3302 10.4745 45.2443 10.9312 45.4729 11.2658C45.7016 11.6003 46.1582 11.6863 46.4929 11.4576C46.7851 11.2579 47.0612 11.0287 47.3135 10.7764C48.3939 9.6959 48.9889 8.25938 48.9889 6.73145C48.9889 5.20352 48.3938 3.76699 47.3135 2.68662C46.2331 1.60625 44.7966 1.01123 43.2686 1.01123C41.7405 1.01123 40.3041 1.60625 39.2235 2.68662C37.1692 4.74102 37.0088 7.98135 38.7391 10.223L35.412 13.5502C32.6618 11.0466 29.2208 9.7123 25.734 9.54824V6.88203C27.3017 6.54414 28.4804 5.14756 28.4804 3.48027C28.4803 1.56123 26.919 0 25 0C23.081 0 21.5197 1.56123 21.5197 3.48027C21.5197 5.14756 22.6984 6.54414 24.2661 6.88203V9.54834C20.7794 9.7124 17.3383 11.0467 14.5881 13.5503L11.2609 10.2231C12.9912 7.98145 12.8308 4.74111 10.7765 2.68672C9.69609 1.60635 8.25957 1.01133 6.73164 1.01133C5.20371 1.01133 3.76719 1.60635 2.68672 2.68672C1.60625 3.76709 1.01123 5.20371 1.01123 6.73164C1.01123 8.25957 1.60625 9.69609 2.68662 10.7766C3.76699 11.857 5.20352 12.452 6.73154 12.452C8.01201 12.452 9.22734 12.0327 10.2236 11.2615L13.5513 14.5893C12.7358 15.4849 12.0284 16.4674 11.4465 17.521C11.2506 17.8758 11.3793 18.3222 11.7341 18.5182C12.0888 18.7142 12.5353 18.5854 12.7312 18.2307C13.3641 17.0849 14.1592 16.0297 15.0944 15.0944C20.5562 9.63262 29.4436 9.63252 34.9055 15.0944C40.3675 20.5564 40.3675 29.4436 34.9055 34.9056C29.4436 40.3674 20.5563 40.3674 15.0944 34.9056C11.3898 31.201 10.0646 25.7919 11.636 20.7892C11.7575 20.4025 11.5425 19.9905 11.1559 19.8691C10.7686 19.7477 10.3572 19.9628 10.2357 20.3493C9.83018 21.6403 9.60156 22.9559 9.53799 24.2662H6.88203C6.54414 22.6985 5.14756 21.5198 3.48027 21.5198C1.56123 21.5197 0 23.081 0 25C0 26.919 1.56123 28.4803 3.48027 28.4803C5.14756 28.4803 6.54404 27.3016 6.88203 25.7339H9.53633C9.70186 29.2816 11.0893 32.707 13.5514 35.4108L10.2237 38.7385C9.22744 37.9673 8.01211 37.548 6.73164 37.548C5.20361 37.548 3.76719 38.1431 2.68672 39.2235C1.60625 40.304 1.01133 41.7404 1.01133 43.2684C1.01133 44.7963 1.60635 46.2328 2.68672 47.3133C3.76709 48.3938 5.20371 48.9887 6.73164 48.9887C7.13701 48.9887 7.46553 48.6601 7.46553 48.2548C7.46553 47.8495 7.13701 47.5209 6.73164 47.5209C5.5957 47.5209 4.52773 47.0785 3.72461 46.2754C2.92129 45.4722 2.479 44.4043 2.479 43.2683C2.479 42.1323 2.92129 41.0645 3.72461 40.2612C4.52773 39.458 5.5957 39.0157 6.73164 39.0157C7.86758 39.0157 8.93545 39.458 9.73877 40.2612C11.3968 41.9193 11.3968 44.6173 9.73887 46.2753C9.53437 46.4797 9.30977 46.6633 9.07109 46.8208C8.73281 47.0441 8.63965 47.4993 8.86299 47.8375C9.08623 48.1758 9.5415 48.2689 9.87969 48.0457C10.2006 47.8339 10.5023 47.5874 10.7767 47.3132C12.831 45.2587 12.9914 42.0184 11.2611 39.7768L14.5883 36.4496C17.3385 38.9532 20.7796 40.2875 24.2663 40.4516V43.1179C22.6986 43.4558 21.5199 44.8523 21.5199 46.5196C21.5197 48.4388 23.081 50 25 50C26.919 50 28.4803 48.4388 28.4803 46.5197C28.4803 44.8524 27.3016 43.4559 25.7339 43.118V40.4517C29.2206 40.2876 32.6617 38.9533 35.4119 36.4497L38.739 39.7769C37.0087 42.0186 37.1691 45.2589 39.2234 47.3133C40.304 48.3938 41.7404 48.9887 43.2685 48.9887C44.7965 48.9887 46.2329 48.3937 47.3134 47.3133C48.3938 46.2329 48.9888 44.7964 48.9888 43.2685C48.9888 41.7405 48.3938 40.304 47.3134 39.2235C46.233 38.1431 44.7964 37.548 43.2685 37.548ZM22.9874 3.48027C22.9874 2.37051 23.8902 1.46768 25 1.46768C26.1098 1.46768 27.0126 2.37051 27.0126 3.48027C27.0126 4.59004 26.1098 5.49287 25 5.49287C23.8902 5.49287 22.9874 4.59004 22.9874 3.48027ZM3.72461 9.73867C2.92129 8.93545 2.479 7.86758 2.479 6.73154C2.479 5.59561 2.92129 4.52773 3.72461 3.72451C4.52773 2.92129 5.5957 2.479 6.73164 2.479C7.86758 2.479 8.93545 2.92129 9.73877 3.72451C11.3968 5.38262 11.3968 8.08057 9.73877 9.73867C8.93555 10.5419 7.86768 10.9842 6.73164 10.9842C5.59561 10.9842 4.52773 10.5419 3.72461 9.73867ZM46.5197 22.9874C47.6295 22.9874 48.5323 23.8902 48.5323 25C48.5323 26.1098 47.6295 27.0126 46.5197 27.0126C45.41 27.0126 44.5071 26.1098 44.5071 25C44.5071 23.8902 45.41 22.9874 46.5197 22.9874ZM3.48027 27.0126C2.37051 27.0126 1.46768 26.1098 1.46768 25C1.46768 23.8902 2.37051 22.9874 3.48027 22.9874C4.59004 22.9874 5.49287 23.8903 5.49287 25C5.49287 26.1097 4.59004 27.0126 3.48027 27.0126ZM27.0126 46.5197C27.0126 47.6294 26.1098 48.5323 25 48.5323C23.8902 48.5323 22.9874 47.6295 22.9874 46.5197C22.9874 45.41 23.8902 44.5071 25 44.5071C26.1098 44.5071 27.0126 45.41 27.0126 46.5197ZM46.2754 46.2755C45.4723 47.0787 44.4043 47.521 43.2684 47.521C42.1324 47.521 41.0645 47.0787 40.2612 46.2755C38.6032 44.6174 38.6032 41.9194 40.2612 40.2613C41.0645 39.4581 42.1323 39.0158 43.2684 39.0158C44.4043 39.0158 45.4722 39.4581 46.2754 40.2613C47.0787 41.0646 47.521 42.1324 47.521 43.2685C47.5211 44.4043 47.0787 45.4722 46.2754 46.2755Z" fill="white"/>
</svg>
