<svg width="50" height="50" viewBox="0 0 50 50" fill="none" xmlns="http://www.w3.org/2000/svg">
<g clip-path="url(#clip0_1_7468)">
<path d="M31.5604 27.304V31.8288C31.5604 32.7381 30.1476 33.5279 28.0736 33.9263C27.0622 34.113 26.0356 34.2049 25.0072 34.2007C21.3873 34.2007 18.4531 33.1394 18.4531 31.8289V27.3041C18.4531 28.6145 21.3873 29.6758 25.0072 29.6758C28.6271 29.6758 31.5603 28.6145 31.5603 27.3041L31.5604 27.304Z" fill="#FF6100"/>
<path d="M31.5604 27.21V27.304C31.5604 28.6144 28.6271 29.6758 25.0072 29.6758C21.3873 29.6758 18.4531 28.6144 18.4531 27.304V22.811C18.4531 24.1215 21.3873 25.1821 25.0072 25.1821C28.6271 25.1821 31.5603 24.1215 31.5603 22.811L31.5604 27.21Z" fill="#FF6100"/>
<path d="M31.5604 18.3169V22.811C31.5604 24.1215 28.6271 25.1821 25.0072 25.1821C21.3873 25.1821 18.4531 24.1215 18.4531 22.811V18.317C18.4531 19.6266 21.3873 20.6888 25.0072 20.6888C28.6271 20.6888 31.5604 19.6266 31.5604 18.3169Z" fill="#FF6100"/>
<path d="M25.0072 15.9448C28.6258 15.9448 31.5603 17.0074 31.5603 18.3169C31.5603 19.6265 28.6258 20.6888 25.0072 20.6888C21.3886 20.6888 18.4531 19.6266 18.4531 18.3169C18.4531 17.0073 21.3873 15.9448 25.0072 15.9448Z" fill="#FF6100"/>
<path d="M2.0552 11.1474C1.94951 9.94576 2.01959 8.73516 2.26324 7.55376C2.59009 6.08153 3.2306 4.86087 4.16763 3.92512C5.48017 2.61173 7.32589 1.89137 9.64689 1.78405C10.7714 1.74205 11.8972 1.8186 13.0056 2.01243L13.2997 0.33428C12.0706 0.119568 10.8223 0.0349562 9.57545 0.0818441C6.81016 0.209606 4.5852 1.09755 2.96401 2.72023C1.79286 3.8902 0.997227 5.39438 0.599676 7.19103L0.59712 7.20231C0.318905 8.54812 0.238634 9.92733 0.358845 11.2963L2.0552 11.1474ZM0.85424 14.4376C1.06775 15.3508 1.3273 16.2526 1.63188 17.1396L3.24381 16.5885C2.95805 15.7562 2.71432 14.9101 2.51354 14.0533L0.85424 14.4376ZM5.79201 22.278C5.27841 21.3418 4.80803 20.4006 4.39345 19.481L2.84051 20.1814C3.2734 21.1413 3.7638 22.122 4.29816 23.0968L5.79201 22.278ZM12.4434 31.6584C12.3694 31.5739 12.2954 31.4895 12.2221 31.4046L10.9362 32.5213C11.0115 32.6086 11.0876 32.6955 11.1641 32.7825C11.6027 33.2814 12.0488 33.7736 12.5024 34.2589C12.7066 34.4774 12.9126 34.6943 13.1201 34.9097L14.3486 33.7303C13.6981 33.0541 13.0628 32.3633 12.4434 31.6584ZM8.87756 30.0188L10.223 28.9737C10.0995 28.8147 9.97676 28.655 9.85493 28.4946C9.34168 27.8207 8.84468 27.1346 8.36438 26.4368L6.96156 27.4033C7.45728 28.1226 7.96993 28.8301 8.49906 29.5252C8.62411 29.6906 8.75028 29.8551 8.87756 30.0188ZM14.5699 36.3687C16.1786 37.9396 17.8718 39.4215 19.642 40.808C22.0431 42.6969 24.6057 44.371 27.3002 45.8107C28.8737 46.6487 30.5045 47.3744 32.1803 47.9824L30.6253 48.4279L31.094 50.0652L35.4177 48.8275L35.4443 48.8201C35.5524 48.7899 35.6536 48.7385 35.7418 48.6691C35.8301 48.5996 35.9037 48.5134 35.9585 48.4153C36.0133 48.3173 36.0482 48.2094 36.0611 48.0979C36.0741 47.9863 36.0648 47.8733 36.0339 47.7653L34.8977 43.7985L33.26 44.2677L33.9818 46.788C31.9481 46.1448 29.9786 45.3139 28.0987 44.306C25.4934 42.9135 23.0156 41.2946 20.6939 39.4679C18.972 38.1195 17.325 36.6781 15.7602 35.1501L14.5699 36.3687ZM49.4668 36.647C49.1186 34.4751 48.3999 32.1378 47.3308 29.6999L45.7707 30.3845C46.7822 32.6898 47.4597 34.8873 47.7845 36.916C48.3938 40.726 47.7242 43.7312 45.8481 45.6069C44.9194 46.5359 43.7109 47.1736 42.2573 47.5013C41.0833 47.7653 39.75 47.8286 38.2935 47.6888C37.9362 47.6547 37.5665 47.6073 37.1943 47.5487L36.9281 49.2305C37.334 49.2945 37.7387 49.3466 38.1309 49.3844C38.6864 49.4376 39.2275 49.4642 39.7541 49.4642C40.7215 49.4701 41.6867 49.369 42.6316 49.1627C44.4054 48.7626 45.893 47.9716 47.0529 46.8113C49.3308 44.5335 50.1655 41.0188 49.4668 36.647ZM45.3382 25.7556L43.8581 26.5991C44.2694 27.3209 44.6566 28.046 45.0072 28.7533L46.5331 27.9963C46.1563 27.2382 45.7578 26.491 45.3382 25.7556ZM41.3832 19.8341L40.0302 20.8693C40.6674 21.7028 41.282 22.5535 41.8731 23.4204L43.2809 22.4609C42.672 21.5683 42.0393 20.6924 41.3832 19.8341ZM37.1726 14.9117L35.9403 16.0878C36.6647 16.8469 37.3683 17.6254 38.0505 18.4226L39.3452 17.3155C38.6429 16.4947 37.9183 15.6931 37.1726 14.9117ZM15.2029 2.03191L16.0641 6.05949L17.7302 5.70346L17.1799 3.13034C18.7434 3.68465 20.2644 4.35238 21.7307 5.12821C24.3025 6.4857 26.7503 8.06605 29.0461 9.85113C30.1295 10.6866 31.22 11.5929 32.2872 12.5444C32.8886 13.082 33.4794 13.6314 34.0592 14.1921C34.3176 14.4411 34.5737 14.6924 34.8274 14.9462L36.0319 13.7418C35.771 13.4807 35.5077 13.2219 35.2421 12.9656C34.6462 12.3897 34.0391 11.8254 33.4213 11.273C32.3238 10.2949 31.2021 9.36244 30.09 8.50484C29.0074 7.66311 27.8858 6.86545 26.7363 6.11016C27.3779 5.74764 28.0288 5.40193 28.6885 5.07338L27.9307 3.54748C27.1458 3.93841 26.3725 4.35225 25.6118 4.78847L26.1533 5.73295C24.9731 4.9813 23.7633 4.27734 22.5266 3.62275C21.4263 3.04119 20.2965 2.51729 19.1417 2.0532L20.6431 1.7321L20.2867 0.0664062L15.8565 1.01386C15.6353 1.06294 15.4424 1.1975 15.3199 1.3882C15.1975 1.57891 15.1555 1.81029 15.2029 2.03191ZM0.268986 36.7817C0.0538933 38.0103 -0.0306866 39.2583 0.0166572 40.5047C0.144312 43.2708 1.03183 45.4958 2.65419 47.1182C3.82661 48.2906 5.33122 49.0854 7.13659 49.4825C8.0763 49.6778 9.03357 49.776 9.99334 49.7757C10.4055 49.7757 10.818 49.7579 11.231 49.7217L11.0822 48.0249C9.88191 48.1309 8.67258 48.0607 7.49262 47.8165C6.01996 47.4925 4.79728 46.8525 3.85855 45.9138C2.54602 44.6009 1.82576 42.7547 1.71887 40.4332C1.6765 39.309 1.75287 38.1835 1.94671 37.0753L0.268986 36.7817ZM14.3723 49.2259C15.2852 49.0126 16.1867 48.7532 17.0735 48.4487L16.5228 46.8367C15.6906 47.1224 14.8446 47.3661 13.988 47.567L14.3723 49.2259ZM20.1158 47.24C21.0752 46.8075 22.0563 46.3172 23.0311 45.7828L22.2127 44.2889C21.2757 44.8025 20.3349 45.2729 19.4153 45.6872L20.1158 47.24Z" fill="white"/>
<path d="M26.3716 41.7161L27.3378 43.1189C28.0571 42.6232 28.7646 42.1105 29.4597 41.5813C29.6249 41.4558 29.7894 41.3294 29.9533 41.2021L28.9073 39.8571C28.7485 39.9809 28.5888 40.1036 28.4282 40.2251C27.7547 40.7385 27.0689 41.2356 26.3716 41.7161ZM31.3394 37.8582L32.4557 39.145C32.5426 39.0697 32.6295 38.9937 32.7173 38.9168C33.2155 38.478 33.7075 38.0321 34.1929 37.5792C34.4116 37.3747 34.6287 37.1684 34.8441 36.9604L33.6642 35.7318C33.454 35.9336 33.2427 36.1344 33.0304 36.3341C32.5575 36.7752 32.0784 37.2095 31.5931 37.637C31.5086 37.7111 31.4238 37.7847 31.3394 37.8582ZM36.8499 2.29551C40.6599 1.68662 43.6647 2.35577 45.5409 4.23195C46.47 5.16057 47.1075 6.36962 47.4352 7.82397C47.6992 8.99756 47.7625 10.331 47.6228 11.7866C47.5887 12.1438 47.5412 12.5136 47.4822 12.8858L49.1649 13.1519C49.229 12.7456 49.2809 12.341 49.3184 11.9496C49.4755 10.3138 49.4007 8.80007 49.0971 7.44963C48.6975 5.67545 47.9064 4.18745 46.7457 3.02706C44.4674 0.748535 40.9531 -0.0861735 36.5809 0.613321C34.409 0.961045 32.0718 1.6797 29.6343 2.74939L30.3184 4.30936C32.6241 3.29791 34.8216 2.62035 36.8499 2.29551ZM18.3566 12.0295L17.2491 10.7352C16.4283 11.4376 15.6267 12.162 14.8452 12.9078L16.0217 14.1401C16.7807 13.4155 17.5593 12.7117 18.3566 12.0295ZM23.3548 8.20778L22.3957 6.79964C21.503 7.40803 20.6271 8.04069 19.769 8.6969L20.8036 10.0501C21.637 9.41278 22.4876 8.79844 23.3547 8.20778H23.3548ZM48.7619 14.662L48.7544 14.6354C48.724 14.5274 48.6725 14.4266 48.603 14.3386C48.5335 14.2506 48.4473 14.1772 48.3493 14.1226C48.2514 14.0678 48.1437 14.033 48.0322 14.0201C47.9208 14.0072 47.8079 14.0164 47.7001 14.0473L43.7334 15.1823L44.2016 16.8201L46.722 16.0989C46.0783 18.1323 45.2474 20.1017 44.2399 21.9816C42.8479 24.5871 41.2292 27.0649 39.4023 29.3862C38.0536 31.1083 36.6122 32.7557 35.0845 34.3212L36.3031 35.5111C37.8738 33.9019 39.3555 32.2084 40.7419 30.438C42.6312 28.0373 44.3053 25.4748 45.7446 22.7802C46.5825 21.2064 47.3084 19.5755 47.9168 17.8997L48.3622 19.4552L50 18.9868L48.7619 14.662ZM1.78664 34.896C1.82631 34.896 1.86594 34.8934 1.90524 34.888C1.92547 34.8851 1.94591 34.8813 1.96593 34.8771L5.99382 34.0158L5.63737 32.3502L3.06425 32.9005C3.61831 31.3367 4.28624 29.8156 5.06266 28.3494C6.4203 25.7776 8.00046 23.3296 9.78504 21.0334C10.621 19.95 11.5273 18.8596 12.4776 17.7932C13.0156 17.1917 13.565 16.6006 14.1257 16.0203C14.3746 15.7623 14.6261 15.5067 14.8802 15.2537L13.6753 14.0494C13.3772 14.3476 13.1309 14.598 12.8997 14.838C12.3238 15.4342 11.7594 16.0414 11.2066 16.6591C10.2288 17.7563 9.29635 18.8783 8.43844 19.9908C6.59379 22.3646 4.96031 24.8953 3.55667 27.5538C2.97476 28.6538 2.45086 29.7835 1.98712 30.9384L1.66601 29.4374L0 29.793L0.947352 34.223C0.989587 34.414 1.09583 34.5849 1.24847 34.7073C1.40112 34.8297 1.591 34.8962 1.78664 34.8959V34.896ZM17.6538 18.3168V31.8287C17.6538 32.5494 18.0583 33.5651 20.1091 34.307C21.4375 34.7878 23.1734 35.0523 25.0175 35.0523H25.0811C26.1465 35.0517 27.2097 34.9547 28.2577 34.7624C30.9132 34.2525 32.4528 33.1832 32.4528 31.8283V18.3168C32.4528 17.596 32.0019 16.5814 29.9508 15.8386C28.622 15.3577 26.8632 15.0933 25.0171 15.0933C23.1709 15.0933 21.4424 15.3582 20.1137 15.8386C18.0633 16.581 17.6537 17.5961 17.6537 18.3168H17.6538ZM30.7493 31.8287C30.7493 31.9884 30.0597 32.6812 27.94 33.0885C26.976 33.2657 25.9976 33.3529 25.0174 33.3488C23.3631 33.3488 21.8414 33.1204 20.6939 32.705C19.5722 32.2991 19.3573 31.8919 19.3573 31.8288V29.4511C19.5995 29.5795 19.8508 29.6902 20.1091 29.7821C21.4375 30.2629 23.1734 30.5274 25.0208 30.5274C26.8677 30.5274 28.6299 30.2625 29.9583 29.7821C30.2493 29.6769 30.4299 29.5659 30.7493 29.451V31.8287ZM30.7493 27.2099V27.3039C30.7493 27.3674 30.4931 27.7746 29.3718 28.1805C28.2252 28.5955 26.6723 28.8239 25.0175 28.8239C23.3627 28.8239 21.8409 28.5955 20.6934 28.1801C19.5722 27.7742 19.3573 27.367 19.3573 27.3039V24.9572C19.5995 25.0861 19.851 25.1969 20.1096 25.2888C21.4375 25.7687 23.1734 26.034 25.0208 26.034C26.8677 26.034 28.6299 25.7691 29.9577 25.2888C30.2489 25.1831 30.4299 25.0725 30.7493 24.9576V27.2099ZM30.7493 22.8109C30.7493 22.8742 30.4931 23.2813 29.3723 23.6868C28.2252 24.1018 26.6722 24.3302 25.0175 24.3302C23.3627 24.3302 21.8409 24.1014 20.6939 23.6868C19.5722 23.2813 19.3573 22.8742 19.3573 22.8109V20.4633C19.5994 20.5921 19.8507 20.7029 20.1091 20.7947C21.4378 21.276 23.1738 21.54 25.0208 21.54C26.8674 21.54 28.629 21.2751 29.9577 20.7947C30.2489 20.6896 30.4299 20.5785 30.7493 20.4636V22.8109ZM20.6625 17.4406C21.8104 17.0251 23.3534 16.7964 25.0074 16.7964C26.6618 16.7964 28.2039 17.0251 29.3513 17.4406C30.473 17.8465 30.7088 18.2537 30.7088 18.3168C30.7088 18.3799 30.473 18.7869 29.3513 19.193C28.2039 19.6083 26.6614 19.837 25.0074 19.837C23.3534 19.837 21.8104 19.6086 20.6625 19.1931C19.5409 18.7869 19.3051 18.3801 19.3051 18.3169C19.3051 18.2538 19.5409 17.8465 20.6625 17.4406Z" fill="white"/>
</g>
<defs>
<clipPath id="clip0_1_7468">
<rect width="50" height="50" fill="white"/>
</clipPath>
</defs>
</svg>
