<svg width="50" height="50" viewBox="0 0 50 50" fill="none" xmlns="http://www.w3.org/2000/svg">
<path d="M21.5 31.5L18.5 29L19.5 23.5C19.9 22.7 23.3333 22.8333 25 23C29 22.2 30.6667 23.6667 31 24.5V29.5L28 31V26.5H22L21.5 31.5Z" fill="#FF6100"/>
<circle cx="25" cy="18" r="3" fill="#FF6100"/>
<path d="M10.1263 20.2526C15.71 20.2526 20.2525 15.71 20.2525 10.1264C20.2525 7.99023 19.5952 5.94746 18.3516 4.21885C18.1154 3.89043 17.6576 3.81582 17.3293 4.05205C17.001 4.28828 16.9263 4.7459 17.1625 5.07432C18.2257 6.55225 18.7877 8.29912 18.7877 10.1264C18.7877 14.9022 14.9021 18.7878 10.1263 18.7878C5.35039 18.7878 1.46484 14.9022 1.46484 10.1263C1.46484 5.35029 5.35039 1.46484 10.1263 1.46484C11.8394 1.46484 13.4953 1.96377 14.9151 2.90781C15.2518 3.13203 15.7065 3.04043 15.9305 2.70342C16.1545 2.3666 16.0629 1.91201 15.7261 1.68809C14.0652 0.583789 12.1288 0 10.1263 0C4.54268 0 0 4.54268 0 10.1263C0 15.7099 4.54268 20.2526 10.1263 20.2526Z" fill="white"/>
<path d="M10.1263 29.7473C4.54268 29.7473 0 34.29 0 39.8737C0 45.4574 4.54268 50 10.1263 50C15.7099 50 20.2525 45.4573 20.2525 39.8737C20.2525 34.2901 15.71 29.7473 10.1263 29.7473ZM10.1263 48.5351C5.35039 48.5351 1.46484 44.6496 1.46484 39.8737C1.46484 35.0978 5.35039 31.2123 10.1263 31.2123C14.9021 31.2123 18.7877 35.0978 18.7877 39.8737C18.7877 44.6496 14.9022 48.5351 10.1263 48.5351Z" fill="white"/>
<path d="M39.8733 29.7473C34.2896 29.7473 29.7471 34.29 29.7471 39.8736C29.7471 45.4572 34.2896 50 39.8733 50C45.457 50 49.9996 45.4573 49.9996 39.8737C49.9996 34.2901 45.4569 29.7473 39.8733 29.7473ZM39.8733 48.5351C35.0975 48.5351 31.2119 44.6496 31.2119 39.8737C31.2119 35.0978 35.0975 31.2123 39.8733 31.2123C44.6492 31.2123 48.5348 35.0977 48.5348 39.8737C48.5348 44.6497 44.6492 48.5351 39.8733 48.5351Z" fill="white"/>
<path d="M24.9999 21.0354C26.6987 21.0354 28.0809 19.6533 28.0809 17.9544C28.0809 16.2556 26.6988 14.8735 24.9999 14.8735C23.301 14.8735 21.9189 16.2556 21.9189 17.9544C21.9189 19.6533 23.3011 21.0354 24.9999 21.0354ZM24.9999 16.3385C25.891 16.3385 26.616 17.0634 26.616 17.9545C26.616 18.8456 25.891 19.5706 24.9999 19.5706C24.1088 19.5706 23.3838 18.8456 23.3838 17.9545C23.3838 17.0634 24.1088 16.3385 24.9999 16.3385Z" fill="white"/>
<path d="M18.0049 25.783V29.697C18.0049 30.1016 18.3327 30.4294 18.7373 30.4294C19.1419 30.4294 19.4697 30.1016 19.4697 29.697V25.783C19.4697 24.4601 20.5459 23.384 21.8686 23.384H28.1312C29.4539 23.384 30.53 24.4602 30.53 25.783V29.697C30.53 30.1016 30.8578 30.4294 31.2624 30.4294C31.667 30.4294 31.9948 30.1016 31.9948 29.697V25.783C31.9948 23.6525 30.2615 21.9192 28.1312 21.9192H21.8686C19.7382 21.9191 18.0049 23.6524 18.0049 25.783Z" fill="white"/>
<path d="M21.8691 25.8333C21.4646 25.8333 21.1367 26.1611 21.1367 26.5657V31.2626C21.1367 31.6672 21.4646 31.9951 21.8691 31.9951C22.2737 31.9951 22.6016 31.6672 22.6016 31.2626V26.5657C22.6016 26.1612 22.2736 25.8333 21.8691 25.8333Z" fill="white"/>
<path d="M28.1309 25.8333C27.7263 25.8333 27.3984 26.1611 27.3984 26.5657V31.2626C27.3984 31.6672 27.7263 31.9951 28.1309 31.9951C28.5354 31.9951 28.8633 31.6672 28.8633 31.2626V26.5657C28.8633 26.1612 28.5354 25.8333 28.1309 25.8333Z" fill="white"/>
<path d="M39.8734 20.2526C45.457 20.2526 49.9997 15.71 49.9997 10.1263C49.9997 4.54258 45.457 0 39.8734 0C34.2898 0 29.7471 4.54268 29.7471 10.1263C29.7471 15.7099 34.2897 20.2526 39.8734 20.2526ZM39.8734 1.46484C44.6493 1.46484 48.5349 5.35039 48.5349 10.1263C48.5349 14.9021 44.6493 18.7877 39.8734 18.7877C35.0976 18.7877 31.212 14.9021 31.212 10.1263C31.212 5.35039 35.0975 1.46484 39.8734 1.46484Z" fill="white"/>
<path d="M36.7423 15.3364C38.0095 15.3364 39.0403 14.3054 39.0403 13.0383V7.99798C39.0403 7.61497 39.2998 7.28265 39.6715 7.18978L43.7755 6.16371C43.7826 6.16185 43.7993 6.15775 43.8187 6.17288C43.838 6.18802 43.838 6.20531 43.838 6.21263V10.1143C43.5795 10.0133 43.2986 9.95726 43.0048 9.95726C41.7376 9.95726 40.7067 10.9882 40.7067 12.2553C40.7067 13.5224 41.7377 14.5534 43.0048 14.5534C44.2719 14.5534 45.3028 13.5224 45.3028 12.2553V6.21263C45.3028 5.74271 45.0904 5.30736 44.72 5.01829C44.3497 4.72913 43.8758 4.62884 43.42 4.74261L39.3162 5.76859C38.2914 6.02484 37.5756 6.94163 37.5756 7.99798V10.8972C37.3171 10.7962 37.0362 10.7402 36.7424 10.7402C35.4752 10.7402 34.4443 11.7711 34.4443 13.0382C34.4443 14.3053 35.4752 15.3364 36.7423 15.3364ZM43.0049 13.0886C42.5454 13.0886 42.1717 12.7149 42.1717 12.2554C42.1717 11.7959 42.5454 11.4222 43.0049 11.4222C43.4644 11.4222 43.8381 11.7959 43.8381 12.2554C43.8381 12.7149 43.4644 13.0886 43.0049 13.0886ZM36.7423 12.205C37.2018 12.205 37.5755 12.5787 37.5755 13.0382C37.5755 13.4977 37.2018 13.8714 36.7423 13.8714C36.2828 13.8714 35.9091 13.4977 35.9091 13.0382C35.9091 12.5787 36.2828 12.205 36.7423 12.205Z" fill="white"/>
<path d="M44.5703 36.01H43.0047C42.1691 36.01 41.4894 36.6897 41.4894 37.5252V37.5757H38.2572V37.5252C38.2572 36.6897 37.5775 36.01 36.742 36.01H35.1765C34.3409 36.01 33.6611 36.6897 33.6611 37.5252V42.2222C33.6611 43.0578 34.3409 43.7375 35.1765 43.7375H36.7421C37.5776 43.7375 38.2573 43.0578 38.2573 42.2222V42.1718H41.4895V42.2222C41.4895 43.0578 42.1692 43.7375 43.0048 43.7375H44.5704C45.406 43.7375 46.0856 43.0578 46.0856 42.2222V37.5252C46.0855 36.6897 45.4059 36.01 44.5703 36.01ZM36.7925 42.2221C36.7925 42.25 36.7699 42.2726 36.7421 42.2726H35.1765C35.1486 42.2726 35.126 42.25 35.126 42.2221V37.5251C35.126 37.4974 35.1485 37.4748 35.1765 37.4748H36.7421C36.7698 37.4748 36.7925 37.4973 36.7925 37.5251V42.2221ZM38.2573 40.707V39.0406H41.4895V40.707H38.2573ZM44.6207 42.2221C44.6207 42.25 44.5981 42.2726 44.5703 42.2726H43.0047C42.9769 42.2726 42.9542 42.25 42.9542 42.2221V37.5251C42.9542 37.4974 42.9768 37.4748 43.0047 37.4748H44.5703C44.598 37.4748 44.6207 37.4973 44.6207 37.5251V42.2221Z" fill="white"/>
<path d="M8.69077 7.05351C7.8103 7.05351 6.99028 7.3956 6.38149 8.01669C5.78276 8.62763 5.46313 9.43671 5.48119 10.2951C5.50805 11.5748 5.82465 12.7914 6.3726 13.7208C7.07016 14.9039 8.12504 15.5556 9.34311 15.5556C9.53666 15.5556 9.73832 15.5384 9.94233 15.5047C10.0642 15.4845 10.1877 15.4845 10.3094 15.5047C10.5134 15.5385 10.7151 15.5556 10.9088 15.5556C13.4455 15.5556 14.7725 12.8242 14.7725 10.1262C14.7725 9.23339 14.5132 8.52372 14.0018 8.01679C13.818 7.83466 13.6101 7.68652 13.3823 7.56562C13.9643 6.95351 14.2804 6.11239 14.2276 5.24462C14.2116 4.98163 14.0554 4.74736 13.8187 4.63144C12.8329 4.14843 11.6592 4.22245 10.7558 4.8248C10.5099 4.98866 10.2936 5.187 10.1086 5.40966L10.0379 5.19755C9.90991 4.81366 9.49487 4.60644 9.11157 4.73427C8.72778 4.8622 8.52036 5.27704 8.64829 5.66064L9.11176 7.05107C8.98451 7.05195 8.85815 7.05331 8.72983 7.05331C8.71684 7.05351 8.70522 7.05351 8.69077 7.05351ZM10.9087 14.0907C10.7951 14.0907 10.674 14.0803 10.5486 14.0595C10.4082 14.0363 10.267 14.0247 10.1258 14.0247C9.98461 14.0247 9.84321 14.0363 9.70297 14.0595C9.57778 14.0803 9.45678 14.0907 9.34301 14.0907C7.64311 14.0907 6.97797 11.8023 6.94555 10.2642C6.93578 9.80302 7.10698 9.36904 7.42758 9.04198C7.75864 8.70419 8.20707 8.51825 8.69086 8.51825H8.69272C8.95004 8.51825 9.2016 8.5162 9.4519 8.51405C10.9661 8.50136 12.3968 8.48837 12.9706 9.05722C13.1973 9.28202 13.3076 9.63173 13.3076 10.1262C13.3076 13.035 11.873 14.0907 10.9087 14.0907ZM11.5683 6.04374C11.9159 5.8122 12.3272 5.72978 12.7291 5.80087C12.6406 6.19882 12.406 6.54736 12.0585 6.77909C11.7111 7.01083 11.2988 7.09325 10.8977 7.02187C10.9863 6.62382 11.2207 6.27538 11.5683 6.04374Z" fill="white"/>
<path d="M14.8235 36.01H11.6923C11.0878 36.01 10.5373 36.245 10.1267 36.628C9.71592 36.245 9.16553 36.01 8.56104 36.01H5.42969C5.0251 36.01 4.69727 36.3378 4.69727 36.7424V43.005C4.69727 43.4096 5.0251 43.7375 5.42969 43.7375H8.56094C9.02041 43.7375 9.39414 44.1112 9.39414 44.5707C9.39414 44.9752 9.72197 45.3031 10.1266 45.3031C10.5312 45.3031 10.859 44.9752 10.859 44.5707C10.859 44.1112 11.2327 43.7375 11.6922 43.7375H14.8234C15.228 43.7375 15.5559 43.4096 15.5559 43.005V36.7424C15.556 36.3379 15.2281 36.01 14.8235 36.01ZM8.56094 42.2726H6.16211V37.4749H8.56094C9.02041 37.4749 9.39414 37.8486 9.39414 38.3081V42.4289C9.13574 42.328 8.85469 42.2726 8.56094 42.2726ZM14.0911 42.2726H11.6923C11.3985 42.2726 11.1175 42.328 10.8591 42.429V38.3082C10.8591 37.8487 11.2328 37.475 11.6923 37.475H14.0911V42.2726Z" fill="white"/>
</svg>
