<svg width="52" height="49" viewBox="0 0 52 49" fill="none" xmlns="http://www.w3.org/2000/svg">
<path d="M1.49954 9.50011C0.299538 0.300108 7.99954 0.000107467 11.9995 1.00011H42.9995C48.9995 -0.199904 50.8329 2.50011 50.9995 4.00012V40.0001C50.9995 44.0001 46.3329 44.3335 43.9995 44.0001V26.0001L42.9995 23.0001H38.9995L37.9995 24.0001L36.9995 44.0001H33.9995L33.4995 35.0001H29.9995L27.9995 36.0001V44.0001H23.9995V30.5001H19.4995L18.4995 31.5001V44.0001H14.9995V39.0001H8.99954V44.0001C3.39954 44.8001 1.66621 41.6668 1.49954 40.0001V9.50011Z" fill="#FF6100"/>
<path d="M7.60813 4.26074C7.35645 4.26074 7.11508 4.36072 6.93712 4.53868C6.75916 4.71664 6.65918 4.95801 6.65918 5.20969C6.65918 5.46137 6.75916 5.70273 6.93712 5.8807C7.11508 6.05866 7.35645 6.15864 7.60813 6.15864C7.8598 6.15864 8.10117 6.05866 8.27913 5.8807C8.4571 5.70273 8.55707 5.46137 8.55707 5.20969C8.55707 4.95801 8.4571 4.71664 8.27913 4.53868C8.10117 4.36072 7.8598 4.26074 7.60813 4.26074ZM11.0908 4.26074C10.9031 4.26074 10.7196 4.3164 10.5636 4.42067C10.4075 4.52494 10.2859 4.67315 10.2141 4.84654C10.1422 5.01994 10.1234 5.21074 10.1601 5.39482C10.1967 5.5789 10.287 5.74798 10.4198 5.8807C10.5525 6.01341 10.7216 6.10379 10.9056 6.1404C11.0897 6.17702 11.2805 6.15823 11.4539 6.0864C11.6273 6.01458 11.7755 5.89295 11.8798 5.7369C11.9841 5.58084 12.0397 5.39737 12.0397 5.20969C12.0397 4.95801 11.9397 4.71664 11.7618 4.53868C11.5838 4.36072 11.3424 4.26074 11.0908 4.26074ZM14.5734 4.26074C14.3857 4.26074 14.2022 4.3164 14.0462 4.42067C13.8901 4.52494 13.7685 4.67315 13.6967 4.84654C13.6249 5.01994 13.6061 5.21074 13.6427 5.39482C13.6793 5.5789 13.7697 5.74798 13.9024 5.8807C14.0351 6.01341 14.2042 6.10379 14.3883 6.1404C14.5723 6.17702 14.7632 6.15823 14.9365 6.0864C15.1099 6.01458 15.2582 5.89295 15.3624 5.7369C15.4667 5.58084 15.5223 5.39737 15.5223 5.20969C15.5223 4.95801 15.4224 4.71664 15.2444 4.53868C15.0664 4.36072 14.8251 4.26074 14.5734 4.26074Z" fill="white"/>
<path d="M38.895 48.8233H42.4346C42.99 48.8208 43.522 48.5991 43.9148 48.2063C44.3075 47.8136 44.5293 47.2816 44.5318 46.7262V44.8852H46.9896C48.3176 44.8827 49.5906 44.354 50.5297 43.4149C51.4688 42.4758 51.9975 41.2029 52 39.8748V5.01044C52 3.68159 51.4721 2.40716 50.5325 1.46752C49.5928 0.527884 48.3184 0 46.9896 0H5.76728C4.43843 0 3.164 0.527884 2.22436 1.46752C1.28472 2.40716 0.756836 3.68159 0.756836 5.01044V39.8748C0.759344 41.2029 1.28803 42.4758 2.22713 43.4149C3.16623 44.354 4.4392 44.8827 5.76728 44.8852H8.22505V46.7262C8.22755 47.2816 8.4493 47.8136 8.84206 48.2063C9.23482 48.5991 9.76679 48.8208 10.3222 48.8233H13.8618C14.1393 48.8232 14.414 48.7677 14.6698 48.6602C14.9256 48.5527 15.1574 48.3952 15.3516 48.197C15.542 48.0029 15.6919 47.7729 15.7929 47.5204C15.8939 47.268 15.9439 46.998 15.94 46.7262V44.8852H17.7335V46.7262C17.736 47.28 17.9564 47.8105 18.3471 48.203C18.7379 48.5955 19.2674 48.8184 19.8212 48.8233H23.3703C23.9257 48.8208 24.4577 48.5991 24.8504 48.2063C25.2432 47.8136 25.4649 47.2816 25.4674 46.7262V44.8852H27.2514V46.7262C27.2539 47.2816 27.4757 47.8136 27.8685 48.2063C28.2612 48.5991 28.7932 48.8208 29.3486 48.8233H32.8977C33.175 48.8222 33.4494 48.7662 33.7051 48.6587C33.9607 48.5513 34.1927 48.3944 34.3875 48.197C34.5809 48.0046 34.7334 47.7752 34.8362 47.5225C34.9389 47.2697 34.9896 46.9989 34.9854 46.7262V44.8852H36.8168V46.7262C36.8193 47.2784 37.0384 47.8075 37.4271 48.1997C37.8158 48.5919 38.3429 48.8159 38.895 48.8233ZM42.6339 46.7262C42.6339 46.779 42.6129 46.8297 42.5755 46.8671C42.5381 46.9045 42.4875 46.9255 42.4346 46.9255H38.895C38.8422 46.9255 38.7915 46.9045 38.7541 46.8671C38.7168 46.8297 38.6958 46.779 38.6958 46.7262V24.2741C38.6958 24.2212 38.7168 24.1705 38.7541 24.1332C38.7915 24.0958 38.8422 24.0748 38.895 24.0748H42.4346C42.4875 24.0748 42.5381 24.0958 42.5755 24.1332C42.6129 24.1705 42.6339 24.2212 42.6339 24.2741V46.7262ZM14.0421 46.7262C14.0436 46.7512 14.0392 46.7763 14.0293 46.7993C14.0195 46.8224 14.0043 46.8428 13.9852 46.859C13.9672 46.8792 13.9453 46.8954 13.9208 46.9069C13.8963 46.9183 13.8698 46.9246 13.8428 46.9255H10.3222C10.2694 46.9255 10.2187 46.9045 10.1813 46.8671C10.1439 46.8297 10.1229 46.779 10.1229 46.7262V39.5901C10.1229 39.5372 10.1439 39.4865 10.1813 39.4492C10.2187 39.4118 10.2694 39.3908 10.3222 39.3908H13.8618C13.9113 39.3955 13.9572 39.4186 13.9906 39.4555C14.024 39.4924 14.0423 39.5404 14.0421 39.5901V46.7262ZM23.5316 46.7262C23.5316 46.779 23.5106 46.8297 23.4732 46.8671C23.4358 46.9045 23.3851 46.9255 23.3323 46.9255H19.8402C19.789 46.923 19.7407 46.9009 19.7054 46.8638C19.67 46.8267 19.6503 46.7774 19.6504 46.7262V31.4576C19.6491 31.4314 19.653 31.4053 19.6619 31.3806C19.6707 31.3559 19.6843 31.3332 19.702 31.3139C19.7196 31.2945 19.7409 31.2787 19.7646 31.2676C19.7883 31.2564 19.814 31.2501 19.8402 31.2488H23.3892C23.4429 31.2513 23.4936 31.2744 23.5308 31.3132C23.5679 31.3521 23.5886 31.4038 23.5885 31.4576L23.5316 46.7262ZM33.0211 46.7262C33.022 46.7748 33.0051 46.822 32.9736 46.859C32.9556 46.8792 32.9337 46.8954 32.9093 46.9069C32.8848 46.9183 32.8582 46.9246 32.8313 46.9255H29.3676C29.3148 46.9255 29.2641 46.9045 29.2267 46.8671C29.1893 46.8297 29.1683 46.779 29.1683 46.7262V36.1644C29.1683 36.1115 29.1893 36.0608 29.2267 36.0235C29.2641 35.9861 29.3148 35.9651 29.3676 35.9651H32.9167C32.9424 35.9651 32.9679 35.9703 32.9916 35.9804C33.0152 35.9905 33.0366 36.0054 33.0543 36.024C33.0721 36.0427 33.0859 36.0647 33.0948 36.0888C33.1038 36.113 33.1077 36.1387 33.1065 36.1644L33.0211 46.7262ZM34.9189 42.9873V36.1644C34.919 35.6098 34.6993 35.0778 34.3081 34.6848C33.9168 34.2918 33.3858 34.0697 32.8313 34.0672H29.3676C28.8122 34.0697 28.2802 34.2915 27.8874 34.6842C27.4947 35.077 27.2729 35.609 27.2704 36.1644V42.9873H25.4864V31.4576C25.4877 31.1814 25.4343 30.9077 25.3295 30.6521C25.2247 30.3966 25.0704 30.1643 24.8755 29.9685C24.6807 29.7728 24.449 29.6175 24.194 29.5115C23.9389 29.4055 23.6654 29.3509 23.3892 29.3509H19.8402C19.5648 29.3522 19.2923 29.4077 19.0383 29.5142C18.7844 29.6207 18.5539 29.7763 18.36 29.9719C18.1662 30.1675 18.0127 30.3994 17.9085 30.6543C17.8042 30.9092 17.7512 31.1822 17.7525 31.4576V42.9873H15.94V39.5901C15.9375 39.0355 15.7154 38.5045 15.3224 38.1133C14.9294 37.722 14.3974 37.5024 13.8428 37.5024H10.3222C9.76766 37.5024 9.23567 37.722 8.84265 38.1133C8.44962 38.5045 8.22756 39.0355 8.22505 39.5901V43.0158H5.76728C5.35648 43.0145 4.94997 42.9322 4.57105 42.7736C4.19212 42.615 3.84822 42.3831 3.55907 42.0913C3.26992 41.7995 3.0412 41.4535 2.88601 41.0732C2.73083 40.6928 2.65223 40.2856 2.65473 39.8748V5.01044C2.65473 4.18494 2.98266 3.39326 3.56637 2.80954C4.15009 2.22582 4.94178 1.89789 5.76728 1.89789H46.9896C47.8151 1.89789 48.6067 2.22582 49.1905 2.80954C49.7742 3.39326 50.1021 4.18494 50.1021 5.01044V39.8748C50.0996 40.6995 49.7709 41.4897 49.1877 42.0729C48.6045 42.6561 47.8143 42.9848 46.9896 42.9873H44.5318V24.2741C44.5318 23.9987 44.4775 23.726 44.3721 23.4715C44.2668 23.2171 44.1123 22.9859 43.9175 22.7911C43.7228 22.5964 43.4916 22.4419 43.2372 22.3365C42.9827 22.2311 42.71 22.1769 42.4346 22.1769H38.895C38.3421 22.1819 37.8136 22.4051 37.4244 22.7978C37.0352 23.1906 36.8168 23.7211 36.8168 24.2741V42.9873H34.9189Z" fill="white"/>
<path d="M40.67 18.3811C41.5393 18.3761 42.3715 18.0286 42.9862 17.4139C43.6008 16.7992 43.9484 15.967 43.9534 15.0977C43.9508 14.2277 43.6041 13.394 42.9889 12.7788C42.3737 12.1636 41.54 11.8169 40.67 11.8144C39.7992 11.8144 38.9641 12.1603 38.3483 12.776C37.7326 13.3918 37.3866 14.2269 37.3866 15.0977C37.403 15.7477 37.6183 16.3769 38.0034 16.9007L32.3098 23.9609C31.7152 23.7322 31.0679 23.6767 30.4431 23.801C29.8183 23.9253 29.2415 24.2243 28.7797 24.6631C28.764 24.6937 28.7449 24.7223 28.7227 24.7485L24.7561 22.7842C24.8054 22.6199 24.8404 22.4516 24.8605 22.2813C24.8605 21.4105 24.5146 20.5753 23.8989 19.9596C23.2831 19.3438 22.448 18.9979 21.5772 18.9979C20.7064 18.9979 19.8712 19.3438 19.2555 19.9596C18.6397 20.5753 18.2938 21.4105 18.2938 22.2813C18.2957 22.7329 18.3927 23.1791 18.5785 23.5908L13.7863 27.6713C13.2734 27.3214 12.6704 27.127 12.0497 27.1114C11.1822 27.1139 10.351 27.4596 9.73752 28.0731C9.1241 28.6865 8.77837 29.5178 8.77586 30.3853C8.76843 30.8168 8.84871 31.2454 9.01182 31.6451C9.17494 32.0447 9.4175 32.4071 9.72481 32.7102C10.1839 33.1669 10.7679 33.4776 11.4031 33.6032C12.0384 33.7289 12.6966 33.6639 13.2951 33.4164C13.8935 33.1689 14.4054 32.75 14.7663 32.2124C15.1272 31.6747 15.3211 31.0423 15.3236 30.3948C15.3194 29.9474 15.2258 29.5054 15.0484 29.0947L19.8406 25.0142C20.3493 25.3667 20.9491 25.5644 21.5677 25.5836C22.0156 25.5803 22.4582 25.4851 22.8679 25.304C23.2775 25.1228 23.6457 24.8595 23.9495 24.5303L27.9161 26.4851C27.8687 26.6531 27.8338 26.8244 27.8118 26.9975C27.7942 27.5192 27.9013 28.0375 28.1242 28.5094C28.347 28.9814 28.6791 29.3935 29.093 29.7114C29.5069 30.0294 29.9907 30.2441 30.5041 30.3377C31.0176 30.4314 31.546 30.4013 32.0455 30.2499C32.545 30.0986 33.0012 29.8303 33.3763 29.4674C33.7514 29.1045 34.0346 28.6574 34.2024 28.1631C34.3701 27.6689 34.4177 27.1418 34.341 26.6255C34.2644 26.1093 34.0658 25.6187 33.7617 25.1945L39.3984 18.1533C39.8032 18.312 40.2353 18.3894 40.67 18.3811ZM13.4732 30.3853C13.4661 30.7408 13.3236 31.0803 13.0746 31.3342C12.8099 31.5866 12.4582 31.7274 12.0924 31.7274C11.7267 31.7274 11.375 31.5866 11.1103 31.3342C10.858 31.0825 10.7148 30.7416 10.7117 30.3853C10.7105 30.2038 10.7451 30.0238 10.8137 29.8558C10.8823 29.6878 10.9835 29.5349 11.1114 29.4062C11.2393 29.2774 11.3914 29.1752 11.5589 29.1054C11.7265 29.0357 11.9062 28.9998 12.0877 28.9998C12.4428 29.0087 12.7816 29.151 13.0366 29.3984C13.2856 29.6523 13.4282 29.9918 13.4352 30.3473L13.4732 30.3853ZM21.6341 23.6667C21.277 23.6581 20.937 23.5119 20.6852 23.2587C20.5581 23.1351 20.4566 22.9877 20.3866 22.8248C20.3166 22.662 20.2794 22.487 20.2771 22.3097C20.2835 22.0388 20.3692 21.7757 20.5236 21.5529C20.678 21.3302 20.8944 21.1577 21.1459 21.0567C21.3974 20.9557 21.6729 20.9306 21.9385 20.9847C22.2041 21.0387 22.448 21.1695 22.64 21.3608C22.8949 21.6115 23.0414 21.9522 23.048 22.3097C23.0456 22.4921 23.0069 22.6721 22.9343 22.8393C22.8617 23.0066 22.7565 23.1578 22.625 23.284C22.4934 23.4103 22.338 23.5091 22.1679 23.5748C21.9978 23.6405 21.8164 23.6718 21.6341 23.6667ZM40.67 13.7123C41.0255 13.7193 41.365 13.8619 41.6189 14.1108C41.8706 14.3638 42.0165 14.7031 42.027 15.0598C42.0165 15.4164 41.8706 15.7557 41.6189 16.0087C41.3542 16.2611 41.0025 16.4018 40.6368 16.4018C40.271 16.4018 39.9193 16.2611 39.6546 16.0087C39.4633 15.8167 39.3326 15.5728 39.2785 15.3072C39.2245 15.0417 39.2495 14.7661 39.3505 14.5146C39.4515 14.2631 39.624 14.0467 39.8468 13.8923C40.0695 13.7379 40.3326 13.6522 40.6036 13.6458L40.67 13.7123ZM32.528 26.9975C32.5216 27.2685 32.4359 27.5316 32.2815 27.7543C32.1271 27.977 31.9108 28.1496 31.6593 28.2506C31.4078 28.3516 31.1322 28.3766 30.8666 28.3226C30.601 28.2685 30.3571 28.1377 30.1651 27.9465C30.0027 27.7846 29.8829 27.585 29.8166 27.3654C29.7503 27.1459 29.7396 26.9133 29.7853 26.6886C29.8311 26.4639 29.9319 26.254 30.0787 26.0779C30.2255 25.9017 30.4138 25.7647 30.6266 25.6793C30.8394 25.5938 31.0701 25.5625 31.298 25.5882C31.5259 25.6138 31.7439 25.6957 31.9323 25.8263C32.1208 25.957 32.2739 26.1324 32.3778 26.3368C32.4818 26.5412 32.5334 26.7683 32.528 26.9975ZM20.1158 6.15864H43.9723C44.224 6.15864 44.4654 6.05866 44.6433 5.8807C44.8213 5.70273 44.9213 5.46137 44.9213 5.20969C44.9213 4.95801 44.8213 4.71664 44.6433 4.53868C44.4654 4.36072 44.224 4.26074 43.9723 4.26074H20.1158C19.8641 4.26074 19.6227 4.36072 19.4448 4.53868C19.2668 4.71664 19.1668 4.95801 19.1668 5.20969C19.1668 5.46137 19.2668 5.70273 19.4448 5.8807C19.6227 6.05866 19.8641 6.15864 20.1158 6.15864Z" fill="white"/>
</svg>
