<svg width="50" height="56" viewBox="0 0 50 56" fill="none" xmlns="http://www.w3.org/2000/svg">
<path d="M45.6383 8.26733H42.7597L35.8674 16.6704L32.1464 21.2071C32.1464 21.2071 33.833 24.9202 30.7892 27.0507C28.3104 28.7859 24.6852 26.2451 21.6146 29.1793C18.3459 16.9249 27.728 17.9289 27.728 17.9289L30.9911 13.0525L34.193 8.26744H4.36065C2.54828 8.26744 1.0791 9.73662 1.0791 11.549V33.2961H48.92V11.5489C48.92 9.73651 47.4507 8.26733 45.6383 8.26733Z" fill="#FFEDE2"/>
<path d="M30.9916 13.0525L27.7285 17.9289L32.1468 21.2071L35.8679 16.6704L30.9916 13.0525Z" fill="#FFEDE2"/>
<path d="M45.6388 7.18812H44.983C46.2331 5.15282 45.7715 2.42034 43.7651 0.931736C41.6033 -0.67206 38.5312 -0.155814 37.0225 2.09874L33.6169 7.18823H4.3611C1.95638 7.18823 0 9.14461 0 11.5493V39.4316C0 41.8363 1.95638 43.7927 4.3611 43.7927H21.3009L20.021 49.1686H17.2585C15.4581 49.1686 13.9934 50.6332 13.9934 52.4336V53.1154H10.5879C9.99167 53.1154 9.50835 53.5988 9.50835 54.1949C9.50835 54.7911 9.99167 55.2745 10.5879 55.2745H39.4121C40.0083 55.2745 40.4917 54.7911 40.4917 54.1949C40.4917 53.5988 40.0083 53.1154 39.4121 53.1154H36.0066V52.4336C36.0066 50.6332 34.5419 49.1686 32.7415 49.1686H29.979L28.6991 43.7927H45.6389C48.0436 43.7927 50 41.8363 50 39.4316V11.5492C50 9.1445 48.0436 7.18812 45.6388 7.18812ZM30.1706 26.1667C28.4827 27.3483 25.3206 25.7422 22.3008 27.3536C21.564 23.526 22.0286 19.9262 25.8637 19.1316C26.3593 19.0283 26.893 18.9816 27.3472 18.9906L31.2527 21.8883C31.8193 23.5366 31.6066 25.1615 30.1706 26.1667ZM31.2586 14.5951L34.3145 16.8624L31.9644 19.7277L29.1977 17.6749L31.2586 14.5951ZM38.817 3.29954C39.6347 2.07737 41.3023 1.79301 42.4786 2.66584C43.6553 3.53877 43.866 5.21706 42.9336 6.35394L35.6852 15.1911L32.4606 12.7986L38.817 3.29954ZM33.8474 52.4336V53.1154H16.1525V52.4336C16.1525 51.8239 16.6487 51.3277 17.2585 51.3277H32.7414C33.3512 51.3277 33.8474 51.8239 33.8474 52.4336ZM27.7594 49.1686H22.2405L23.5204 43.7927H26.4795L27.7594 49.1686ZM47.8409 39.4316C47.8409 40.6458 46.8531 41.6336 45.6389 41.6336H4.36121C3.14703 41.6336 2.15923 40.6458 2.15923 39.4316V34.376H5.24419C5.84043 34.376 6.32375 33.8926 6.32375 33.2965C6.32375 32.7003 5.84043 32.2169 5.24419 32.2169H2.15902V11.5492C2.15902 10.335 3.14681 9.34724 4.361 9.34724H32.1721L27.1649 16.8301C25.0493 16.8492 22.9371 17.5862 21.5544 19.2004C19.6728 21.3968 19.3423 24.8479 20.5719 29.4579C20.7821 30.2461 21.7657 30.5286 22.3608 29.9601C25.1523 27.2928 28.6289 30.2022 31.7422 27.6823C33.6427 26.1439 34.0924 23.6983 33.3758 21.4113L43.2709 9.34724H45.6387C46.8529 9.34724 47.8407 10.335 47.8407 11.5492V32.2168H13.8805C13.2842 32.2168 12.8009 32.7002 12.8009 33.2963C12.8009 33.8925 13.2842 34.3759 13.8805 34.3759H47.8409V39.4316Z" fill="#FF6100"/>
<path d="M9.35334 32.2382C9.10839 32.2869 8.88795 32.4191 8.72965 32.6123C8.57135 32.8055 8.485 33.0476 8.48535 33.2973C8.48535 33.9726 9.10277 34.4897 9.77545 34.3553C10.0562 34.2993 10.3031 34.1341 10.4621 33.896C10.621 33.6579 10.6788 33.3665 10.6229 33.0858C10.5028 32.4952 9.92994 32.1221 9.35334 32.2382Z" fill="#FF6100"/>
</svg>
