<svg width="16" height="20" viewBox="0 0 16 20" fill="none" xmlns="http://www.w3.org/2000/svg">
<path d="M15.6609 18.0202L13.4019 12.0809C13.6251 11.9475 13.8191 11.7704 13.9723 11.5603C14.1369 11.3341 14.2496 11.0744 14.3023 10.7997C14.355 10.5249 14.3464 10.242 14.2772 9.97091C14.2187 9.73391 14.2285 9.48519 14.3056 9.25355C14.3826 9.02191 14.5236 8.81682 14.7124 8.66203C14.9309 8.48293 15.1068 8.25752 15.2276 8.00209C15.3483 7.74666 15.4107 7.46759 15.4103 7.18508C15.41 6.90256 15.3469 6.62366 15.2255 6.36853C15.1042 6.1134 14.9276 5.88843 14.7087 5.70988C14.5206 5.55448 14.3804 5.34901 14.3042 5.11725C14.228 4.88548 14.219 4.63688 14.2782 4.40021C14.3469 4.12963 14.3551 3.84726 14.3022 3.57316C14.2494 3.29906 14.1368 3.03998 13.9724 2.81432C13.804 2.58253 13.5864 2.39074 13.3353 2.25262C13.0842 2.1145 12.8058 2.03344 12.5198 2.01522C12.2738 1.99866 12.0372 1.91398 11.8365 1.77065C11.6359 1.62732 11.4791 1.43099 11.3836 1.20362C11.2768 0.943336 11.1144 0.709501 10.9079 0.518428C10.7013 0.327356 10.4556 0.183647 10.1878 0.0973286C9.91617 0.00851364 9.62844 -0.0199942 9.34466 0.0137923C9.06089 0.0475788 8.7879 0.142847 8.54471 0.292955C8.33267 0.422504 8.08901 0.491049 7.84052 0.491049C7.59204 0.491049 7.34837 0.422504 7.13633 0.292955C6.89315 0.142841 6.62016 0.0475694 6.33638 0.0137828C6.05261 -0.0200038 5.76488 0.00850729 5.49325 0.0973286C5.22555 0.183718 4.97991 0.327453 4.77345 0.518515C4.567 0.709577 4.4047 0.943367 4.29787 1.20359C4.20213 1.43138 4.04483 1.628 3.84361 1.7714C3.64239 1.91481 3.4052 1.99932 3.15864 2.01547C2.87314 2.03397 2.59523 2.11517 2.34468 2.25329C2.09413 2.39141 1.8771 2.58305 1.70903 2.81457C1.54445 3.04077 1.4318 3.30049 1.3791 3.57522C1.3264 3.84995 1.33495 4.13292 1.40415 4.40396C1.46264 4.64096 1.45281 4.88969 1.37579 5.12133C1.29877 5.35298 1.15772 5.55808 0.968962 5.71288C0.75047 5.89197 0.574508 6.11738 0.453801 6.37281C0.333095 6.62824 0.27066 6.9073 0.271013 7.18981C0.271366 7.47232 0.334497 7.75123 0.455842 8.00635C0.577186 8.26148 0.753711 8.48645 0.97265 8.665C1.1607 8.82039 1.30093 9.02584 1.3771 9.25758C1.45328 9.48933 1.4623 9.73791 1.40312 9.97457C1.33448 10.2451 1.32629 10.5275 1.37914 10.8016C1.43199 11.0757 1.54458 11.3348 1.70891 11.5605C1.86215 11.7705 2.05616 11.9474 2.27935 12.0807L0.0204853 18.0202C-0.00080165 18.076 -0.00562066 18.1368 0.00659998 18.1953C0.0188206 18.2538 0.0475679 18.3075 0.08943 18.3502C0.131292 18.3928 0.184511 18.4226 0.242772 18.4359C0.301032 18.4492 0.361887 18.4455 0.418114 18.4253L2.87848 17.5409L4.1288 19.8369C4.15563 19.8862 4.19528 19.9274 4.24356 19.9561C4.29184 19.9848 4.34698 20 4.40315 20C4.41018 20 4.41718 19.9997 4.42421 19.9993C4.48384 19.9952 4.54107 19.9742 4.5891 19.9386C4.63713 19.903 4.67396 19.8545 4.69521 19.7986L6.81008 14.241C6.92361 14.1981 7.03293 14.1448 7.13664 14.0817C7.34865 13.9522 7.59226 13.8837 7.84068 13.8837C8.0891 13.8837 8.3327 13.9522 8.54471 14.0817L8.54503 14.0818C8.64846 14.1441 8.75741 14.1966 8.8705 14.2389L10.9861 19.7983C11.0074 19.8542 11.0442 19.9028 11.0923 19.9383C11.1403 19.9739 11.1975 19.9949 11.2571 19.999C11.2642 19.9994 11.2712 19.9997 11.2782 19.9997C11.3344 19.9997 11.3895 19.9846 11.4378 19.9558C11.4861 19.9271 11.5257 19.8859 11.5526 19.8366L12.8029 17.5406L15.2632 18.425C15.3195 18.4452 15.3803 18.4489 15.4386 18.4356C15.4968 18.4223 15.5501 18.3926 15.5919 18.3499C15.6338 18.3073 15.6625 18.2535 15.6748 18.195C15.687 18.1365 15.6822 18.076 15.6609 18.0202ZM4.3528 18.9413L3.29933 17.0069C3.26364 16.9415 3.20574 16.891 3.13608 16.8644C3.06641 16.8379 2.98956 16.8371 2.91939 16.8623L0.845992 17.6074L2.85979 12.3129C2.95908 12.3362 3.06 12.3518 3.16167 12.3596C3.4077 12.3761 3.64428 12.4608 3.84494 12.6041C4.04559 12.7475 4.20242 12.9438 4.29787 13.1712C4.40471 13.4314 4.56706 13.6652 4.77357 13.8563C4.98008 14.0474 5.22579 14.1911 5.49356 14.2774C5.68668 14.3398 5.88826 14.372 6.09119 14.373L4.3528 18.9413ZM6.80795 13.5499C6.64207 13.6524 6.45582 13.7174 6.26221 13.7404C6.0686 13.7634 5.87231 13.7439 5.68703 13.6831C5.50562 13.6248 5.33911 13.5276 5.19911 13.3983C5.05912 13.269 4.94901 13.1107 4.87646 12.9345C4.73608 12.5988 4.50498 12.3089 4.20905 12.0971C3.91313 11.8854 3.56408 11.7603 3.20104 11.7358C3.00693 11.7234 2.81795 11.6683 2.64752 11.5745C2.4771 11.4808 2.32943 11.3506 2.215 11.1933C2.10432 11.0412 2.02858 10.8666 1.99319 10.6818C1.95779 10.4971 1.96362 10.3068 2.01025 10.1246C2.09738 9.77279 2.0832 9.40353 1.96937 9.05946C1.85553 8.7154 1.64668 8.41055 1.36693 8.18015C1.21946 8.05968 1.10067 7.90787 1.01921 7.73574C0.937754 7.56362 0.895671 7.37551 0.896021 7.18508C0.896372 6.99466 0.939146 6.8067 1.02124 6.63488C1.10333 6.46305 1.22267 6.31168 1.37059 6.19176C1.64966 5.96079 1.85771 5.65562 1.97074 5.31146C2.08377 4.9673 2.09717 4.59819 2.00938 4.24674C1.96328 4.06496 1.95782 3.87525 1.99337 3.69112C2.02892 3.50698 2.10462 3.33294 2.21507 3.18139C2.32994 3.02375 2.47816 2.89338 2.64918 2.79959C2.8202 2.7058 3.00981 2.65088 3.20448 2.63876C3.56695 2.61379 3.91532 2.48846 4.21062 2.27678C4.50591 2.06511 4.73648 1.77544 4.87653 1.44018C4.94901 1.26395 5.0591 1.10566 5.19911 0.976391C5.33911 0.847117 5.50565 0.749971 5.6871 0.69174C5.87243 0.631077 6.06876 0.611567 6.26241 0.63457C6.45606 0.657573 6.64236 0.722536 6.80833 0.824929C7.11927 1.01481 7.47656 1.11527 7.8409 1.11527C8.20524 1.11527 8.56252 1.01481 8.87347 0.824929C9.03938 0.722562 9.22563 0.657613 9.41922 0.63461C9.61282 0.611607 9.8091 0.631103 9.99438 0.69174C10.1758 0.750072 10.3423 0.847272 10.4823 0.976563C10.6223 1.10585 10.7324 1.26413 10.805 1.44034C10.9453 1.77604 11.1764 2.066 11.4724 2.27772C11.7683 2.48945 12.1173 2.61458 12.4804 2.63907C12.6745 2.65153 12.8635 2.70659 13.0339 2.80035C13.2043 2.89411 13.352 3.02425 13.4664 3.18154C13.5771 3.33364 13.6528 3.50829 13.6882 3.69304C13.7236 3.87778 13.7178 4.06807 13.6712 4.2503C13.584 4.60209 13.5982 4.97134 13.7121 5.31541C13.8259 5.65948 14.0347 5.96432 14.3145 6.19472C14.462 6.31519 14.5807 6.467 14.6622 6.63913C14.7437 6.81125 14.7857 6.99936 14.7854 7.18979C14.785 7.38022 14.7423 7.56817 14.6602 7.74C14.5781 7.91182 14.4587 8.06319 14.3108 8.18312C14.0318 8.41407 13.8237 8.71922 13.7107 9.06336C13.5976 9.40751 13.5842 9.7766 13.672 10.128C13.7181 10.3098 13.7235 10.4995 13.688 10.6837C13.6524 10.8678 13.5767 11.0418 13.4663 11.1934C13.3514 11.351 13.2032 11.4814 13.0322 11.5752C12.8612 11.669 12.6716 11.7239 12.4769 11.736C12.1144 11.761 11.766 11.8863 11.4707 12.098C11.1754 12.3097 10.9449 12.5993 10.8048 12.9346C10.7323 13.1108 10.6223 13.2691 10.4823 13.3984C10.3422 13.5277 10.1757 13.6248 9.99426 13.683C9.80895 13.7439 9.61259 13.7635 9.41891 13.7405C9.22523 13.7175 9.03892 13.6524 8.87303 13.5499C8.56208 13.36 8.2048 13.2596 7.84048 13.2596C7.47615 13.2596 7.11888 13.3601 6.80795 13.5499ZM12.762 16.8622C12.6918 16.837 12.6149 16.8377 12.5453 16.8643C12.4756 16.8908 12.4177 16.9413 12.382 17.0068L11.3286 18.9412L9.59041 14.3737C9.79329 14.3725 9.99478 14.3401 10.1878 14.2776C10.4556 14.1912 10.7014 14.0475 10.9079 13.8564C11.1145 13.6653 11.2769 13.4315 11.3838 13.1712C11.4794 12.9433 11.6366 12.7467 11.8378 12.6033C12.039 12.4599 12.2762 12.3754 12.5227 12.3593C12.6234 12.3516 12.7234 12.3361 12.8217 12.3131L14.8354 17.6073L12.762 16.8622Z" fill="#D05EFC"/>
<path d="M12.5284 7.1873C12.5284 6.26019 12.2535 5.3539 11.7384 4.58304C11.2233 3.81218 10.4912 3.21136 9.63471 2.85658C8.77817 2.50179 7.83566 2.40896 6.92637 2.58983C6.01707 2.7707 5.18184 3.21714 4.52627 3.87271C3.87071 4.52827 3.42426 5.36351 3.24339 6.2728C3.06252 7.1821 3.15535 8.12461 3.51014 8.98114C3.86493 9.83768 4.46574 10.5698 5.2366 11.0848C6.00747 11.5999 6.91375 11.8748 7.84086 11.8748C9.08365 11.8735 10.2751 11.3791 11.1539 10.5004C12.0327 9.62158 12.527 8.43009 12.5284 7.1873ZM7.84086 11.2498C7.03737 11.2498 6.25192 11.0116 5.58384 10.5652C4.91576 10.1188 4.39505 9.48429 4.08757 8.74196C3.78009 7.99963 3.69963 7.18279 3.85639 6.39474C4.01314 5.60668 4.40006 4.88281 4.96822 4.31465C5.53637 3.7465 6.26025 3.35958 7.0483 3.20282C7.83636 3.04607 8.6532 3.12652 9.39553 3.43401C10.1379 3.74149 10.7723 4.26219 11.2187 4.93027C11.6651 5.59836 11.9034 6.3838 11.9034 7.1873C11.9022 8.26438 11.4738 9.29699 10.7122 10.0586C9.95056 10.8202 8.91794 11.2486 7.84086 11.2498Z" fill="#D05EFC"/>
<path d="M10.3254 6.1512L8.80166 5.92979L8.12022 4.54915C8.09147 4.50042 8.05051 4.46004 8.00138 4.43198C7.95224 4.40392 7.89664 4.38916 7.84006 4.38916C7.78348 4.38916 7.72788 4.40392 7.67875 4.43198C7.62962 4.46004 7.58865 4.50042 7.5599 4.54915L6.87846 5.92979L5.3547 6.1512C5.29696 6.15955 5.24271 6.18389 5.19809 6.22147C5.15348 6.25906 5.12027 6.30838 5.10223 6.36386C5.08419 6.41933 5.08204 6.47875 5.09602 6.53539C5.11001 6.59203 5.13957 6.64362 5.18135 6.68433L6.28427 7.75902L6.02395 9.27654C6.01413 9.33397 6.02057 9.393 6.04253 9.44697C6.06448 9.50094 6.10109 9.5477 6.14822 9.58196C6.19535 9.61623 6.25112 9.63663 6.30923 9.64087C6.36734 9.64512 6.42548 9.63303 6.47708 9.60598L7.84006 8.88957L9.20298 9.60598C9.25459 9.63303 9.31272 9.64512 9.37084 9.64087C9.42895 9.63663 9.48471 9.61623 9.53184 9.58196C9.57897 9.5477 9.61558 9.50094 9.63754 9.44697C9.6595 9.393 9.66593 9.33397 9.65611 9.27654L9.39579 7.75902L10.4987 6.68433C10.5405 6.64362 10.5701 6.59203 10.584 6.53539C10.598 6.47875 10.5959 6.41933 10.5778 6.36386C10.5598 6.30838 10.5266 6.25906 10.482 6.22147C10.4373 6.18389 10.3832 6.15955 10.3254 6.1512ZM8.84198 7.42621C8.80574 7.46161 8.77864 7.50528 8.76301 7.55346C8.74737 7.60165 8.74367 7.65291 8.75223 7.70284L8.9332 8.75816L7.98531 8.25994C7.9405 8.23637 7.89063 8.22406 7.84 8.22406C7.78937 8.22406 7.7395 8.23637 7.69469 8.25994L6.74693 8.75803L6.9279 7.70271C6.93645 7.65278 6.93275 7.60152 6.91712 7.55334C6.90148 7.50515 6.87438 7.46148 6.83815 7.42608L6.0713 6.6787L7.1309 6.52473C7.18106 6.51746 7.22869 6.49808 7.26968 6.46828C7.31068 6.43848 7.3438 6.39914 7.36618 6.35367L7.84006 5.39366L8.314 6.35373C8.33639 6.3992 8.36951 6.43854 8.4105 6.46834C8.4515 6.49815 8.49913 6.51752 8.54929 6.5248L9.60889 6.67877L8.84198 7.42621Z" fill="#D05EFC"/>
</svg>
