<svg width="20" height="20" viewBox="0 0 20 20" fill="none" xmlns="http://www.w3.org/2000/svg">
<path d="M10 20C15.5228 20 20 15.5228 20 10C20 4.47715 15.5228 0 10 0C4.47715 0 0 4.47715 0 10C0 15.5228 4.47715 20 10 20Z" fill="#00BA00"/>
<path fill-rule="evenodd" clip-rule="evenodd" d="M6.87717 14.8768L3.21984 10.9624C2.71913 10.4265 2.74787 9.57862 3.28378 9.07791C3.81969 8.5772 4.66756 8.60602 5.16827 9.14184L7.98937 12.1612L12.4548 7.98901C12.495 7.95145 12.5369 7.91704 12.5803 7.88539L14.6802 5.92342C15.2161 5.42271 16.0641 5.45153 16.5647 5.98744C17.0654 6.52326 17.0366 7.37121 16.5008 7.87192L10.0871 13.8644L10.0802 13.8571L7.86165 15.93L6.87717 14.8768Z" fill="white"/>
</svg>
