<svg width="50" height="50" viewBox="0 0 50 50" fill="none" xmlns="http://www.w3.org/2000/svg">
<path d="M25.7927 36.5706L25.8059 37.0966H25.201H24.5962L22.5801 34.8788L16.5316 24.9997L14.1123 20.9675L12.0961 17.1368L11.8945 14.7174V11.6932L12.701 8.87065L14.1123 6.24967L16.5316 3.42708L19.1526 2.01579L22.5801 1.00772L26.2091 0.604492L29.6365 1.61256L32.8624 3.42708L35.4833 5.64483L36.2898 6.85452L37.2979 9.27388L38.1043 12.7013V16.1287L37.2979 18.7497L34.4753 23.7901L31.6527 28.2256L29.6365 31.4514L27.0156 35.4837L25.7927 36.5706Z" fill="#FFEDE2"/>
<ellipse cx="25.0003" cy="13.7093" rx="7.25809" ry="7.25809" fill="white"/>
<path d="M49.9523 49.0075L42.6281 29.7135C42.5672 29.5533 42.4521 29.4195 42.3029 29.3354L34.5015 24.9403L36.7791 21.329C38.177 19.1108 38.9159 16.5474 38.9159 13.916C38.9159 6.24267 32.6733 0 24.9999 0C17.3266 0 11.0839 6.24267 11.0839 13.916C11.0839 16.5481 11.8232 19.1116 13.2218 21.3292C13.2592 21.3886 15.4989 24.9405 15.4989 24.9405L7.69723 29.3354C7.54791 29.4195 7.43278 29.5533 7.37194 29.7135L0.0477256 49.0075C-0.0617469 49.2957 0.0211632 49.6217 0.254854 49.8228C0.488838 50.024 0.823311 50.0571 1.09196 49.9056L12.8662 43.2722L24.6404 49.9056C24.8635 50.0313 25.1363 50.0313 25.3594 49.9056L37.1336 43.2722L48.9078 49.9056C49.0201 49.9689 49.1441 49.9999 49.2673 49.9999C49.4388 49.9999 49.6089 49.9399 49.745 49.8229C49.9789 49.6217 50.0617 49.2957 49.9523 49.0075ZM25.7325 37.96C26.1907 37.7983 26.5879 37.4868 26.8576 37.0599C26.8948 37.0013 33.1299 27.1152 33.1299 27.1152L36.3056 42.0574L25.7325 48.014V37.96ZM14.4609 20.5476C13.21 18.5642 12.5489 16.2711 12.5489 13.9159C12.5489 7.05028 18.1344 1.46474 25 1.46474C31.8657 1.46474 37.4512 7.05028 37.4512 13.9159C37.4512 16.2706 36.7903 18.5639 35.5402 20.5476C35.4424 20.7026 25.7918 36.0065 25.6235 36.2709C25.6219 36.2731 25.6206 36.2754 25.6191 36.2777C25.4832 36.4925 25.2519 36.621 25 36.621C24.748 36.621 24.5156 36.492 24.3795 36.2781C24.2817 36.1229 14.6119 20.7887 14.4642 20.553C14.4631 20.5512 14.462 20.5495 14.4609 20.5476ZM8.64723 30.4814L15.475 26.635L14.2855 32.2311C14.2014 32.6268 14.454 33.0157 14.8496 33.0999C14.9009 33.1108 14.9522 33.1161 15.0026 33.1161C15.341 33.1161 15.6451 32.88 15.7182 32.5358L16.8703 27.1157L23.1418 37.0619C23.4124 37.4876 23.81 37.7984 24.2674 37.9599V48.0142L13.6945 42.0575L15.1092 35.4013C15.1933 35.0056 14.9408 34.6168 14.5452 34.5326C14.1491 34.448 13.7605 34.7011 13.6764 35.0966L12.2185 41.9556L2.13493 47.6367L8.64723 30.4814ZM37.7815 41.9557L34.5253 26.6349L41.3528 30.4814L47.8652 47.6367L37.7815 41.9557Z" fill="#FF6100"/>
<path d="M33.0567 13.916C33.0567 9.47364 29.4424 5.85938 25 5.85938C20.5576 5.85938 16.9434 9.47364 16.9434 13.916C16.9434 18.3584 20.5576 21.9727 25 21.9727C29.4424 21.9727 33.0567 18.3584 33.0567 13.916ZM18.4082 13.916C18.4082 10.2813 21.3652 7.32422 25 7.32422C28.6348 7.32422 31.5918 10.2813 31.5918 13.916C31.5918 17.5508 28.6348 20.5078 25 20.5078C21.3652 20.5078 18.4082 17.5508 18.4082 13.916Z" fill="#FF6100"/>
<path d="M30.1289 13.916C30.1289 11.0891 27.8289 8.78906 25.002 8.78906C22.175 8.78906 19.875 11.0891 19.875 13.916C19.875 16.743 22.175 19.043 25.002 19.043C27.8289 19.043 30.1289 16.743 30.1289 13.916ZM21.3398 13.916C21.3398 11.8967 22.9826 10.2539 25.002 10.2539C27.0213 10.2539 28.6641 11.8967 28.6641 13.916C28.6641 15.9354 27.0213 17.5781 25.002 17.5781C22.9826 17.5781 21.3398 15.9354 21.3398 13.916Z" fill="#FF6100"/>
</svg>
