<svg width="50" height="51" viewBox="0 0 50 51" fill="none" xmlns="http://www.w3.org/2000/svg">
<path d="M32.5 35L28.5 34L28 32.5L29.5 31.5L31 29L32 27L33 26.5L34 26L34.5 25L35 22.5L34.5 19L34 16L32.5 13L30.5 10.5L27.5 9H24.5L21 10L18 12L16.5 14.5L15.5 17.5L15 20.5L15.5 23V25L16.5 26.5L17.5 27L18.5 30L22 32.5L21.5 33V34H19.5L14.5 35L13.5 36L11.5 38V40L12 41.5L14.5 42.5L16 42L18.5 40L21.5 42.5H27.5H39V40L37 37L35.5 36L32.5 35Z" fill="#FFEDE2"/>
<path d="M40.6123 43.6489L38.741 38.0344C38.0871 36.0742 36.4187 34.6273 34.385 34.2571L28.983 33.2742V32.8555C29.9231 32.3099 30.7411 31.58 31.3926 30.7159H33.0246C34.3615 30.7159 35.4495 29.6279 35.4495 28.2909V18.5911C35.4495 12.7971 30.7354 8.08301 24.9414 8.08301C19.1474 8.08301 14.4333 12.7971 14.4333 18.5911V24.2493C14.4333 25.8078 15.5415 27.1116 17.011 27.4155C17.4645 29.7386 18.9162 31.7045 20.8998 32.8555V33.2742L15.497 34.2571C13.4641 34.6273 11.795 36.0742 11.1418 38.0344L10.8185 39.0052L8.06538 36.252C7.75014 35.9368 7.75014 35.4235 8.06538 35.1083L11.2582 31.9162L5.26538 25.9234L1.65705 29.5317C0.588455 30.6003 0 32.0213 0 33.5329C0 35.0444 0.588455 36.4646 1.65705 37.5332L12.5815 48.4576C13.65 49.5262 15.0711 50.1155 16.5826 50.1155C18.0942 50.1155 19.5144 49.5262 20.5579 48.4819L24.4952 44.8744L23.2674 43.6489H40.6123ZM33.8329 28.2909C33.8329 28.7371 33.47 29.0992 33.0246 29.0992H32.3448C32.5792 28.5649 32.757 28.0016 32.8718 27.4155C33.2178 27.3436 33.5363 27.2062 33.8329 27.0332V28.2909ZM33.0246 25.6413V22.8574C33.5055 23.1379 33.8329 23.6536 33.8329 24.2493C33.8329 24.8451 33.5055 25.3608 33.0246 25.6413ZM16.8583 25.6413C16.3773 25.3608 16.0499 24.8451 16.0499 24.2493C16.0499 23.6536 16.3773 23.1379 16.8583 22.8574V25.6413ZM16.8583 20.2078V21.1309C16.5705 21.206 16.3005 21.3192 16.0499 21.4655V18.5911C16.0499 13.6887 20.039 9.69964 24.9414 9.69964C29.8439 9.69964 33.8329 13.6887 33.8329 18.5911V21.4655C33.5823 21.3192 33.3124 21.2052 33.0246 21.1309V20.2078H32.2163C29.8261 20.2078 27.579 19.2766 25.888 17.5864L24.9414 16.6398L23.9949 17.5864C22.3039 19.2766 20.0568 20.2078 17.6666 20.2078H16.8583ZM18.4749 25.866V21.7937C20.9023 21.611 23.1656 20.6095 24.9414 18.9209C26.7173 20.6095 28.9806 21.6118 31.408 21.7937V25.866C31.408 27.0445 31.0863 28.147 30.5334 29.0992H24.9414V30.7159H29.2045C28.0648 31.719 26.575 32.3325 24.9414 32.3325C21.3759 32.3325 18.4749 29.4315 18.4749 25.866ZM27.3664 33.5765V33.6145L24.9414 36.0395L22.5165 33.6145V33.5765C23.2828 33.8174 24.0967 33.9491 24.9414 33.9491C25.7861 33.9491 26.6001 33.8174 27.3664 33.5765ZM12.6744 38.5452C13.1408 37.1452 14.3331 36.1114 15.7856 35.8463L21.4358 34.8197L24.9414 38.3254L28.4463 34.8205L34.0956 35.8471C35.5482 36.1122 36.7404 37.1452 37.2068 38.546L38.37 42.0323H21.6508L18.5024 38.8839L15.004 42.0485C14.6992 42.3548 14.1666 42.3548 13.861 42.0485L12.0957 40.2831L12.6744 38.5452ZM5.26457 28.2093L8.97151 31.9162L8.09368 32.7941L4.38673 29.0871L5.26457 28.2093ZM19.4384 47.3163C18.6754 48.0777 17.6601 48.4988 16.581 48.4988C15.5019 48.4988 14.4867 48.0777 13.7228 47.3147L2.79839 36.3911C2.03534 35.628 1.61502 34.6128 1.61502 33.5337C1.61502 32.4538 2.03534 31.4385 2.79839 30.6755L3.24297 30.2309L6.94991 33.9378L6.92081 33.9669C5.97589 34.9127 5.97589 36.4509 6.92081 37.3966L12.7172 43.1931C13.1756 43.6506 13.7842 43.9036 14.4325 43.9036C15.0808 43.9036 15.6894 43.6514 16.1178 43.2213L16.1785 43.1672L19.9024 46.8911L19.4384 47.3163ZM21.0955 45.7966L17.3796 42.0808L18.4474 41.1157L22.1568 44.8251L21.0955 45.7966Z" fill="#FF6100"/>
<path d="M47.5754 0H36.2589C34.922 0 33.834 1.08799 33.834 2.42495V8.89149C33.834 10.2284 34.922 11.3164 36.2589 11.3164H38.4179L37.5821 16.1914L45.3824 11.3164H47.5754C48.9123 11.3164 50.0003 10.2284 50.0003 8.89149V2.42495C50.0003 1.08799 48.9123 0 47.5754 0ZM48.3837 8.89149C48.3837 9.33687 48.0208 9.6998 47.5754 9.6998H44.9184L39.7848 12.908L40.3353 9.6998H36.2589C35.8136 9.6998 35.4506 9.33687 35.4506 8.89149V2.42495C35.4506 1.97957 35.8136 1.61663 36.2589 1.61663H47.5754C48.0208 1.61663 48.3837 1.97957 48.3837 2.42495V8.89149Z" fill="#FF6100"/>
<path d="M46.7662 3.2334H37.0664V4.85003H46.7662V3.2334Z" fill="#FF6100"/>
<path d="M43.5329 6.46631H37.0664V8.08294H43.5329V6.46631Z" fill="#FF6100"/>
<path d="M46.767 6.46631H45.1504V8.08294H46.767V6.46631Z" fill="#FF6100"/>
<path d="M24.9422 2.4248C14.3808 2.4248 5.28316 9.73037 2.91802 19.9208L1.38626 17.3673L0 18.1991L2.84123 22.9334L7.57555 20.0922L6.74379 18.7059L4.55325 20.0202C6.84402 10.6979 15.2271 4.04144 24.9422 4.04144C27.0657 4.04144 29.1608 4.35668 31.1695 4.97909L31.648 3.4352C29.4842 2.7643 27.2282 2.4248 24.9422 2.4248Z" fill="#FF6100"/>
<path d="M49.6077 17.8979L44.8733 15.0566L42.0329 19.7918L43.4192 20.6235L44.8337 18.2657C45.5782 20.4441 45.9589 22.7227 45.9589 25.0579C45.9589 29.865 44.2938 34.5646 41.2715 38.2901L42.5268 39.3086C45.7827 35.2961 47.5755 30.2344 47.5755 25.0579C47.5755 22.5853 47.177 20.1709 46.4003 17.8591L48.7759 19.2841L49.6077 17.8979Z" fill="#FF6100"/>
</svg>
