<svg width="30" height="25" viewBox="0 0 30 25" fill="none" xmlns="http://www.w3.org/2000/svg">
<path d="M0.5 15.5H21V20.5L21.5 21H29.5V10L29 9.5H26V8.5V4L25.5 1.5L25 0.5H24H2L1 1L0.5 2V15.5Z" fill="#FFEDE2"/>
<path d="M28.7503 8.88718H26.312V2.26292C26.312 1.01514 25.3098 0 24.0778 0H2.23418C1.00224 0 0 1.01514 0 2.26292V16.0487C0 17.2965 1.00224 18.3116 2.23418 18.3116H12.7291V21.1169H7.43377C7.19799 21.1169 7.0068 21.3105 7.0068 21.5493C7.0068 21.7882 7.19794 21.9818 7.43377 21.9818H18.8782C19.114 21.9818 19.3052 21.7882 19.3052 21.5493C19.3052 21.3105 19.1141 21.1169 18.8782 21.1169H13.5829V18.3116H20.7478V22.8647C20.7478 23.5627 21.3084 24.1304 21.9975 24.1304H28.7504C29.4394 24.1304 30 23.5627 30 22.8647V10.1529C29.9999 9.45496 29.4394 8.88718 28.7503 8.88718ZM20.7478 17.4468H2.23418C1.4731 17.4468 0.853944 16.8196 0.853944 16.0488V15.8536H20.7478L20.7478 17.4468ZM20.7478 10.1529V14.9887H0.853885V2.26292C0.853885 1.492 1.47304 0.864873 2.23412 0.864873H24.0778C24.8389 0.864873 25.4581 1.492 25.4581 2.26292V8.88718H21.9975C21.3084 8.88718 20.7478 9.45496 20.7478 10.1529ZM29.1461 22.8647C29.1461 23.0857 28.9685 23.2656 28.7503 23.2656H21.9975C21.7793 23.2656 21.6017 23.0857 21.6017 22.8647V21.4229H29.1461V22.8647ZM29.1461 20.5581H21.6017V10.1529C21.6017 9.93188 21.7792 9.75206 21.9975 9.75206H28.7503C28.9685 9.75206 29.1461 9.93188 29.1461 10.1529V20.5581ZM24.5627 22.7767H26.0766C26.3124 22.7767 26.5035 22.5831 26.5035 22.3443C26.5035 22.1054 26.3124 21.9118 26.0766 21.9118H24.5627C24.327 21.9118 24.1358 22.1054 24.1358 22.3443C24.1358 22.5831 24.327 22.7767 24.5627 22.7767ZM26.0766 10.1915H24.5627C24.327 10.1915 24.1358 10.3851 24.1358 10.624C24.1358 10.8628 24.3269 11.0565 24.5627 11.0565H26.0766C26.3124 11.0565 26.5035 10.8629 26.5035 10.624C26.5035 10.3851 26.3124 10.1915 26.0766 10.1915Z" fill="#FF6100"/>
</svg>
