<svg width="24" height="24" viewBox="0 0 24 24" fill="none" xmlns="http://www.w3.org/2000/svg">
<path d="M14 17.5L20 6.5L20.5 5.5L21.5 5L23 5.5L23.5 6V7V8L22 10L21 12L19.5 14.5L18 17L17 18.5L16 19.5L15 20.5L14 21L13 21.5L13.5 20.5V19.5V18.5L14 17.5Z" fill="#FFEDE2"/>
<path d="M22.9217 5.08484C22.4229 4.79681 21.8419 4.72028 21.2855 4.86951C20.7292 5.01855 20.2641 5.37524 19.9761 5.87402L18.5625 8.32251V1.40625C18.5625 0.630798 17.9317 0 17.1562 0H1.40625C0.630798 0 0 0.630798 0 1.40625V19.1016C0 19.2259 0.0494385 19.3451 0.137329 19.433L4.56702 23.8627C4.65491 23.9506 4.77411 24 4.89844 24H9.42975C9.68866 24 9.8985 23.7902 9.8985 23.5312C9.8985 23.2723 9.68866 23.0625 9.42975 23.0625H5.36719V20.0352C5.36719 19.2598 4.73639 18.629 3.96094 18.629H0.9375V1.40625C0.9375 1.14771 1.14771 0.9375 1.40625 0.9375H17.1562C17.4148 0.9375 17.625 1.14771 17.625 1.40625V9.94629L14.4331 15.475C14.4042 15.4695 14.3743 15.4662 14.3438 15.4662H4.21875C3.95984 15.4662 3.75 15.6762 3.75 15.9349C3.75 16.1938 3.95984 16.4037 4.21875 16.4037H13.8968L13.2468 17.5296C13.2116 17.5904 13.1907 17.6583 13.1852 17.7285L12.889 21.6167C12.8752 21.7965 12.9659 21.9683 13.1219 22.0583C13.1946 22.1003 13.2755 22.1212 13.3563 22.1212C13.4489 22.1212 13.5414 22.0937 13.6208 22.0393L16.8402 19.8386C16.8981 19.7988 16.9464 19.7466 16.9816 19.6859L17.625 18.5713V22.5938C17.625 22.8523 17.4148 23.0625 17.1562 23.0625H13.6485C13.3896 23.0625 13.1797 23.2723 13.1797 23.5312C13.1797 23.7902 13.3896 24 13.6485 24H17.1562C17.9317 24 18.5625 23.3692 18.5625 22.5938V16.9475L23.7109 8.03027C24.3054 7.00067 23.9513 5.6792 22.9217 5.08484ZM3.96094 19.5665C4.21948 19.5665 4.42969 19.7767 4.42969 20.0352V22.3956L1.60052 19.5665H3.96094ZM14.0636 18.5424L15.6962 19.485L13.8981 20.7142L14.0636 18.5424ZM16.4041 18.8112L14.293 17.5924L19.7589 8.12531L21.8699 9.34406L16.4041 18.8112ZM22.899 7.56152L22.3387 8.53198L20.2277 7.31323L20.788 6.34277C21.124 5.76086 21.8708 5.56073 22.4528 5.89673C23.0349 6.23273 23.235 6.97961 22.899 7.56152Z" fill="#FF6100"/>
<path d="M11.2725 18.5596C11.2725 18.3007 11.0626 18.0908 10.8037 18.0908H6.73438C6.47546 18.0908 6.26562 18.3007 6.26562 18.5596C6.26562 18.8185 6.47546 19.0283 6.73438 19.0283H10.8037C11.0626 19.0283 11.2725 18.8185 11.2725 18.5596Z" fill="#FF6100"/>
<path d="M14.3438 12.8403H7.16992C6.91101 12.8403 6.70117 13.0502 6.70117 13.3091C6.70117 13.568 6.91101 13.7778 7.16992 13.7778H14.3438C14.6027 13.7778 14.8126 13.568 14.8126 13.3091C14.8126 13.0502 14.6027 12.8403 14.3438 12.8403Z" fill="#FF6100"/>
<path d="M4.21875 11.1533H14.3438C14.6027 11.1533 14.8125 10.9435 14.8125 10.6846C14.8125 10.4257 14.6027 10.2158 14.3438 10.2158H4.21875C3.95984 10.2158 3.75 10.4257 3.75 10.6846C3.75 10.9435 3.95984 11.1533 4.21875 11.1533Z" fill="#FF6100"/>
<path d="M14.3438 4.96387H4.21875C3.95984 4.96387 3.75 5.17371 3.75 5.43262C3.75 5.69153 3.95984 5.90137 4.21875 5.90137H14.3438C14.6027 5.90137 14.8125 5.69153 14.8125 5.43262C14.8125 5.17371 14.6027 4.96387 14.3438 4.96387Z" fill="#FF6100"/>
<path d="M14.3437 7.58984H10.8037C10.545 7.58984 10.335 7.79968 10.335 8.05859C10.335 8.3175 10.545 8.52734 10.8037 8.52734H14.3437C14.6026 8.52734 14.8124 8.3175 14.8124 8.05859C14.8124 7.79968 14.6026 7.58984 14.3437 7.58984Z" fill="#FF6100"/>
<path d="M4.21875 8.52734H8.38275C8.64166 8.52734 8.8515 8.3175 8.8515 8.05859C8.8515 7.79968 8.64166 7.58984 8.38275 7.58984H4.21875C3.95984 7.58984 3.75 7.79968 3.75 8.05859C3.75 8.3175 3.95984 8.52734 4.21875 8.52734Z" fill="#FF6100"/>
<path d="M4.21875 13.7778H4.98706C5.24597 13.7778 5.45581 13.568 5.45581 13.3091C5.45581 13.0502 5.24597 12.8403 4.98706 12.8403H4.21875C3.95984 12.8403 3.75 13.0502 3.75 13.3091C3.75 13.568 3.95984 13.7778 4.21875 13.7778Z" fill="#FF6100"/>
<path d="M11.5391 23.0625C11.4153 23.0625 11.2948 23.1127 11.2076 23.1998C11.1199 23.287 11.0703 23.408 11.0703 23.5312C11.0703 23.6545 11.1199 23.7755 11.2076 23.8627C11.2948 23.9498 11.4153 24 11.5391 24C11.6623 24 11.7833 23.9498 11.8705 23.8627C11.9576 23.7755 12.0078 23.6545 12.0078 23.5312C12.0078 23.408 11.9576 23.287 11.8705 23.1998C11.7831 23.1127 11.6623 23.0625 11.5391 23.0625Z" fill="#FF6100"/>
</svg>
