<svg width="30" height="25" viewBox="0 0 30 25" fill="none" xmlns="http://www.w3.org/2000/svg">
<path d="M6.5 10.5L5 12.5V13L6 14H7L8 13.5L9 12.5L10.5 11.5L12 10.5L14.5 10L17 10.5L18 11L20.5 12L22 13.5L23.5 14L24.5 13.5L25 12L24.5 11.5L24 11L22 9L19 7.5L16 7H12.5L9 8.5L6.5 10.5Z" fill="#FFEDE2"/>
<path d="M13 22L14.5 20.5H15.5L16.5 21L17 21.5V22.5L16.5 23.5L15.5 24H14.5L13.5 23.5L13 22.5V22Z" fill="#FFEDE2"/>
<path d="M29.5342 7.19766C30.2426 8.07715 30.1395 9.45059 29.2506 10.1848C28.435 10.858 27.3012 10.7092 26.6549 9.90586C23.6995 6.2332 19.4684 4.12676 15.0463 4.12676H14.9795C10.5311 4.14785 6.29535 6.29414 3.35746 10.0154C2.71351 10.8316 1.57855 10.9781 0.766443 10.3201C-0.138244 9.58711 -0.241369 8.21367 0.453552 7.33418C4.00902 2.83242 9.20043 0.0275391 14.9602 0H15.044C17.8325 0 20.526 0.643359 23.0502 1.91133C23.267 2.02031 23.3543 2.28457 23.2453 2.50137C23.1364 2.71816 22.8728 2.80547 22.6559 2.69648C20.2553 1.49063 17.6942 0.878906 15.044 0.878906H14.9637C9.67445 0.904102 4.63656 3.45527 1.1432 7.8791C0.724841 8.4082 0.818591 9.23086 1.3184 9.63574C1.75199 9.98731 2.32738 9.90176 2.66781 9.47109C5.77211 5.53828 10.258 3.27012 14.9748 3.24785H15.0463C19.7356 3.24785 24.2162 5.47383 27.3399 9.35508C27.6851 9.78399 28.2621 9.86133 28.6893 9.50859C29.1903 9.09492 29.2705 8.27168 28.8498 7.74902C27.5584 6.14473 26.0578 4.78066 24.3897 3.69375C24.1864 3.56133 24.1289 3.28887 24.2614 3.08555C24.3938 2.88223 24.6662 2.8248 24.8696 2.95723C26.6157 4.09453 28.1848 5.52129 29.5342 7.19766Z" fill="#FF6100"/>
<path d="M24.7246 11.0332C25.5068 11.9238 25.3984 13.3512 24.5007 14.0924C23.7238 14.734 22.6252 14.6332 21.9432 13.8586C20.1045 11.7709 17.6524 10.6225 15.0338 10.6225C15.0198 10.6225 15.0057 10.6225 14.9916 10.6225C12.3573 10.6348 9.89924 11.8073 8.07053 13.9237C7.39612 14.7041 6.29807 14.816 5.51643 14.1826L5.51526 14.1815C4.60999 13.4478 4.48987 12.0217 5.26272 11.1246C7.72835 8.26233 11.1795 6.51389 14.9723 6.49573C18.7896 6.47868 22.249 8.21247 24.7246 11.0332ZM23.94 13.4156C24.4586 12.9872 24.5189 12.1306 24.0642 11.6127C21.6642 8.87809 18.4579 7.37458 15.0314 7.37458C15.0132 7.37458 14.9951 7.37458 14.9769 7.37458C11.5293 7.39098 8.31598 8.92614 5.92887 11.6976C5.7109 11.9507 5.60426 12.2982 5.6359 12.651C5.66637 12.9914 5.82399 13.3002 6.06833 13.4983C6.06833 13.4983 6.06833 13.4989 6.06891 13.4989L6.0695 13.4994C6.48083 13.8323 7.04274 13.7696 7.40543 13.3489C9.4029 11.0374 12.0953 9.75712 14.9875 9.74364H15.0338C17.9084 9.74364 20.5949 10.9975 22.603 13.278C22.9697 13.6945 23.5322 13.7525 23.94 13.4156Z" fill="#FF6100"/>
<path d="M19.7524 14.815C20.1942 15.2029 20.4479 15.7806 20.4479 16.3994C20.4479 17.0504 20.1742 17.6498 19.6973 18.0435C18.9766 18.6388 18.0016 18.5815 17.3301 18.0008C16.9346 17.6586 16.4911 17.4108 16.0112 17.2655C15.7785 17.1946 15.6473 16.9491 15.7182 16.717C15.7885 16.485 16.0341 16.3537 16.2661 16.4241C16.8643 16.6057 17.4163 16.9127 17.905 17.3358C18.2671 17.6487 18.7622 17.6763 19.1378 17.3663C19.702 16.8999 19.7132 15.9501 19.1723 15.4755C17.9759 14.4254 16.5386 13.8705 15.0169 13.8705H14.9888C13.4554 13.8776 12.014 14.4465 10.8186 15.5147C10.2737 16.0017 10.3136 16.9532 10.8714 17.405C11.247 17.709 11.7421 17.6821 12.103 17.3634C12.6573 16.8747 13.3165 16.5272 14.0097 16.3597C14.2452 16.3022 14.4831 16.4476 14.5399 16.6831C14.5973 16.9192 14.452 17.1565 14.2165 17.214C13.6622 17.3482 13.1319 17.6277 12.6843 18.0226C12.0116 18.6162 11.0372 18.6707 10.3182 18.0876C9.32391 17.2826 9.29872 15.6953 10.2327 14.8597C11.571 13.6632 13.2585 13 14.9841 12.9917H15.0169C16.7302 12.9916 18.4124 13.639 19.7524 14.815Z" fill="#FF6100"/>
<path d="M14.9996 19.8914C16.2523 19.8914 17.2707 20.9138 17.2707 22.1701C17.2707 23.427 16.2523 24.4488 14.9996 24.4488C13.7475 24.4488 12.7285 23.427 12.7285 22.1701C12.7285 20.9139 13.7475 19.8914 14.9996 19.8914ZM16.3918 22.1701C16.3918 21.3984 15.7672 20.7703 14.9996 20.7703C14.232 20.7703 13.6074 21.3984 13.6074 22.1701C13.6074 22.9424 14.232 23.5699 14.9996 23.5699C15.7672 23.5699 16.3918 22.9424 16.3918 22.1701Z" fill="#FF6100"/>
</svg>
