<svg width="25" height="25" viewBox="0 0 25 25" fill="none" xmlns="http://www.w3.org/2000/svg">
<path d="M2.96909 11.1216L3.69297 11.0103C3.62388 10.5614 3.58887 10.1016 3.58887 9.64355C3.58887 4.72993 7.58638 0.732422 12.5 0.732422C12.7723 0.732422 13.0469 0.744824 13.3163 0.769287L13.3826 0.0398926C13.0913 0.0134277 12.7943 0 12.5 0C7.18252 0 2.85645 4.32607 2.85645 9.64355C2.85645 10.1387 2.89434 10.636 2.96909 11.1216Z" fill="#D05EFC"/>
<path d="M20.8991 12.6271C20.2616 14.4215 19.0347 15.9951 17.4443 17.0578C16.9288 17.4023 16.5037 17.848 16.1878 18.3592H8.81162C8.49575 17.8479 8.0707 17.4023 7.55518 17.0578C5.66958 15.7978 4.34561 13.8951 3.8271 11.7002L3.11426 11.8686C3.67549 14.2443 5.10811 16.3035 7.14819 17.6667C8.12959 18.3226 8.71553 19.4213 8.71553 20.6058V22.1434C8.71553 22.8426 9.25283 23.4185 9.93623 23.4804V23.6083C9.93623 24.3487 10.5386 24.951 11.279 24.951H13.7204C14.4608 24.951 15.0632 24.3487 15.0632 23.6083V23.4804C15.7465 23.4185 16.2839 22.8426 16.2839 22.1434V20.6058C16.2839 19.4213 16.8698 18.3227 17.8512 17.6668C19.5718 16.517 20.8994 14.8144 21.5893 12.8724L20.8991 12.6271ZM15.5515 22.1434C15.5515 22.48 15.2777 22.7538 14.9411 22.7538H12.3621V23.4862H14.3308V23.6083C14.3308 23.9448 14.057 24.2186 13.7204 24.2186H11.279C10.9424 24.2186 10.6687 23.9448 10.6687 23.6083V23.4862H11.6297V22.7538H10.0583C9.72173 22.7538 9.44795 22.48 9.44795 22.1434V22.0213H15.5515V22.1434ZM15.5515 20.6058V21.2889H9.44795V20.6058C9.44795 20.5894 9.44736 20.5729 9.44717 20.5565H15.5522C15.5521 20.5729 15.5515 20.5893 15.5515 20.6058ZM15.6231 19.8241H9.37632C9.32988 19.5729 9.26113 19.328 9.17183 19.0917H15.8276C15.7383 19.328 15.6695 19.5729 15.6231 19.8241Z" fill="#D05EFC"/>
<path d="M21.4112 9.64351C21.4112 10.4277 21.3093 11.2056 21.1084 11.9557L21.8158 12.1453C22.0334 11.3334 22.1437 10.4917 22.1437 9.64355C22.1437 7.3543 21.3274 5.13506 19.8453 3.39453C18.38 1.67378 16.3528 0.517383 14.1372 0.138428L14.0137 0.860352C18.3001 1.59351 21.4113 5.28735 21.4112 9.64351Z" fill="#D05EFC"/>
<path d="M0 9.42383H1.85547V10.1562H0V9.42383Z" fill="#D05EFC"/>
<path d="M23.1445 9.42383H25V10.1562H23.1445V9.42383Z" fill="#D05EFC"/>
<path d="M0.628906 13.7251L2.37305 13.0905L2.62354 13.779L0.879395 14.4136L0.628906 13.7251Z" fill="#D05EFC"/>
<path d="M22.3838 5.80811L24.128 5.17352L24.3785 5.86199L22.6343 6.49658L22.3838 5.80811Z" fill="#D05EFC"/>
<path d="M2.69336 17.5425L4.11465 16.3494L4.5856 16.9104L3.16431 18.1035L2.69336 17.5425Z" fill="#D05EFC"/>
<path d="M20.4189 2.66406L21.8402 1.471L22.3112 2.03203L20.8899 3.2251L20.4189 2.66406Z" fill="#D05EFC"/>
<path d="M22.3809 13.7676L22.6313 13.0791L24.3755 13.7137L24.125 14.4022L22.3809 13.7676Z" fill="#D05EFC"/>
<path d="M0.629883 5.8584L0.880371 5.16992L2.62451 5.80449L2.37402 6.49297L0.629883 5.8584Z" fill="#D05EFC"/>
<path d="M20.4229 16.917L20.8938 16.356L22.3151 17.549L21.8441 18.1101L20.4229 16.917Z" fill="#D05EFC"/>
<path d="M2.68945 2.03613L3.1604 1.4751L4.58169 2.66816L4.11074 3.2292L2.68945 2.03613Z" fill="#D05EFC"/>
<path d="M11.2664 3.27148C10.4158 3.27148 9.64766 3.75859 9.27871 4.50781C8.46074 4.57764 7.81636 5.26445 7.81636 6.09863C7.81636 6.11465 7.81665 6.13066 7.81724 6.14668C6.91631 6.43462 6.27441 7.28276 6.27441 8.25195C6.27441 8.87573 6.53159 9.45405 6.97871 9.86777C6.72358 10.1968 6.58281 10.5992 6.58281 11.0205C6.58281 11.6132 6.85854 12.1604 7.32065 12.5172C7.24092 12.7288 7.19961 12.9511 7.19961 13.1738C7.19961 14.0973 7.87383 14.8801 8.76938 15.0411C9.21641 15.8173 10.0543 16.3086 10.9581 16.3086C11.5239 16.3086 12.0602 16.1243 12.5 15.7837C12.9399 16.1243 13.4761 16.3086 14.042 16.3086C14.9458 16.3086 15.7836 15.8173 16.2307 15.0411C17.1263 14.8801 17.8004 14.0973 17.8004 13.1738C17.8004 12.9511 17.7591 12.7288 17.6794 12.5172C18.1415 12.1604 18.4172 11.6131 18.4172 11.0205C18.4172 10.5993 18.2764 10.1968 18.0213 9.86777C18.4685 9.45405 18.7256 8.87578 18.7256 8.25195C18.7256 7.28271 18.0838 6.43462 17.1828 6.14668C17.1834 6.13062 17.1837 6.11465 17.1837 6.09863C17.1837 5.2644 16.5394 4.57754 15.7213 4.50781C15.3523 3.75859 14.5842 3.27148 13.7336 3.27148C13.2921 3.27148 12.8638 3.40347 12.5 3.64775C12.1362 3.40347 11.7079 3.27148 11.2664 3.27148ZM12.1337 15.1363C11.8073 15.4207 11.3952 15.5762 10.958 15.5762C10.439 15.5762 9.95063 15.3478 9.61494 14.9686C9.8085 14.9008 10.0173 14.788 10.1969 14.6002C10.5172 14.2653 10.6508 13.7935 10.594 13.1977L9.86489 13.2671C9.90034 13.6391 9.83506 13.9162 9.6709 14.0905C9.44321 14.3324 9.07031 14.3364 9.02534 14.3358C8.41191 14.2927 7.93193 13.7831 7.93193 13.1738C7.93193 12.9646 7.98999 12.7626 8.10444 12.5732L8.30771 12.237L7.95801 12.0578C7.56147 11.8547 7.31514 11.4572 7.31514 11.0205C7.31514 10.6753 7.47183 10.3497 7.74526 10.1238C7.80762 10.0869 8.11948 9.91816 8.46929 10.0093C8.78945 10.0927 9.07524 10.3716 9.31875 10.8383L9.96811 10.4996C9.62173 9.83569 9.1749 9.4311 8.63999 9.29697C8.19228 9.18472 7.79614 9.29731 7.55791 9.40029C7.20972 9.1208 7.00674 8.70415 7.00674 8.25195C7.00674 7.51968 7.55542 6.89077 8.28306 6.78901L8.28525 6.78872C8.31675 6.78452 9.02559 6.70024 9.47202 7.48149L10.1079 7.11812C9.64209 6.30288 8.96748 6.1022 8.55059 6.06172C8.57017 5.60347 8.94844 5.23618 9.41265 5.23437C9.41895 5.23496 9.4251 5.23599 9.43135 5.23682C9.45049 5.2394 9.46963 5.24189 9.48906 5.24351L9.77226 5.26738L9.86567 4.99897C10.0728 4.40381 10.6357 4.00391 11.2664 4.00391C11.5788 4.00391 11.8813 4.10317 12.1337 4.28555V15.1363ZM12.8662 4.28555C13.1186 4.10317 13.4211 4.00391 13.7335 4.00391C14.3642 4.00391 14.9271 4.40381 15.1343 4.99897L15.2277 5.26738L15.5109 5.24351C15.5303 5.24185 15.5495 5.2394 15.5686 5.23682C15.5748 5.23594 15.581 5.23491 15.5873 5.23437C16.0515 5.23618 16.4298 5.60347 16.4493 6.06172C16.0324 6.1022 15.3578 6.30288 14.892 7.11812L15.5279 7.48149C15.9737 6.70127 16.6812 6.78423 16.7145 6.78867L16.7168 6.78901C17.4444 6.89077 17.9931 7.51968 17.9931 8.25195C17.9931 8.7041 17.7902 9.12075 17.4419 9.40024C17.2037 9.29727 16.8075 9.18462 16.3598 9.29697C15.8249 9.4311 15.3781 9.83569 15.0317 10.4996L15.6811 10.8383C15.9246 10.3716 16.2104 10.0927 16.5305 10.0093C16.8803 9.91816 17.1921 10.0868 17.2545 10.1237C17.528 10.3496 17.6847 10.6753 17.6847 11.0205C17.6847 11.4572 17.4384 11.8546 17.0418 12.0578L16.6921 12.2369L16.8955 12.5732C17.01 12.7625 17.068 12.9646 17.068 13.1738C17.068 13.7831 16.5881 14.2926 15.9748 14.3358C15.9315 14.3364 15.5574 14.3331 15.3291 14.0905C15.1649 13.9162 15.0996 13.6392 15.135 13.2672L14.4059 13.1978C14.3492 13.7935 14.4828 14.2654 14.803 14.6002C14.9826 14.788 15.1914 14.9009 15.385 14.9687C15.0492 15.3478 14.5609 15.5762 14.0419 15.5762C13.6047 15.5762 13.1926 15.4207 12.8662 15.1363V4.28555Z" fill="#D05EFC"/>
<path d="M19.9463 10.1807H20.6787V10.9131H19.9463V10.1807Z" fill="#D05EFC"/>
<path d="M19.9463 8.66699H20.6787V9.39941H19.9463V8.66699Z" fill="#D05EFC"/>
</svg>
