<svg width="201" height="36" viewBox="0 0 201 36" fill="none" xmlns="http://www.w3.org/2000/svg">
<g clip-path="url(#clip0_1_8447)">
<path d="M1.19207 10.562C0.0860187 11.2911 -0.564941 12.8321 0.659209 14.675C1.88336 16.5178 19.3585 28.9622 20.0008 29.3068C20.6402 29.6515 21.2825 29.7113 22.9128 28.5007C24.5431 27.2902 38.1729 17.8394 38.5243 17.5546C39.0831 17.1017 39.2243 15.9994 38.5243 15.481C38.5243 15.481 22.0142 26.8857 21.4727 27.3472C20.9311 27.8086 20.0901 27.0595 20.2485 26.0797C20.4069 25.0998 20.525 24.9859 22.6219 23.4877C24.7188 21.9895 36.6089 13.6723 37.1504 13.3021C37.7611 12.8862 37.7755 12.1485 36.776 11.4991C35.3848 10.5933 20.3493 0.723848 19.8481 0.3792C19.3441 0.0345527 18.647 -0.281612 17.5986 0.410532C16.5501 1.10268 3.23137 9.22325 1.19496 10.5591L1.19207 10.562Z" fill="url(#paint0_linear_1_8447)"/>
<path d="M20.0014 30.5202C19.5809 30.2923 11.9134 24.8577 6.34277 20.6279V29.452C6.33701 35.8921 25.9954 39.3329 32.5079 31.4174V22.9835C28.5071 25.7749 23.8294 29.039 22.9135 29.7169C21.2832 30.9275 20.6409 30.8677 20.0014 30.523V30.5202Z" fill="url(#paint1_linear_1_8447)"/>
<path d="M28.3194 20.8467C28.3194 20.8467 31.2429 22.2025 31.4503 27.6627L30.0332 27.301L28.9012 29.5227C28.4231 23.5469 25.8135 22.6782 25.8135 22.6782L28.3223 20.8467H28.3194Z" fill="#FF6100"/>
</g>
<path d="M59.7303 22.9199C60.6503 22.9199 61.4853 22.7849 62.2353 22.5149C62.9953 22.2449 63.5603 21.9799 63.9303 21.7199L65.8503 25.5299C65.3803 25.9299 64.5753 26.3349 63.4353 26.7449C62.3053 27.1549 60.9603 27.3599 59.4003 27.3599C57.9403 27.3599 56.5703 27.1049 55.2903 26.5949C54.0103 26.0849 52.8803 25.3699 51.9003 24.4499C50.9303 23.5199 50.1653 22.4349 49.6053 21.1949C49.0553 19.9449 48.7803 18.5899 48.7803 17.1299C48.7803 15.6699 49.0553 14.3149 49.6053 13.0649C50.1553 11.8049 50.9153 10.7099 51.8853 9.77986C52.8653 8.84986 53.9953 8.12986 55.2753 7.61986C56.5653 7.09986 57.9403 6.83986 59.4003 6.83986C60.9603 6.83986 62.3053 7.04486 63.4353 7.45486C64.5753 7.86486 65.3803 8.26986 65.8503 8.66986L63.9303 12.4799C63.5603 12.2099 62.9953 11.9449 62.2353 11.6849C61.4853 11.4149 60.6503 11.2799 59.7303 11.2799C58.7103 11.2799 57.8203 11.4399 57.0603 11.7599C56.3003 12.0699 55.6653 12.4999 55.1553 13.0499C54.6453 13.5999 54.2653 14.2199 54.0153 14.9099C53.7653 15.5999 53.6403 16.3249 53.6403 17.0849C53.6403 17.8549 53.7653 18.5899 54.0153 19.2899C54.2653 19.9799 54.6453 20.5999 55.1553 21.1499C55.6653 21.6999 56.3003 22.1349 57.0603 22.4549C57.8203 22.7649 58.7103 22.9199 59.7303 22.9199Z" fill="white"/>
<path d="M74.8662 27.3599C73.5162 27.3599 72.3162 27.0849 71.2662 26.5349C70.2262 25.9749 69.4062 25.2099 68.8062 24.2399C68.2162 23.2599 67.9212 22.1399 67.9212 20.8799C67.9212 19.6199 68.2162 18.4999 68.8062 17.5199C69.4062 16.5299 70.2262 15.7499 71.2662 15.1799C72.3162 14.6099 73.5162 14.3249 74.8662 14.3249C76.2162 14.3249 77.4062 14.6099 78.4362 15.1799C79.4662 15.7499 80.2712 16.5299 80.8512 17.5199C81.4312 18.4999 81.7212 19.6199 81.7212 20.8799C81.7212 22.1399 81.4312 23.2599 80.8512 24.2399C80.2712 25.2099 79.4662 25.9749 78.4362 26.5349C77.4062 27.0849 76.2162 27.3599 74.8662 27.3599ZM74.8662 23.6099C75.3862 23.6099 75.8362 23.4949 76.2162 23.2649C76.5962 23.0349 76.8912 22.7099 77.1012 22.2899C77.3112 21.8699 77.4162 21.3949 77.4162 20.8649C77.4162 20.3249 77.3112 19.8449 77.1012 19.4249C76.8912 19.0049 76.5962 18.6749 76.2162 18.4349C75.8362 18.1949 75.3862 18.0749 74.8662 18.0749C74.3462 18.0749 73.8912 18.1949 73.5012 18.4349C73.1212 18.6749 72.8212 19.0049 72.6012 19.4249C72.3912 19.8449 72.2862 20.3249 72.2862 20.8649C72.2862 21.3949 72.3912 21.8699 72.6012 22.2899C72.8212 22.7099 73.1212 23.0349 73.5012 23.2649C73.8912 23.4949 74.3462 23.6099 74.8662 23.6099Z" fill="white"/>
<path d="M88.4143 20.3849C88.4143 21.3649 88.5993 22.1499 88.9693 22.7399C89.3393 23.3199 89.9593 23.6099 90.8293 23.6099C91.7193 23.6099 92.3443 23.3199 92.7043 22.7399C93.0743 22.1499 93.2593 21.3649 93.2593 20.3849V14.6849H97.7593V20.8649C97.7593 22.1849 97.4843 23.3349 96.9343 24.3149C96.3943 25.2849 95.6093 26.0349 94.5793 26.5649C93.5493 27.0949 92.2993 27.3599 90.8293 27.3599C89.3693 27.3599 88.1243 27.0949 87.0943 26.5649C86.0643 26.0349 85.2793 25.2849 84.7393 24.3149C84.1993 23.3349 83.9293 22.1849 83.9293 20.8649V14.6849H88.4143V20.3849Z" fill="white"/>
<path d="M104.7 26.9999H100.14V14.6849H104.7V16.5899H104.625C104.705 16.3599 104.9 16.0699 105.21 15.7199C105.52 15.3599 105.955 15.0399 106.515 14.7599C107.075 14.4699 107.76 14.3249 108.57 14.3249C109.14 14.3249 109.665 14.4149 110.145 14.5949C110.625 14.7649 110.975 14.9299 111.195 15.0899L109.425 18.7949C109.285 18.6249 109.035 18.4499 108.675 18.2699C108.325 18.0799 107.885 17.9849 107.355 17.9849C106.745 17.9849 106.24 18.1399 105.84 18.4499C105.45 18.7599 105.16 19.1349 104.97 19.5749C104.79 20.0149 104.7 20.4299 104.7 20.8199V26.9999Z" fill="white"/>
<path d="M117.739 14.3249C118.549 14.3249 119.289 14.3949 119.959 14.5349C120.629 14.6649 121.189 14.8149 121.639 14.9849C122.099 15.1549 122.394 15.2949 122.524 15.4049L121.039 18.0899C120.849 17.9499 120.494 17.7699 119.974 17.5499C119.464 17.3299 118.894 17.2199 118.264 17.2199C117.784 17.2199 117.379 17.2949 117.049 17.4449C116.719 17.5849 116.554 17.8099 116.554 18.1199C116.554 18.4299 116.734 18.6799 117.094 18.8699C117.464 19.0499 117.994 19.2099 118.684 19.3499C119.284 19.4699 119.894 19.6599 120.514 19.9199C121.134 20.1799 121.649 20.5649 122.059 21.0749C122.479 21.5749 122.689 22.2449 122.689 23.0849C122.689 23.9449 122.504 24.6549 122.134 25.2149C121.764 25.7749 121.274 26.2099 120.664 26.5199C120.054 26.8299 119.394 27.0449 118.684 27.1649C117.974 27.2949 117.284 27.3599 116.614 27.3599C115.674 27.3599 114.854 27.2749 114.154 27.1049C113.464 26.9349 112.904 26.7399 112.474 26.5199C112.044 26.2999 111.744 26.1249 111.574 25.9949L113.044 22.9949C113.304 23.2149 113.729 23.4649 114.319 23.7449C114.909 24.0149 115.534 24.1499 116.194 24.1499C116.834 24.1499 117.329 24.0549 117.679 23.8649C118.029 23.6749 118.204 23.4249 118.204 23.1149C118.204 22.8649 118.119 22.6649 117.949 22.5149C117.779 22.3649 117.539 22.2349 117.229 22.1249C116.919 22.0149 116.544 21.9149 116.104 21.8249C115.704 21.7449 115.279 21.6199 114.829 21.4499C114.379 21.2799 113.954 21.0499 113.554 20.7599C113.154 20.4599 112.829 20.0849 112.579 19.6349C112.329 19.1849 112.204 18.6399 112.204 17.9999C112.204 17.1799 112.469 16.4999 112.999 15.9599C113.529 15.4199 114.214 15.0149 115.054 14.7449C115.894 14.4649 116.789 14.3249 117.739 14.3249Z" fill="white"/>
<path d="M128.74 21.8099C128.77 22.2499 128.91 22.6399 129.16 22.9799C129.41 23.3199 129.755 23.5899 130.195 23.7899C130.645 23.9799 131.175 24.0749 131.785 24.0749C132.365 24.0749 132.885 24.0149 133.345 23.8949C133.815 23.7749 134.22 23.6249 134.56 23.4449C134.91 23.2649 135.18 23.0799 135.37 22.8899L137.14 25.7099C136.89 25.9799 136.535 26.2449 136.075 26.5049C135.625 26.7549 135.03 26.9599 134.29 27.1199C133.55 27.2799 132.615 27.3599 131.485 27.3599C130.125 27.3599 128.915 27.1049 127.855 26.5949C126.795 26.0849 125.96 25.3349 125.35 24.3449C124.74 23.3549 124.435 22.1449 124.435 20.7149C124.435 19.5149 124.695 18.4349 125.215 17.4749C125.745 16.5049 126.51 15.7399 127.51 15.1799C128.51 14.6099 129.715 14.3249 131.125 14.3249C132.465 14.3249 133.625 14.5699 134.605 15.0599C135.595 15.5499 136.355 16.2799 136.885 17.2499C137.425 18.2099 137.695 19.4099 137.695 20.8499C137.695 20.9299 137.69 21.0899 137.68 21.3299C137.68 21.5699 137.67 21.7299 137.65 21.8099H128.74ZM133.405 19.4249C133.395 19.1049 133.31 18.7899 133.15 18.4799C132.99 18.1599 132.75 17.8999 132.43 17.6999C132.11 17.4899 131.7 17.3849 131.2 17.3849C130.7 17.3849 130.275 17.4849 129.925 17.6849C129.585 17.8749 129.325 18.1249 129.145 18.4349C128.965 18.7449 128.865 19.0749 128.845 19.4249H133.405Z" fill="white"/>
<path d="M145.571 14.3249C146.381 14.3249 147.121 14.3949 147.791 14.5349C148.461 14.6649 149.021 14.8149 149.471 14.9849C149.931 15.1549 150.226 15.2949 150.356 15.4049L148.871 18.0899C148.681 17.9499 148.326 17.7699 147.806 17.5499C147.296 17.3299 146.726 17.2199 146.096 17.2199C145.616 17.2199 145.211 17.2949 144.881 17.4449C144.551 17.5849 144.386 17.8099 144.386 18.1199C144.386 18.4299 144.566 18.6799 144.926 18.8699C145.296 19.0499 145.826 19.2099 146.516 19.3499C147.116 19.4699 147.726 19.6599 148.346 19.9199C148.966 20.1799 149.481 20.5649 149.891 21.0749C150.311 21.5749 150.521 22.2449 150.521 23.0849C150.521 23.9449 150.336 24.6549 149.966 25.2149C149.596 25.7749 149.106 26.2099 148.496 26.5199C147.886 26.8299 147.226 27.0449 146.516 27.1649C145.806 27.2949 145.116 27.3599 144.446 27.3599C143.506 27.3599 142.686 27.2749 141.986 27.1049C141.296 26.9349 140.736 26.7399 140.306 26.5199C139.876 26.2999 139.576 26.1249 139.406 25.9949L140.876 22.9949C141.136 23.2149 141.561 23.4649 142.151 23.7449C142.741 24.0149 143.366 24.1499 144.026 24.1499C144.666 24.1499 145.161 24.0549 145.511 23.8649C145.861 23.6749 146.036 23.4249 146.036 23.1149C146.036 22.8649 145.951 22.6649 145.781 22.5149C145.611 22.3649 145.371 22.2349 145.061 22.1249C144.751 22.0149 144.376 21.9149 143.936 21.8249C143.536 21.7449 143.111 21.6199 142.661 21.4499C142.211 21.2799 141.786 21.0499 141.386 20.7599C140.986 20.4599 140.661 20.0849 140.411 19.6349C140.161 19.1849 140.036 18.6399 140.036 17.9999C140.036 17.1799 140.301 16.4999 140.831 15.9599C141.361 15.4199 142.046 15.0149 142.886 14.7449C143.726 14.4649 144.621 14.3249 145.571 14.3249Z" fill="white"/>
<path d="M161.522 14.3249C162.382 14.3249 163.222 14.4999 164.042 14.8499C164.862 15.1999 165.537 15.7549 166.067 16.5149C166.597 17.2649 166.862 18.2549 166.862 19.4849V26.9999H162.302V20.2349C162.302 19.3549 162.102 18.6949 161.702 18.2549C161.312 17.8049 160.777 17.5799 160.097 17.5799C159.647 17.5799 159.217 17.6999 158.807 17.9399C158.397 18.1699 158.062 18.4999 157.802 18.9299C157.552 19.3499 157.427 19.8349 157.427 20.3849V26.9999H152.852V6.35986H157.427V16.4999C157.537 16.1699 157.782 15.8399 158.162 15.5099C158.552 15.1699 159.037 14.8899 159.617 14.6699C160.207 14.4399 160.842 14.3249 161.522 14.3249Z" fill="white"/>
<path d="M173.873 20.3849C173.873 21.3649 174.058 22.1499 174.428 22.7399C174.798 23.3199 175.418 23.6099 176.288 23.6099C177.178 23.6099 177.803 23.3199 178.163 22.7399C178.533 22.1499 178.718 21.3649 178.718 20.3849V14.6849H183.218V20.8649C183.218 22.1849 182.943 23.3349 182.393 24.3149C181.853 25.2849 181.068 26.0349 180.038 26.5649C179.008 27.0949 177.758 27.3599 176.288 27.3599C174.828 27.3599 173.583 27.0949 172.553 26.5649C171.523 26.0349 170.738 25.2849 170.198 24.3149C169.658 23.3349 169.388 22.1849 169.388 20.8649V14.6849H173.873V20.3849Z" fill="white"/>
<path d="M185.914 26.9999V6.35986H190.474V16.4849C190.564 16.2049 190.794 15.8999 191.164 15.5699C191.544 15.2299 192.039 14.9399 192.649 14.6999C193.269 14.4499 193.969 14.3249 194.749 14.3249C195.949 14.3249 196.989 14.6199 197.869 15.2099C198.749 15.7999 199.429 16.5899 199.909 17.5799C200.389 18.5599 200.629 19.6499 200.629 20.8499C200.629 22.0499 200.389 23.1449 199.909 24.1349C199.429 25.1149 198.749 25.8999 197.869 26.4899C196.989 27.0699 195.949 27.3599 194.749 27.3599C194.089 27.3599 193.464 27.2399 192.874 26.9999C192.294 26.7699 191.789 26.4749 191.359 26.1149C190.939 25.7449 190.629 25.3749 190.429 25.0049V26.9999H185.914ZM196.159 20.8499C196.159 20.2899 196.034 19.7899 195.784 19.3499C195.544 18.8999 195.209 18.5499 194.779 18.2999C194.359 18.0399 193.884 17.9099 193.354 17.9099C192.804 17.9099 192.309 18.0399 191.869 18.2999C191.439 18.5499 191.099 18.8999 190.849 19.3499C190.599 19.7899 190.474 20.2899 190.474 20.8499C190.474 21.4099 190.599 21.9149 190.849 22.3649C191.099 22.8049 191.439 23.1499 191.869 23.3999C192.309 23.6499 192.804 23.7749 193.354 23.7749C193.884 23.7749 194.359 23.6499 194.779 23.3999C195.209 23.1499 195.544 22.8049 195.784 22.3649C196.034 21.9149 196.159 21.4099 196.159 20.8499Z" fill="white"/>
<defs>
<linearGradient id="paint0_linear_1_8447" x1="38.9978" y1="14.7607" x2="-0.00195312" y2="14.7607" gradientUnits="userSpaceOnUse">
<stop stop-color="#A444FD"/>
<stop offset="1" stop-color="#D05EFC"/>
</linearGradient>
<linearGradient id="paint1_linear_1_8447" x1="32.5079" y1="28.3152" x2="6.34277" y2="28.3152" gradientUnits="userSpaceOnUse">
<stop stop-color="#A444FD"/>
<stop offset="1" stop-color="#D05EFC"/>
</linearGradient>
<clipPath id="clip0_1_8447">
<rect width="39" height="36" fill="white"/>
</clipPath>
</defs>
</svg>
