<svg width="217" height="81" viewBox="0 0 217 81" fill="none" xmlns="http://www.w3.org/2000/svg">
<rect x="0.133789" y="30.5264" width="6.63158" height="49.7368" rx="3.31579" fill="#FF6100"/>
<rect x="39.9229" y="17.2632" width="6.63158" height="63" rx="3.31579" fill="#FF6100"/>
<rect x="79.7129" y="44.8948" width="6.63158" height="35.3684" rx="3.31579" fill="#FF6100"/>
<rect x="119.502" y="26.1055" width="6.63158" height="54.1579" rx="3.31579" fill="#FF6100"/>
<rect x="159.292" y="19.4739" width="6.63158" height="60.7895" rx="3.31579" fill="#FF6100"/>
<rect x="199.081" y="17.2632" width="6.63158" height="63" rx="3.31579" fill="#FF6100"/>
<rect x="11.1865" y="17.2632" width="6.63158" height="63" rx="3.31579" fill="#FFC107"/>
<rect x="50.9756" y="0.684326" width="6.63158" height="79.5789" rx="3.31579" fill="#FFC107"/>
<rect x="90.7656" y="36.0529" width="6.63158" height="44.2105" rx="3.31579" fill="#FFC107"/>
<rect x="130.555" y="11.7371" width="6.63158" height="68.5263" rx="3.31579" fill="#FFC107"/>
<rect x="170.345" y="4.00012" width="6.63158" height="76.2632" rx="3.31579" fill="#FFC107"/>
<rect x="210.134" y="0.684326" width="6.63158" height="79.5789" rx="3.31579" fill="#FFC107"/>
</svg>
