<svg width="18" height="18" viewBox="0 0 18 18" fill="none" xmlns="http://www.w3.org/2000/svg">
<path fill-rule="evenodd" clip-rule="evenodd" d="M8.16149 11.7219C8.16149 11.2222 7.9631 10.7432 7.60965 10.3904C7.25682 10.0369 6.7778 9.83851 6.27807 9.83851C5.03124 9.83851 3.13024 9.83851 1.88342 9.83851C1.38369 9.83851 0.904668 10.0369 0.551841 10.3904C0.198385 10.7432 0 11.2222 0 11.7219V16.1166C0 16.6163 0.198385 17.0953 0.551841 17.4482C0.904668 17.8016 1.38369 18 1.88342 18H6.27807C6.7778 18 7.25682 17.8016 7.60965 17.4482C7.9631 17.0953 8.16149 16.6163 8.16149 16.1166V11.7219ZM17.5786 11.7219C17.5786 11.2222 17.3802 10.7432 17.0267 10.3904C16.6739 10.0369 16.1949 9.83851 15.6952 9.83851C14.4483 9.83851 12.5473 9.83851 11.3005 9.83851C10.8008 9.83851 10.3218 10.0369 9.96894 10.3904C9.61548 10.7432 9.4171 11.2222 9.4171 11.7219V16.1166C9.4171 16.6163 9.61548 17.0953 9.96894 17.4482C10.3218 17.8016 10.8008 18 11.3005 18H15.6952C16.1949 18 16.6739 17.8016 17.0267 17.4482C17.3802 17.0953 17.5786 16.6163 17.5786 16.1166V11.7219ZM6.90587 11.7219V16.1166C6.90587 16.2829 6.83995 16.443 6.72193 16.5604C6.60453 16.6785 6.44443 16.7444 6.27807 16.7444H1.88342C1.71705 16.7444 1.55696 16.6785 1.43956 16.5604C1.32153 16.443 1.25561 16.2829 1.25561 16.1166V11.7219C1.25561 11.5556 1.32153 11.3955 1.43956 11.2781C1.55696 11.16 1.71705 11.0941 1.88342 11.0941H6.27807C6.44443 11.0941 6.60453 11.16 6.72193 11.2781C6.83995 11.3955 6.90587 11.5556 6.90587 11.7219ZM16.323 11.7219V16.1166C16.323 16.2829 16.2571 16.443 16.139 16.5604C16.0216 16.6785 15.8615 16.7444 15.6952 16.7444H11.3005C11.1342 16.7444 10.9741 16.6785 10.8567 16.5604C10.7386 16.443 10.6727 16.2829 10.6727 16.1166V11.7219C10.6727 11.5556 10.7386 11.3955 10.8567 11.2781C10.9741 11.16 11.1342 11.0941 11.3005 11.0941H15.6952C15.8615 11.0941 16.0216 11.16 16.139 11.2781C16.2571 11.3955 16.323 11.5556 16.323 11.7219ZM14.8294 8.45294L17.4486 5.83374C18.1838 5.09858 18.1838 3.90574 17.4486 3.17058L14.8294 0.551371C14.0943 -0.18379 12.9014 -0.18379 12.1663 0.551371L9.54706 3.17058C8.81189 3.90574 8.81189 5.09858 9.54706 5.83374L12.1663 8.45294C12.9014 9.18811 14.0943 9.18811 14.8294 8.45294ZM8.16149 2.30483C8.16149 1.8051 7.9631 1.32608 7.60965 0.973255C7.25682 0.6198 6.7778 0.421415 6.27807 0.421415C5.03124 0.421415 3.13024 0.421415 1.88342 0.421415C1.38369 0.421415 0.904668 0.6198 0.551841 0.973255C0.198385 1.32608 0 1.8051 0 2.30483V6.69948C0 7.19921 0.198385 7.67823 0.551841 8.03106C0.904668 8.38451 1.38369 8.5829 1.88342 8.5829H6.27807C6.7778 8.5829 7.25682 8.38451 7.60965 8.03106C7.9631 7.67823 8.16149 7.19921 8.16149 6.69948V2.30483ZM16.5609 4.94602L13.9417 7.56522C13.6969 7.81007 13.2988 7.81007 13.054 7.56522L10.4348 4.94602C10.1899 4.70117 10.1899 4.30314 10.4348 4.0583L13.054 1.43909C13.2988 1.19425 13.6969 1.19425 13.9417 1.43909L16.5609 4.0583C16.8058 4.30314 16.8058 4.70117 16.5609 4.94602ZM6.90587 2.30483V6.69948C6.90587 6.86585 6.83995 7.02594 6.72193 7.14334C6.60453 7.26137 6.44443 7.32729 6.27807 7.32729H1.88342C1.71705 7.32729 1.55696 7.26137 1.43956 7.14334C1.32153 7.02594 1.25561 6.86585 1.25561 6.69948V2.30483C1.25561 2.13847 1.32153 1.97837 1.43956 1.86097C1.55696 1.74295 1.71705 1.67703 1.88342 1.67703H6.27807C6.44443 1.67703 6.60453 1.74295 6.72193 1.86097C6.83995 1.97837 6.90587 2.13847 6.90587 2.30483Z" fill="#666666"/>
</svg>
