<svg width="16" height="16" viewBox="0 0 16 16" fill="none" xmlns="http://www.w3.org/2000/svg">
<path d="M11.5998 0.79541H4.3998C2.41998 0.79541 0.799805 2.41559 0.799805 4.39541V11.5958C0.799805 13.5751 2.41998 15.1958 4.3998 15.1958H11.5998C13.5796 15.1958 15.1998 13.5751 15.1998 11.5958V4.39541C15.1998 2.41559 13.5796 0.79541 11.5998 0.79541ZM13.9997 11.5958C13.9997 12.9188 12.9235 13.9957 11.5998 13.9957H4.3998C3.07663 13.9957 1.99986 12.9188 1.99986 11.5958V4.39541C1.99986 3.07206 3.07663 1.99547 4.3998 1.99547H11.5998C12.9235 1.99547 13.9997 3.07206 13.9997 4.39541V11.5958Z" fill="white"/>
<path d="M11.9 4.99238C12.3971 4.99238 12.8 4.58944 12.8 4.09238C12.8 3.59533 12.3971 3.19238 11.9 3.19238C11.4029 3.19238 11 3.59533 11 4.09238C11 4.58944 11.4029 4.99238 11.9 4.99238Z" fill="white"/>
<path d="M8.00039 4.39453C6.01174 4.39453 4.40039 6.00606 4.40039 7.99453C4.40039 9.98227 6.01174 11.5949 8.00039 11.5949C9.98848 11.5949 11.6004 9.98227 11.6004 7.99453C11.6004 6.00606 9.98848 4.39453 8.00039 4.39453ZM8.00039 10.3948C6.67503 10.3948 5.60045 9.32024 5.60045 7.99453C5.60045 6.66882 6.67503 5.59459 8.00039 5.59459C9.32574 5.59459 10.4003 6.66882 10.4003 7.99453C10.4003 9.32024 9.32574 10.3948 8.00039 10.3948Z" fill="white"/>
</svg>
