<svg width="20" height="20" viewBox="0 0 20 20" fill="none" xmlns="http://www.w3.org/2000/svg">
<path d="M10.4297 3.41797C10.214 3.41797 10.0391 3.59285 10.0391 3.80859C10.0391 4.02433 10.214 4.19921 10.4297 4.19921H11.7139C11.7166 5.12917 12.0184 5.99781 12.5325 6.70683C11.9998 7.22597 11.3021 7.58034 10.5178 7.67882C10.3037 7.70569 10.152 7.901 10.1789 8.11503C10.2037 8.31257 10.3719 8.45702 10.5659 8.45702C10.5821 8.45702 10.5986 8.456 10.6151 8.45393C11.5586 8.3355 12.4 7.91456 13.0469 7.29632C13.6938 7.91456 14.5352 8.3355 15.4787 8.45393C15.4953 8.456 15.5116 8.45702 15.5279 8.45702C15.7219 8.45702 15.8901 8.31253 15.9149 8.11503C15.9418 7.90097 15.7901 7.70565 15.576 7.67882C14.7917 7.58034 14.0939 7.22601 13.5614 6.70683C14.0754 5.99777 14.3772 5.12917 14.3799 4.19921H15.6641C15.8798 4.19921 16.0547 4.02433 16.0547 3.80859C16.0547 3.59285 15.8798 3.41797 15.6641 3.41797H13.4375V2.40234C13.4375 2.1866 13.2626 2.01172 13.0469 2.01172C12.8312 2.01172 12.6562 2.1866 12.6562 2.40234V3.41797H10.4297ZM13.0469 6.07433C12.6992 5.52917 12.4977 4.8848 12.4953 4.19921H13.5984C13.596 4.8848 13.3946 5.52917 13.0469 6.07433Z" fill="#D05EFC"/>
<path d="M17.9282 0H14.8047C14.589 0 14.414 0.174882 14.414 0.390624C14.414 0.606366 14.589 0.781249 14.8047 0.781249H17.9282C18.6398 0.781249 19.2187 1.36019 19.2187 2.07183V8.39694C19.2187 9.10854 18.6398 9.68748 17.9281 9.68748C17.7124 9.68748 17.5375 9.86236 17.5375 10.0781V11.731L15.2536 9.78104C15.1829 9.72065 15.093 9.68748 15 9.68748H8.16553C7.45389 9.68748 6.87499 9.10854 6.87499 8.3969V2.07183C6.87499 1.36019 7.45389 0.781249 8.16553 0.781249H11.289C11.5047 0.781249 11.6797 0.606366 11.6797 0.390624C11.6797 0.174882 11.5047 0 11.289 0H8.16553C7.02315 0 6.09374 0.929412 6.09374 2.07183V7.03124H2.07179C0.929412 7.03124 0 7.96065 0 9.10307V15.4282C0 16.437 0.72492 17.2798 1.68117 17.4631V19.6093C1.68117 19.7618 1.76984 19.9002 1.90824 19.9641C1.96054 19.9882 2.01632 20 2.07175 20C2.16304 20 2.25332 19.968 2.32546 19.9064L5.14405 17.5H11.8344C12.9768 17.5 13.9062 16.5706 13.9062 15.4281V10.4687H14.8559L17.6745 12.8752C17.7466 12.9368 17.8369 12.9688 17.9282 12.9687C17.9836 12.9687 18.0394 12.9569 18.0917 12.9328C18.2301 12.869 18.3188 12.7305 18.3188 12.5781L18.3188 10.4318C19.2751 10.2486 20 9.4058 20 8.39694V2.07183C20 0.929412 19.0705 0 17.9282 0ZM6.95948 10.9182L7.73338 12.9688H6.1785L6.95948 10.9182ZM13.125 15.4281C13.125 16.1398 12.5461 16.7187 11.8344 16.7187H4.99999C4.90698 16.7187 4.81706 16.7519 4.74636 16.8123L2.46242 18.7622V17.1093C2.46242 16.8936 2.2875 16.7187 2.07179 16.7187C1.36015 16.7187 0.781249 16.1398 0.781249 15.4281V9.10307C0.781249 8.39143 1.36015 7.81249 2.07179 7.81249H6.09374V8.3969C6.09374 8.9183 6.28776 9.39494 6.60682 9.75951C6.56452 9.8035 6.52991 9.85576 6.50577 9.91475C6.50456 9.91772 6.50335 9.92068 6.50225 9.92369L4.83022 14.3138C4.75343 14.5154 4.8546 14.7411 5.0562 14.8179C5.2578 14.8947 5.48347 14.7935 5.56026 14.5919L5.88089 13.7501H8.02815L8.34541 14.5908C8.40444 14.7472 8.55303 14.8436 8.71092 14.8436C8.75674 14.8436 8.80334 14.8354 8.84877 14.8183C9.05061 14.7421 9.15244 14.5167 9.07627 14.3149L7.59432 10.388C7.77588 10.4402 7.96733 10.4687 8.16541 10.4687H13.125V15.4281Z" fill="#D05EFC"/>
<path d="M13.0469 0.781249C13.1496 0.781249 13.2504 0.739452 13.323 0.666796C13.3957 0.594139 13.4375 0.493358 13.4375 0.390624C13.4375 0.28789 13.3957 0.187109 13.323 0.114453C13.2504 0.0417968 13.1496 0 13.0469 0C12.9441 0 12.8434 0.0417968 12.7707 0.114453C12.698 0.187109 12.6562 0.28789 12.6562 0.390624C12.6562 0.493358 12.698 0.594139 12.7707 0.666796C12.8434 0.739452 12.9441 0.781249 13.0469 0.781249Z" fill="#D05EFC"/>
</svg>
