<svg width="25" height="25" viewBox="0 0 25 25" fill="none" xmlns="http://www.w3.org/2000/svg">
<path d="M12.4996 0.16626L14.6548 1.02833L15.9479 1.8904L20.6893 4.4766L21.1203 5.33867L20.2582 6.63178L17.3748 7.98868L17.672 8.35592L18.103 9.64902L17.241 11.8042L14.6548 13.0973H11.2065L8.62029 12.6663L7.32718 10.9421L6.89615 8.35592V7.92488L6.98235 7.53695L4.30994 6.20074L3.87891 5.33867L4.30994 4.4766L12.4996 0.16626Z" fill="#FFEDE2"/>
<path d="M14.6553 15.6834L15.5173 13.9592L16.3794 14.8213V15.2523V16.1144H15.5173L14.6553 15.6834Z" fill="#FFEDE2"/>
<path d="M24.6338 20.898H23.9858V7.74144C23.9858 6.77781 23.2017 5.99388 22.2378 5.99388H21.3776C21.4716 5.7971 21.5235 5.57884 21.5235 5.35203C21.5235 4.79979 21.2204 4.29607 20.7325 4.03743L15.9439 1.50081C15.7652 1.40609 15.5435 1.47425 15.4489 1.65301C15.3542 1.83172 15.4224 2.05335 15.6011 2.14803L20.3896 4.6846C20.641 4.81785 20.7911 5.06736 20.7911 5.35203C20.7911 5.6367 20.641 5.88616 20.3896 6.01937L15.7348 8.48528L12.7754 5.11058C12.642 4.95848 12.4106 4.94334 12.2586 5.07669C12.1065 5.21004 12.0914 5.44144 12.2247 5.59349L15.0696 8.83768L13.3083 9.77073C12.8022 10.0385 12.1979 10.0385 11.692 9.77083L4.61045 6.01946C4.35908 5.88621 4.20894 5.6367 4.20894 5.35208C4.20894 5.06746 4.35903 4.81795 4.61035 4.6847L11.6917 0.933331C12.1979 0.665558 12.8021 0.665558 13.308 0.933234L14.3217 1.47034C14.5004 1.56507 14.7221 1.49695 14.8167 1.31824C14.9114 1.13953 14.8433 0.917853 14.6646 0.823175L13.6508 0.285968C12.9302 -0.0953308 12.0697 -0.0953308 11.3491 0.286017L4.26743 4.03753C3.77959 4.29612 3.47656 4.79983 3.47656 5.35208C3.47656 5.57889 3.52842 5.7971 3.62246 5.99393H2.76221C1.79834 5.99393 1.01416 6.77786 1.01416 7.74149V20.898H0.366211C0.163965 20.898 0 21.062 0 21.2642V22.0759C0 23.3855 1.06543 24.451 2.37505 24.451H22.6249C23.9345 24.451 25 23.3856 25 22.0759V21.2642C25 21.0619 24.836 20.898 24.6338 20.898ZM15.6502 14.5447L16.1277 15.3717C16.2264 15.5427 16.1605 15.6936 16.1277 15.7505C16.0948 15.8075 15.997 15.9399 15.7996 15.9399H15.5007C15.3033 15.9399 15.2056 15.8075 15.1727 15.7505C15.1397 15.6935 15.074 15.5427 15.1727 15.3717L15.6502 14.5447ZM16.0164 9.16497L17.5317 8.36224V9.81648C17.5317 10.8609 16.9415 11.7972 16.0164 12.2419V9.16497ZM12.5 10.7041C12.8952 10.7041 13.2906 10.6087 13.6509 10.4181L15.284 9.55301V12.5252C13.2831 13.188 11.0694 13.1136 9.11641 12.3019C8.11519 11.8858 7.46826 10.9102 7.46826 9.81653V8.36219L11.3493 10.4181C11.7095 10.6088 12.1047 10.7041 12.5 10.7041ZM1.74658 7.74144C1.74658 7.18167 2.2022 6.7263 2.76221 6.7263H4.38022L6.22363 7.70286H3.08936C2.88711 7.70286 2.72314 7.86683 2.72314 8.06907V19.5554C2.72314 19.7576 2.88711 19.9216 3.08936 19.9216H5.02246C5.22471 19.9216 5.38867 19.7576 5.38867 19.5554C5.38867 19.3532 5.22471 19.1892 5.02246 19.1892H3.45557V8.43528H6.73584V9.81648C6.73584 11.2071 7.55991 12.4481 8.83535 12.9782C9.9998 13.4622 11.2499 13.7042 12.5 13.7042C13.4402 13.7042 14.3803 13.5672 15.284 13.2935V13.7141L14.5384 15.0055C14.3375 15.3534 14.3375 15.7688 14.5384 16.1167C14.7393 16.4646 15.099 16.6723 15.5008 16.6723H15.7997C16.2014 16.6723 16.5611 16.4646 16.762 16.1167C16.9629 15.7688 16.9629 15.3534 16.762 15.0055L16.0164 13.7141V13.0376C16.0659 13.018 16.1155 12.9987 16.1647 12.9782C17.4401 12.4481 18.2642 11.2071 18.2642 9.81648V8.43528H21.5444V19.1892H6.4873C6.28506 19.1892 6.12109 19.3532 6.12109 19.5554C6.12109 19.7576 6.28506 19.9216 6.4873 19.9216H21.9106C22.1129 19.9216 22.2769 19.7576 22.2769 19.5554V8.06907C22.2769 7.86683 22.1129 7.70286 21.9106 7.70286H18.7763L20.6197 6.7263H22.2377C22.7978 6.7263 23.2534 7.18167 23.2534 7.74144V20.898H1.74658V7.74144ZM14.7646 21.6306C14.6293 22.0244 14.2552 22.3082 13.8161 22.3082H11.184C10.7448 22.3082 10.3707 22.0244 10.2354 21.6306H14.7646ZM24.2676 22.0759C24.2676 22.9816 23.5307 23.7185 22.6249 23.7185H2.37505C1.46929 23.7185 0.732422 22.9816 0.732422 22.0759V21.6304H1.37661C1.37788 21.6304 1.3791 21.6306 1.38037 21.6306H9.47983C9.63247 22.4325 10.3383 23.0407 11.184 23.0407H13.8161C14.6617 23.0407 15.3675 22.4324 15.5202 21.6306H23.6196C23.6209 21.6306 23.6221 21.6304 23.6234 21.6304H24.2676V22.0759Z" fill="#FF6100"/>
<path d="M12.6106 17.8464C12.6106 17.6442 12.4466 17.4802 12.2444 17.4802H4.91309C4.71084 17.4802 4.54688 17.6442 4.54688 17.8464C4.54688 18.0487 4.71084 18.2126 4.91309 18.2126H12.2444C12.4466 18.2126 12.6106 18.0487 12.6106 17.8464Z" fill="#FF6100"/>
<path d="M4.91309 16.672H9.81494C10.0172 16.672 10.1812 16.508 10.1812 16.3058C10.1812 16.1035 10.0172 15.9396 9.81494 15.9396H4.91309C4.71084 15.9396 4.54688 16.1035 4.54688 16.3058C4.54688 16.508 4.71079 16.672 4.91309 16.672Z" fill="#FF6100"/>
</svg>
