<svg width="14" height="14" viewBox="0 0 14 14" fill="none" xmlns="http://www.w3.org/2000/svg">
<path d="M13.6002 13.5982V8.91021C13.6002 6.6062 13.1042 4.84619 10.4161 4.84619C9.12014 4.84619 8.25614 5.55019 7.90413 6.2222H7.87213V5.05419H5.32812V13.5982H7.98414V9.35821C7.98414 8.2382 8.19214 7.1662 9.56814 7.1662C10.9281 7.1662 10.9441 8.43021 10.9441 9.42221V13.5822H13.6002V13.5982Z" fill="white"/>
<path d="M1.00781 5.05176H3.66382V13.5958H1.00781V5.05176Z" fill="white"/>
<path d="M2.33581 0.79541C1.48781 0.79541 0.799805 1.48341 0.799805 2.33142C0.799805 3.17942 1.48781 3.88342 2.33581 3.88342C3.18381 3.88342 3.87182 3.17942 3.87182 2.33142C3.87182 1.48341 3.18381 0.79541 2.33581 0.79541Z" fill="white"/>
</svg>
