<svg width="18" height="18" viewBox="0 0 18 18" fill="none" xmlns="http://www.w3.org/2000/svg">
<path d="M3.18 4.32H1.2C0.54 4.32 0.0600002 3.78 0.0600002 3.18V1.14C2.27988e-07 0.54 0.48 0 1.14 0H3.12C3.78 0 4.26 0.54 4.26 1.14V3.18C4.32 3.78 3.78 4.32 3.18 4.32ZM3.12 1.14L1.14 1.2L1.2 3.18L3.12 3.12V1.14ZM3.18 3.12C3.12 3.12 3.12 3.12 3.18 3.12V3.12ZM18 2.34C18 1.98 17.76 1.74 17.4 1.74H6.6C6.24 1.74 6 1.98 6 2.34C6 2.7 6.24 2.94 6.6 2.94H17.4C17.76 2.94 18 2.64 18 2.34ZM3.18 11.16H1.2C0.54 11.16 0.0600002 10.62 0.0600002 10.02V8.04C0.0600002 7.38 0.6 6.9 1.2 6.9H3.18C3.84 6.9 4.32 7.44 4.32 8.04V10.02C4.32 10.62 3.78 11.16 3.18 11.16ZM3.12 7.98L1.14 8.04L1.2 10.02L3.12 9.96V7.98ZM3.18 9.96C3.12 9.96 3.12 9.96 3.18 9.96V9.96ZM18 9.18C18 8.82 17.76 8.58 17.4 8.58H6.6C6.24 8.58 6 8.82 6 9.18C6 9.54 6.24 9.78 6.6 9.78H17.4C17.76 9.78 18 9.48 18 9.18ZM3.18 18H1.2C0.48 18 0 17.46 0 16.86V14.82C0 14.16 0.54 13.68 1.14 13.68H3.12C3.78 13.68 4.26 14.22 4.26 14.82V16.86C4.32 17.46 3.78 18 3.18 18ZM3.12 14.82L1.14 14.88L1.2 16.86L3.12 16.8V14.82ZM3.18 16.8C3.12 16.8 3.12 16.8 3.18 16.8V16.8ZM18 16.02C18 15.66 17.76 15.42 17.4 15.42H6.6C6.24 15.42 6 15.66 6 16.02C6 16.38 6.24 16.62 6.6 16.62H17.4C17.76 16.62 18 16.32 18 16.02Z" fill="#666666"/>
</svg>
