<svg width="56" height="50" viewBox="0 0 56 50" fill="none" xmlns="http://www.w3.org/2000/svg">
<g clip-path="url(#clip0_5_8593)">
<path d="M1.71255 14.6688C0.124365 15.6815 -0.810347 17.8217 0.947408 20.3813C2.70516 22.9408 27.7976 40.2246 28.7199 40.7033C29.6381 41.182 30.5604 41.2651 32.9013 39.5838C35.2422 37.9024 54.8133 24.7764 55.3179 24.3808C56.1202 23.7518 56.3229 22.2208 55.3179 21.5008C55.3179 21.5008 31.6109 37.3407 30.8334 37.9816C30.0558 38.6224 28.8481 37.582 29.0756 36.2211C29.3031 34.8603 29.4727 34.702 32.4836 32.6212C35.4945 30.5403 52.5675 18.9888 53.345 18.4745C54.2219 17.8969 54.2425 16.8723 52.8074 15.9703C50.8097 14.7123 29.2204 1.00475 28.5007 0.52607C27.777 0.0473931 26.7761 -0.391724 25.2706 0.569586C23.7651 1.5309 4.64076 12.8095 1.71668 14.6648L1.71255 14.6688Z" fill="white"/>
<path d="M28.7198 42.3886C28.116 42.0722 17.1062 34.5241 9.10742 28.6494V40.9051C9.09915 49.8497 37.3266 54.6285 46.6779 43.6348V31.921C40.9331 35.7979 34.2164 40.3315 32.9012 41.273C30.5603 42.9543 29.638 42.8713 28.7198 42.3926V42.3886Z" fill="white"/>
<path d="M40.6637 28.9541C40.6637 28.9541 44.8616 30.8372 45.1594 38.4208L43.1245 37.9184L41.4991 41.0041C40.8125 32.7044 37.0654 31.4978 37.0654 31.4978L40.6678 28.9541H40.6637Z" fill="#FF6100"/>
</g>
<defs>
<clipPath id="clip0_5_8593">
<rect width="56" height="50" fill="white"/>
</clipPath>
</defs>
</svg>
