<svg width="16" height="19" viewBox="0 0 16 19" fill="none" xmlns="http://www.w3.org/2000/svg">
<path d="M11.0391 12.6944C12.9763 9.65467 12.7328 10.0339 12.7886 9.95465C13.4939 8.95987 13.8667 7.78906 13.8667 6.56873C13.8667 3.33246 11.2405 0.666504 8 0.666504C4.77006 0.666504 2.13333 3.3272 2.13333 6.56873C2.13333 7.78828 2.51392 8.98974 3.24231 9.99792L4.96078 12.6945C3.12345 12.9768 0 13.8182 0 15.671C0 16.3463 0.440818 17.3088 2.54087 18.0588C4.00725 18.5825 5.94599 18.871 8 18.871C11.8409 18.871 16 17.7875 16 15.671C16 13.8179 12.8802 12.9774 11.0391 12.6944ZM4.1333 9.41122C4.12743 9.40204 4.12132 9.39308 4.11492 9.38426C3.5088 8.55042 3.2 7.56218 3.2 6.56873C3.2 3.90142 5.34777 1.73317 8 1.73317C10.6467 1.73317 12.8 3.90238 12.8 6.56873C12.8 7.56378 12.497 8.51849 11.9237 9.33036C11.8723 9.39813 12.1404 8.9817 8 15.4786L4.1333 9.41122ZM8 17.8043C3.80466 17.8043 1.06667 16.5711 1.06667 15.671C1.06667 15.0659 2.47353 14.0711 5.59104 13.6834L7.55022 16.7576C7.64814 16.9113 7.81774 17.0043 7.99996 17.0043C8.18219 17.0043 8.35182 16.9112 8.44971 16.7576L10.4089 13.6834C13.5264 14.0711 14.9333 15.0659 14.9333 15.671C14.9333 16.5635 12.22 17.8043 8 17.8043Z" fill="white"/>
<path d="M7.99967 3.90234C6.52927 3.90234 5.33301 5.09861 5.33301 6.56901C5.33301 8.03941 6.52927 9.23568 7.99967 9.23568C9.47007 9.23568 10.6663 8.03941 10.6663 6.56901C10.6663 5.09861 9.47007 3.90234 7.99967 3.90234ZM7.99967 8.16901C7.11743 8.16901 6.39967 7.45125 6.39967 6.56901C6.39967 5.68677 7.11743 4.96901 7.99967 4.96901C8.88191 4.96901 9.59967 5.68677 9.59967 6.56901C9.59967 7.45125 8.88191 8.16901 7.99967 8.16901Z" fill="white"/>
</svg>
