<svg width="20" height="14" viewBox="0 0 20 14" fill="none" xmlns="http://www.w3.org/2000/svg">
<path d="M17.693 0.333496H2.30762C1.40484 0.333496 0.666992 1.0681 0.666992 1.97412V11.8179C0.666992 12.7242 1.40531 13.4585 2.30762 13.4585H17.693C18.5958 13.4585 19.3337 12.7239 19.3337 11.8179V1.97412C19.3337 1.06788 18.5954 0.333496 17.693 0.333496ZM17.4411 1.42725C16.9107 1.95943 10.6801 8.21032 10.4241 8.46713C10.2103 8.68158 9.79043 8.68172 9.57653 8.46713L2.55954 1.42725H17.4411ZM1.76074 11.6168V2.17519L6.46624 6.896L1.76074 11.6168ZM2.55954 12.3647L7.23839 7.67066L8.8019 9.23928C9.44262 9.88208 10.5583 9.88182 11.1988 9.23928L12.7623 7.6707L17.4411 12.3647H2.55954ZM18.2399 11.6168L13.5344 6.896L18.2399 2.17519V11.6168Z" fill="white"/>
</svg>
