<svg width="40" height="39" viewBox="0 0 40 39" fill="none" xmlns="http://www.w3.org/2000/svg">
<path d="M15.8711 2.07596L17.3457 0.89624H37.9909L39.1706 2.66582L39.4655 19.1819L39.1706 20.9515L37.6959 22.1312H17.3457L15.8711 20.6566V12.9884H16.7559L19.4103 12.6935L22.3596 10.334L23.5393 9.15429L23.2444 7.97457L22.3596 7.38471L20.8849 8.2695L19.4103 9.44922L17.9356 10.334L15.8711 10.0391V2.07596Z" fill="#FFEDE2"/>
<path d="M36.9803 22.721H18.1559C16.4906 22.721 15.1357 21.3662 15.1357 19.7009V12.7961H16.4261V19.7009C16.4261 20.6547 17.2021 21.4307 18.1559 21.4307H36.9803C37.9341 21.4307 38.7101 20.6547 38.7101 19.7009V3.02007C38.7101 2.06629 37.9341 1.29032 36.9803 1.29032H18.1559C17.202 1.29032 16.4261 2.06629 16.4261 3.02007V10.2934H15.1357V3.02007C15.1357 1.35484 16.4906 0 18.1559 0H36.9803C38.6455 0 40.0004 1.35476 40.0004 3.02007V19.7009C40.0004 21.3662 38.6456 22.721 36.9803 22.721Z" fill="#FF6100"/>
<path d="M8.12661 37.9082C7.77032 37.9082 7.48145 37.6193 7.48145 37.2631V24.7987C7.48145 24.4424 7.77032 24.1536 8.12661 24.1536C8.48289 24.1536 8.77177 24.4424 8.77177 24.7987V37.2631C8.77177 37.6194 8.48298 37.9082 8.12661 37.9082Z" fill="#FF6100"/>
<path d="M8.25747 10.4121C6.04667 10.4121 4.24805 8.13921 4.24805 5.34542C4.24805 2.78817 5.78433 1.19946 8.25747 1.19946C10.7305 1.19946 12.2668 2.78809 12.2668 5.34542C12.2669 8.13921 10.4683 10.4121 8.25747 10.4121ZM8.25747 2.48978C7.24199 2.48978 5.53837 2.86075 5.53837 5.34542C5.53837 7.42768 6.75812 9.12179 8.25747 9.12179C9.75683 9.12179 10.9765 7.42776 10.9765 5.34542C10.9766 2.86083 9.27296 2.48978 8.25747 2.48978Z" fill="#FF6100"/>
<path d="M12.5203 37.9084C12.5199 37.9084 12.5195 37.9084 12.5192 37.9084C12.1629 37.9079 11.8745 37.6185 11.8751 37.2622L11.9111 14.9657C11.9114 14.8161 11.9637 14.6711 12.0591 14.5557L13.8536 12.3852C13.9761 12.237 14.1584 12.1511 14.3508 12.1511H18.8805C19.0341 12.1511 19.1806 12.0936 19.2931 11.9891C19.3066 11.9765 19.3206 11.9645 19.3352 11.9531L22.7937 9.25043C22.9204 9.1514 23.001 9.00914 23.0206 8.84962C23.0402 8.69011 22.9964 8.53252 22.8976 8.40599C22.6935 8.14454 22.3146 8.09809 22.0531 8.3022L18.8544 10.802C18.7409 10.8906 18.6011 10.9387 18.4571 10.9387H4.56697C3.21463 10.9387 1.33706 11.7797 1.32915 13.3586L1.29036 21.0863C1.28722 21.6966 1.53262 22.281 1.98117 22.7319C2.34552 23.0981 2.8202 23.347 3.33133 23.4483V13.3512C3.33133 12.9949 3.6202 12.7061 3.97649 12.7061C4.33278 12.7061 4.62165 12.9949 4.62165 13.3512V37.2633C4.62165 37.6196 4.33278 37.9084 3.97649 37.9084C3.6202 37.9084 3.33133 37.6196 3.33133 37.2633V24.7552C2.47625 24.6414 1.67117 24.2496 1.06649 23.6419C0.373995 22.9459 -0.00471376 22.036 4.42951e-05 21.0798L0.0387539 13.3523C0.0502861 11.0645 2.3981 9.64849 4.56689 9.64849H18.2348L21.2587 7.28543C22.081 6.64325 23.2723 6.78971 23.9143 7.61172C24.5565 8.43382 24.4101 9.62502 23.5881 10.2673L20.1492 12.9545C19.8003 13.2688 19.351 13.4415 18.8804 13.4415H14.6544L13.2009 15.1994L13.1653 37.2642C13.1648 37.6203 12.8761 37.9084 12.5203 37.9084Z" fill="#FF6100"/>
<path d="M22.5985 38.9541H14.2203C14.0373 38.9541 13.8628 38.8764 13.7405 38.7403C13.6181 38.6041 13.5594 38.4223 13.5789 38.2403C13.8434 35.7681 15.9202 33.9038 18.4095 33.9038C20.8989 33.9038 22.9755 35.7682 23.2401 38.2403C23.2597 38.4223 23.2009 38.604 23.0785 38.7402C22.956 38.8763 22.7816 38.9541 22.5985 38.9541ZM15.0124 37.6638H21.8064C21.3422 36.2156 19.9889 35.194 18.4094 35.194C16.83 35.194 15.4768 36.2157 15.0124 37.6638Z" fill="#FF6100"/>
<path d="M18.4093 35.1938C16.8789 35.1938 15.6338 33.9487 15.6338 32.4183C15.6338 30.8879 16.8789 29.6428 18.4093 29.6428C19.9397 29.6428 21.1847 30.8879 21.1847 32.4183C21.1847 33.9487 19.9397 35.1938 18.4093 35.1938ZM18.4093 30.9331C17.5903 30.9331 16.9241 31.5994 16.9241 32.4183C16.9241 33.2373 17.5903 33.9035 18.4093 33.9035C19.2282 33.9035 19.8944 33.2373 19.8944 32.4183C19.8944 31.5994 19.2282 30.9331 18.4093 30.9331Z" fill="#FF6100"/>
<path d="M30.9765 38.9541H22.5983C22.4152 38.9541 22.2408 38.8764 22.1184 38.7402C21.9961 38.604 21.9373 38.4223 21.9568 38.2403C22.2214 35.7681 24.2982 33.9038 26.7874 33.9038C29.2767 33.9038 31.3535 35.7682 31.618 38.2403C31.6375 38.4223 31.5787 38.604 31.4564 38.7402C31.334 38.8763 31.1595 38.9541 30.9765 38.9541ZM23.3904 37.6638H30.1844C29.7201 36.2156 28.3668 35.194 26.7874 35.194C25.208 35.194 23.8547 36.2156 23.3904 37.6638Z" fill="#FF6100"/>
<path d="M26.7872 35.1938C25.2568 35.1938 24.0117 33.9487 24.0117 32.4183C24.0117 30.8879 25.2568 29.6428 26.7872 29.6428C28.3176 29.6428 29.5627 30.8879 29.5627 32.4183C29.5627 33.9487 28.3176 35.1938 26.7872 35.1938ZM26.7872 30.9331C25.9682 30.9331 25.302 31.5994 25.302 32.4183C25.302 33.2373 25.9682 33.9035 26.7872 33.9035C27.6061 33.9035 28.2724 33.2373 28.2724 32.4183C28.2724 31.5994 27.6061 30.9331 26.7872 30.9331Z" fill="#FF6100"/>
<path d="M39.3545 38.9541H30.9762C30.7931 38.9541 30.6187 38.8764 30.4963 38.7403C30.374 38.6041 30.3152 38.4223 30.3347 38.2403C30.5992 35.7681 32.676 33.9038 35.1654 33.9038C37.6547 33.9038 39.7314 35.7682 39.996 38.2403C40.0155 38.4223 39.9567 38.604 39.8344 38.7402C39.712 38.8763 39.5375 38.9541 39.3545 38.9541ZM31.7684 37.6638H38.5624C38.0981 36.2156 36.7448 35.194 35.1654 35.194C33.5859 35.194 32.2326 36.2157 31.7684 37.6638Z" fill="#FF6100"/>
<path d="M35.1661 35.1938C33.6357 35.1938 32.3906 33.9487 32.3906 32.4183C32.3906 30.8879 33.6357 29.6428 35.1661 29.6428C36.6965 29.6428 37.9416 30.8879 37.9416 32.4183C37.9416 33.9487 36.6965 35.1938 35.1661 35.1938ZM35.1661 30.9331C34.3472 30.9331 33.6809 31.5994 33.6809 32.4183C33.6809 33.2373 34.3472 33.9035 35.1661 33.9035C35.9851 33.9035 36.6513 33.2373 36.6513 32.4183C36.6513 31.5994 35.9851 30.9331 35.1661 30.9331Z" fill="#FF6100"/>
<path d="M26.825 12.6499C26.608 12.6499 26.3963 12.5405 26.2745 12.3421C25.6726 11.3612 25.3545 10.2319 25.3545 9.07617C25.3545 5.62836 28.1595 2.82336 31.6073 2.82336C32.0792 2.82336 32.5466 2.87634 33.0013 2.98005C33.0191 2.80151 33.1108 2.63118 33.2684 2.51868C33.5583 2.31151 33.9612 2.37876 34.1683 2.66868L35.0521 3.9061C35.095 3.96336 35.1278 4.02707 35.1495 4.094C35.1495 4.09416 35.1496 4.09433 35.1496 4.09449C35.1575 4.11868 35.1638 4.14336 35.1687 4.16828C35.1687 4.16844 35.1688 4.1686 35.1688 4.16876C35.1688 4.16884 35.1688 4.16892 35.1689 4.16908C35.1977 4.31586 35.1758 4.47303 35.0966 4.61223C35.0876 4.62803 35.078 4.64336 35.0678 4.6582C34.9871 4.7761 34.8731 4.85941 34.7463 4.90303C34.7142 4.91416 34.6809 4.92279 34.647 4.92868C34.6284 4.93199 34.6097 4.9344 34.5908 4.93602L33.0697 5.08344C32.7158 5.11868 32.3996 4.85828 32.3653 4.5036C32.3542 4.38884 32.3738 4.2782 32.4175 4.17981C32.1511 4.13594 31.8801 4.1136 31.6073 4.1136C28.871 4.1136 26.6448 6.33972 26.6448 9.07609C26.6448 9.99351 26.8971 10.8895 27.3742 11.6671C27.5606 11.9708 27.4655 12.3681 27.1618 12.5544C27.0566 12.6191 26.94 12.6499 26.825 12.6499Z" fill="#FF6100"/>
<path d="M29.5599 15.7623C29.3566 15.7623 29.1564 15.6665 29.0309 15.4873L28.1585 14.2417C28.1177 14.1862 28.0864 14.1248 28.0654 14.0604C28.0654 14.0603 28.0653 14.0602 28.0653 14.0601C28.0653 14.06 28.0653 14.06 28.0652 14.0599C28.0569 14.0345 28.0502 14.0087 28.0452 13.9827C28.0165 13.8356 28.0387 13.6782 28.1186 13.539C28.127 13.5243 28.1359 13.5101 28.1453 13.4963C28.226 13.3778 28.34 13.294 28.467 13.2501C28.4993 13.2389 28.5326 13.2302 28.5668 13.2242C28.567 13.2241 28.5672 13.2241 28.5676 13.224C28.5882 13.2204 28.609 13.2178 28.6299 13.2162L30.1518 13.0829C30.5067 13.051 30.8197 13.3143 30.8507 13.6693C30.8601 13.777 30.8426 13.8808 30.8035 13.9741C31.0678 14.0173 31.3364 14.0392 31.6068 14.0392C34.3432 14.0392 36.5693 11.8131 36.5693 9.07671C36.5693 8.15937 36.3171 7.26341 35.8398 6.48567C35.6534 6.18196 35.7486 5.7847 36.0523 5.59833C36.356 5.41188 36.7533 5.50712 36.9396 5.81083C37.5415 6.7918 37.8596 7.92107 37.8596 9.07671C37.8596 12.5245 35.0547 15.3295 31.6068 15.3295C31.1314 15.3295 30.6602 15.2756 30.2022 15.1703C30.1869 15.3548 30.0928 15.5313 29.9293 15.6458C29.8168 15.7244 29.6877 15.7623 29.5599 15.7623Z" fill="#FF6100"/>
<path d="M29.7626 17.9385H19.0084C18.6522 17.9385 18.3633 17.6496 18.3633 17.2934C18.3633 16.9371 18.6522 16.6482 19.0084 16.6482H29.7626C30.1189 16.6482 30.4078 16.9371 30.4078 17.2934C30.4078 17.6496 30.1189 17.9385 29.7626 17.9385Z" fill="#FF6100"/>
<path d="M34.6014 20.3577H19.1588C18.8025 20.3577 18.5137 20.0688 18.5137 19.7125C18.5137 19.3563 18.8025 19.0674 19.1588 19.0674H34.6014C34.9577 19.0674 35.2465 19.3563 35.2465 19.7125C35.2465 20.0688 34.9577 20.3577 34.6014 20.3577Z" fill="#FF6100"/>
</svg>
