<svg width="40" height="36" viewBox="0 0 40 36" fill="none" xmlns="http://www.w3.org/2000/svg">
<path d="M14.5 21V8.5L15 7.5L15.5 8L26.5 14L26 15L15.75 21H14.5Z" fill="#FFEDE2"/>
<path d="M2.5 32L20 32.5H38L39 33V34L38 35L19.5 35.5L2 35L1 34V33L2.5 32Z" fill="#FFEDE2"/>
<path d="M37.8571 0H2.14286C1.57473 0.00062014 1.03004 0.226584 0.628313 0.628313C0.226584 1.03004 0.00062014 1.57473 0 2.14286V26.8366C0.00062014 27.4048 0.226584 27.9495 0.628313 28.3512C1.03004 28.7529 1.57473 28.9789 2.14286 28.9795H37.8571C38.4253 28.9789 38.97 28.7529 39.3717 28.3512C39.7734 27.9495 39.9994 27.4048 40 26.8366V2.14286C39.9994 1.57473 39.7734 1.03004 39.3717 0.628313C38.97 0.226584 38.4253 0.00062014 37.8571 0ZM38.5714 26.8366C38.5712 27.026 38.4959 27.2076 38.362 27.3415C38.2281 27.4754 38.0465 27.5507 37.8571 27.5509H2.14286C1.95347 27.5507 1.7719 27.4754 1.63799 27.3415C1.50408 27.2076 1.42876 27.026 1.42857 26.8366V2.14286C1.42876 1.95347 1.50408 1.7719 1.63799 1.63799C1.7719 1.50408 1.95347 1.42876 2.14286 1.42857H37.8571C38.0465 1.42876 38.2281 1.50408 38.362 1.63799C38.4959 1.7719 38.5712 1.95347 38.5714 2.14286V26.8366Z" fill="#FF6100"/>
<path d="M36.4288 2.85693H3.57171C3.4779 2.85691 3.38501 2.87537 3.29833 2.91126C3.21166 2.94714 3.13291 2.99976 3.06658 3.06609C3.00024 3.13242 2.94763 3.21117 2.91174 3.29785C2.87586 3.38452 2.8574 3.47741 2.85742 3.57122V25.4079C2.8574 25.5017 2.87585 25.5946 2.91174 25.6812C2.94763 25.7679 3.00024 25.8467 3.06657 25.913C3.13291 25.9793 3.21166 26.0319 3.29833 26.0678C3.385 26.1037 3.4779 26.1222 3.57171 26.1221H36.4288C36.5227 26.1222 36.6156 26.1037 36.7022 26.0678C36.7889 26.0319 36.8676 25.9793 36.934 25.913C37.0003 25.8467 37.0529 25.7679 37.0888 25.6812C37.1247 25.5946 37.1432 25.5017 37.1431 25.4079V3.57122C37.1432 3.47741 37.1247 3.38452 37.0888 3.29785C37.0529 3.21117 37.0003 3.13242 36.934 3.06609C36.8676 2.99976 36.7889 2.94714 36.7022 2.91126C36.6156 2.87537 36.5227 2.85691 36.4288 2.85693ZM35.7146 24.6936H4.28599V4.28551H35.7146V24.6936Z" fill="#FF6100"/>
<path d="M37.8571 31.6323H2.14286C1.57454 31.6323 1.02949 31.8581 0.627628 32.26C0.225765 32.6618 0 33.2069 0 33.7752C0 34.3435 0.225765 34.8885 0.627628 35.2904C1.02949 35.6923 1.57454 35.918 2.14286 35.918H37.8571C38.4255 35.918 38.9705 35.6923 39.3724 35.2904C39.7742 34.8885 40 34.3435 40 33.7752C40 33.2069 39.7742 32.6618 39.3724 32.26C38.9705 31.8581 38.4255 31.6323 37.8571 31.6323ZM1.42857 33.7752C1.42876 33.5858 1.50408 33.4042 1.63799 33.2703C1.7719 33.1364 1.95347 33.0611 2.14286 33.0609H19.2857V34.4895H2.14286C1.95347 34.4893 1.7719 34.414 1.63799 34.2801C1.50408 34.1461 1.42876 33.9646 1.42857 33.7752ZM37.8571 34.4895H20.7143V33.0609H37.8571C38.0466 33.0609 38.2283 33.1362 38.3622 33.2701C38.4962 33.4041 38.5714 33.5857 38.5714 33.7752C38.5714 33.9646 38.4962 34.1463 38.3622 34.2803C38.2283 34.4142 38.0466 34.4895 37.8571 34.4895Z" fill="#FF6100"/>
<path d="M15.8306 21.7363L26.3496 15.8198C26.5832 15.6852 26.7772 15.4914 26.9121 15.258C27.0471 15.0246 27.1181 14.7597 27.1182 14.4901C27.1183 14.2205 27.0474 13.9556 26.9126 13.7221C26.7777 13.4887 26.5838 13.2948 26.3503 13.16L15.8306 7.24278C15.5981 7.11484 15.3363 7.0494 15.0709 7.05286C14.8056 7.05633 14.5456 7.12857 14.3165 7.26253C14.0874 7.3965 13.8969 7.5876 13.7637 7.81718C13.6306 8.04675 13.5592 8.30695 13.5566 8.57234V20.4068C13.5592 20.6722 13.6306 20.9324 13.7638 21.162C13.897 21.3915 14.0874 21.5826 14.3165 21.7166C14.5457 21.8505 14.8056 21.9228 15.071 21.9262C15.3364 21.9297 15.5981 21.8642 15.8306 21.7363ZM14.9852 8.5723C14.9844 8.55522 14.9886 8.53827 14.9971 8.52344C15.0056 8.50861 15.0182 8.49653 15.0333 8.4886C15.0479 8.47961 15.0646 8.47473 15.0816 8.47448C15.0987 8.47424 15.1155 8.47863 15.1303 8.4872L25.65 14.4045C25.6655 14.4124 25.6784 14.4247 25.6872 14.4398C25.696 14.4548 25.7003 14.4721 25.6995 14.4896C25.7004 14.507 25.6962 14.5244 25.6874 14.5395C25.6786 14.5546 25.6656 14.5669 25.65 14.5747L15.13 20.4919C15.1154 20.5006 15.0987 20.5051 15.0817 20.505C15.0648 20.5049 15.0482 20.5001 15.0337 20.4912C15.0185 20.4832 15.0058 20.471 14.9973 20.456C14.9887 20.4411 14.9845 20.424 14.9852 20.4068L14.9852 8.5723Z" fill="#FF6100"/>
</svg>
