<svg width="40" height="40" viewBox="0 0 40 40" fill="none" xmlns="http://www.w3.org/2000/svg">
<path d="M3.5 22V25H26.5V24V22L26 21.5L25.5 21L24.5 19.5L23.5 18.5L22.5 17.5L21 16.5L20 16L18.1875 15.5L17.5 14L18.1875 13L19 12C19 11.5833 19.1 10.6 19.5 10C19.9 9.4 20.3333 9.41667 20.5 9.5V7.5V5L20 3L19 2.5L18.1875 1H17H15H13.5L12 1.5L10.5 2L9.5 3.5V5.3125V7L9 7.5L9.5 9.5L10.5 10L11 11L12 13L12.5 14L12 15.5L10.5 16.5C9.3 16.1 7.66667 17.3333 7 18L5 20.5L3.5 22Z" fill="#FFEDE2"/>
<path d="M38.6592 24.4817H37.9023V24.2429C37.9023 23.1074 36.9786 22.1836 35.8431 22.1836H35.7241L37.9456 15.9278C37.9791 15.9296 38.0129 15.9304 38.0468 15.9304C39.1238 15.9304 40.0001 15.0542 40.0001 13.9771C40.0001 12.9001 39.1238 12.0238 38.0468 12.0238C37.6797 12.0238 37.3359 12.1258 37.0423 12.3027L33.8548 9.41244C34.3234 9.1276 34.6632 8.68408 34.8159 8.15393C34.977 7.59432 34.9105 7.00549 34.6287 6.4958L34.3249 5.94658C33.7431 4.89455 32.4138 4.51205 31.362 5.09377L29.9094 5.89705C28.6657 5.15229 27.1022 5.00854 25.678 5.62479C25.1664 5.84619 24.9523 6.46205 25.224 6.95322L28.7951 13.4113C29.0659 13.9008 29.7006 14.0497 30.1616 13.7329C31.3384 12.9247 32.0338 11.6747 32.1613 10.3513L32.7728 10.0132L36.2645 13.1793C36.1549 13.4231 36.0934 13.693 36.0934 13.9771C36.0934 14.6024 36.3891 15.1596 36.8477 15.5174L34.4805 22.1836H32.3018C31.1663 22.1836 30.2426 23.1074 30.2426 24.2429V24.4817H27.4355V22.4524C27.4355 21.8348 27.0184 21.2954 26.4213 21.1408C26.326 21.1161 26.2203 21.0898 26.106 21.0627C25.1926 18.3001 22.8857 16.2636 20.008 15.7098C19.209 15.5555 19.0278 15.5352 18.7694 15.3752C18.7674 15.3739 18.7652 15.3732 18.7633 15.3721C17.9808 14.8834 18.1479 14.0394 18.1263 13.9316C18.2749 13.8242 18.4207 13.7092 18.5627 13.5843C19.407 12.8422 19.9503 11.7901 20.0977 10.6384C20.7445 10.52 21.2353 9.94728 21.2324 9.26369L21.2287 7.54463C21.228 7.40119 21.2046 7.25978 21.1612 7.12447C21.2073 6.98635 21.2324 6.83971 21.2324 6.68869V3.65713C21.2324 2.76408 20.5059 2.02564 19.613 2.01111C19.5901 2.01072 19.5719 1.99252 19.5715 1.96955C19.5574 1.0658 18.8105 0.330566 17.9066 0.330566H13.1198C10.8804 0.330566 9.05844 2.15252 9.05844 4.39197V6.68869C9.05844 6.75494 9.06383 6.82033 9.07305 6.88455C8.84703 7.1826 8.72195 7.5476 8.72227 7.93025L8.72305 8.96932C8.72367 9.8401 9.37031 10.5625 10.2085 10.6824C10.3659 11.8321 10.9178 12.8788 11.7677 13.6133C11.8973 13.7253 12.0297 13.8296 12.1645 13.9271C12.1427 14.0368 12.3112 14.8831 11.5273 15.3722C11.5255 15.3733 11.5234 15.374 11.5216 15.3752C11.051 15.6663 10.4141 15.5847 9.21281 15.9931C8.90648 16.0972 8.7425 16.43 8.84664 16.7364C8.95078 17.0428 9.28367 17.2069 9.59 17.1026C10.4623 16.8062 11.2464 16.7688 11.7419 16.5715C13.7917 18.2116 16.5028 18.2085 18.5487 16.5715C18.807 16.6744 18.9802 16.7049 19.7859 16.8606C22.017 17.2899 23.8465 18.7624 24.7484 20.7952C23.8152 20.6472 22.6666 20.5376 21.4342 20.5853C18.9322 20.6821 16.8317 21.386 15.1802 22.6767C13.5286 21.386 11.428 20.6821 8.92609 20.5853C7.66094 20.5363 6.48406 20.6531 5.53797 20.807C5.95805 19.8597 6.58766 19.0195 7.39211 18.3428C7.63969 18.1344 7.67156 17.7648 7.4632 17.5172C7.25492 17.2695 6.88531 17.2378 6.63766 17.446C5.48875 18.4128 4.64406 19.6641 4.17852 21.081C4.09328 21.1017 4.01297 21.1218 3.93922 21.141C3.34203 21.2956 2.925 21.8349 2.925 22.4525V24.482H1.32563C0.594688 24.4817 0 25.0764 0 25.8074V27.4786C0 28.2096 0.594688 28.8043 1.32563 28.8043H2.68438V38.4006C2.68438 39.1003 3.25367 39.6696 3.95344 39.6696H36.0465C36.7462 39.6696 37.3155 39.1003 37.3155 38.4006V32.7539C37.3155 32.4303 37.0533 32.168 36.7296 32.168C36.4059 32.168 36.1437 32.4303 36.1437 32.7539V38.4005C36.1437 38.4541 36.1 38.4977 36.0465 38.4977H34.782V28.8042H36.1438V30.0135C36.1438 30.3372 36.406 30.5995 36.7297 30.5995C37.0534 30.5995 37.3156 30.3372 37.3156 30.0135V28.8042H38.6592C39.3902 28.8042 39.9849 28.2096 39.9849 27.4785V25.8073C39.9849 25.0764 39.3902 24.4817 38.6592 24.4817ZM38.0467 13.1957C38.4776 13.1957 38.8281 13.5463 38.8281 13.9771C38.8281 14.408 38.4776 14.7585 38.0467 14.7585C37.6159 14.7585 37.2653 14.408 37.2653 13.9771C37.2653 13.5463 37.6159 13.1957 38.0467 13.1957ZM31.0059 10.0477C30.9655 11.0296 30.5089 11.9753 29.6966 12.6203L26.3733 6.6101C27.4486 6.23064 28.6032 6.40846 29.4966 7.02541C29.5246 7.04963 29.5545 7.07096 29.5861 7.08916C29.9794 7.37963 30.318 7.75744 30.57 8.2133C30.8704 8.75658 31.0119 9.34494 31.0087 9.92463C31.0035 9.96525 31.0024 10.0064 31.0059 10.0477ZM33.6896 7.82978C33.6152 8.08853 33.4443 8.30291 33.2087 8.43322L32.1011 9.04564C32.0105 8.56752 31.8438 8.09533 31.5955 7.64635C31.3992 7.29127 31.163 6.97221 30.8966 6.69025L31.9291 6.11932C32.4153 5.85025 33.0303 6.02705 33.2993 6.51377L33.603 7.06291C33.7334 7.29861 33.7641 7.57096 33.6896 7.82978ZM10.2303 4.39189C10.2303 2.79854 11.5266 1.50236 13.1198 1.50236H17.9066C18.1744 1.50236 18.3955 1.7201 18.3998 1.98783C18.4101 2.64721 18.9347 3.17213 19.5939 3.18283C19.8513 3.18705 20.0606 3.39979 20.0606 3.65713V6.68877C20.0606 6.77666 20.0048 6.85518 19.9217 6.88408C19.7116 6.95768 19.4779 6.86228 19.3784 6.66268C19.1399 6.18439 18.6082 5.93854 18.0849 6.06502C17.2517 6.26611 15.6162 6.33768 14.0214 4.55486C13.0213 3.43729 11.1323 4.059 11.0584 5.57463C11.0541 5.66268 11.0566 5.58908 11.0577 7.12385L10.3693 6.88416C10.2863 6.85525 10.2305 6.77674 10.2305 6.68877V4.39189H10.2303ZM12.7415 15.8542C13.0513 15.4892 13.2509 15.0423 13.3143 14.5597C14.506 15.0289 15.7939 15.0271 16.977 14.5635C17.041 15.0446 17.2402 15.4903 17.5492 15.8542C16.0755 16.8741 14.2327 16.8862 12.7415 15.8542ZM17.789 12.7041C16.2161 14.0867 14.0887 14.07 12.534 12.7265C11.7984 12.0909 11.3616 11.1331 11.3352 10.0988C11.3272 9.78111 11.0673 9.52768 10.7495 9.52768C10.7494 9.52768 10.7493 9.52768 10.7491 9.52768L10.455 9.52783C10.4549 9.52783 10.4548 9.52783 10.4547 9.52783C10.1462 9.52783 9.89508 9.27689 9.89484 8.9683L9.89406 7.95541C9.98719 7.99533 9.95148 7.97783 10.8398 8.28869C11.5137 8.52346 12.2308 8.02424 12.2296 7.29947C12.228 5.58018 12.2269 5.6708 12.2287 5.63158C12.2512 5.1726 12.8388 4.99057 13.1478 5.33596C13.8698 6.14307 15.2697 7.34518 17.202 7.34502C17.5634 7.34502 17.9435 7.30299 18.3412 7.20838C18.6692 7.84119 19.3725 8.1758 20.0578 8.05439L20.0605 9.26736C20.0609 9.389 19.9668 9.48838 19.8505 9.48885L19.5491 9.49018C19.2304 9.49158 18.9712 9.74744 18.9658 10.0661C18.9482 11.1008 18.5192 12.0622 17.789 12.7041ZM31.4144 24.243C31.4144 23.7536 31.8125 23.3556 32.3017 23.3556H35.843C36.3323 23.3556 36.7303 23.7537 36.7303 24.243V24.4818H31.4143V24.243H31.4144ZM15.7662 23.7073C19.3116 20.8113 24.5753 21.8733 26.1275 22.2753C26.2076 22.296 26.2636 22.3688 26.2636 22.4524V24.4818H15.7662V23.7073ZM4.09695 22.4524C4.09695 22.3688 4.15289 22.296 4.23312 22.2753C5.785 21.8732 11.0487 20.8109 14.5944 23.7066V24.4817H4.09695V22.4524ZM5.21797 38.4978H3.95344C3.89984 38.4978 3.85625 38.4541 3.85625 38.4006V28.8042H5.21797V38.4978ZM33.6102 38.4978H6.38984V28.8042H33.6102V38.4978ZM38.813 27.4786C38.813 27.5635 38.7441 27.6324 38.6592 27.6324H1.32563C1.24086 27.6324 1.17188 27.5635 1.17188 27.4786V25.8074C1.17188 25.7226 1.24086 25.6536 1.32563 25.6536H38.6592C38.7441 25.6536 38.813 25.7226 38.813 25.8074V27.4786Z" fill="#FF6100"/>
</svg>
