<svg width="40" height="32" viewBox="0 0 40 32" fill="none" xmlns="http://www.w3.org/2000/svg">
<path d="M26.5 1.5V11L30.5 8.5L38 9L39.1875 8V1.5L38.5 0.5H27.5L26.5 1.5Z" fill="#FFEDE2"/>
<path d="M17.5 9.5L20 9L21 8.5L23 9.5L24 11V12.5L24.5 14L24 16L22 17.5L20.5 18H18.5L18 17.5L17 17C16.6667 16.8333 15.9 16.4 15.5 16C15.1 15.6 15.3333 14.8333 15.5 14.5L15 13.5L15.5 12L16 10.5L17.5 9.5Z" fill="#FFEDE2"/>
<path d="M12 25L11.5 26L16 26.5V27.1875L18.5 28H22.5L23 26.5L24 26L26 26.5L28 26L27.5 24.5L26.5 23L25.5 22L24 21H22.5H20H17L15.5 21.5L14 22L12.5 23L12 25Z" fill="#FFEDE2"/>
<path d="M37.4536 25.6663H36.6228V10.8069C36.6228 10.6277 36.5517 10.4559 36.425 10.3293C36.2984 10.2026 36.1266 10.1314 35.9474 10.1314C35.7683 10.1314 35.5965 10.2026 35.4698 10.3293C35.3432 10.4559 35.272 10.6277 35.272 10.8069V25.6663H28.4778C28.3102 24.1813 27.6021 22.8099 26.4884 21.8134C25.3747 20.8169 23.9333 20.265 22.4388 20.2629H17.0354C15.541 20.265 14.0996 20.8169 12.9859 21.8134C11.8722 22.8099 11.164 24.1813 10.9964 25.6663H4.20223V7.42973C4.20246 7.25067 4.2737 7.079 4.40031 6.95239C4.52693 6.82577 4.69859 6.75453 4.87766 6.7543H24.4651C24.6443 6.7543 24.8161 6.68314 24.9427 6.55647C25.0694 6.42981 25.1405 6.25801 25.1405 6.07887C25.1405 5.89974 25.0694 5.72794 24.9427 5.60127C24.8161 5.4746 24.6443 5.40344 24.4651 5.40344H4.87766C4.34043 5.40403 3.82538 5.61771 3.44551 5.99758C3.06563 6.37746 2.85196 6.89251 2.85137 7.42973V25.6663H2.02059C1.70028 25.6647 1.38428 25.7402 1.09924 25.8863C0.814206 26.0325 0.568488 26.245 0.382808 26.506C0.195397 26.7663 0.0722908 27.0672 0.0235698 27.3842C-0.0251511 27.7012 0.00189913 28.0252 0.102505 28.3297L0.55072 29.6868C0.686702 30.0891 0.945191 30.4388 1.28994 30.6868C1.6347 30.9348 2.04843 31.0687 2.47313 31.0698H37.0011C37.4269 31.0685 37.8416 30.9338 38.1868 30.6846C38.5321 30.4354 38.7906 30.0844 38.9261 29.6807L39.3718 28.3311C39.4727 28.0264 39.4999 27.7022 39.4512 27.3849C39.4026 27.0677 39.2794 26.7665 39.0919 26.506C38.9062 26.245 38.6604 26.0324 38.3752 25.8862C38.0901 25.7401 37.774 25.6647 37.4536 25.6663ZM17.0354 21.6138H22.4388C23.5754 21.6152 24.6735 22.0254 25.5327 22.7694C26.3919 23.5134 26.9548 24.5417 27.1187 25.6663H23.1143C22.9351 25.6663 22.7633 25.7375 22.6367 25.8642C22.51 25.9908 22.4388 26.1626 22.4388 26.3418V27.0172H17.0354V26.3418C17.0354 26.1626 16.9642 25.9908 16.8376 25.8642C16.7109 25.7375 16.5391 25.6663 16.36 25.6663H12.3555C12.5194 24.5417 13.0823 23.5134 13.9415 22.7694C14.8007 22.0254 15.8988 21.6152 17.0354 21.6138ZM38.0895 27.9047L38.0888 27.9063L37.6452 29.2509C37.6001 29.3864 37.5138 29.5043 37.3982 29.5882C37.2827 29.6722 37.1439 29.7179 37.0011 29.7189H2.47313C2.33146 29.7182 2.19354 29.6733 2.07855 29.5905C1.96356 29.5078 1.87719 29.3913 1.83147 29.2572L1.38474 27.9047C1.35041 27.8031 1.34099 27.6948 1.3573 27.5889C1.3736 27.4829 1.41515 27.3824 1.47842 27.2959C1.53985 27.2094 1.62116 27.1389 1.71552 27.0904C1.80987 27.0419 1.9145 27.0168 2.02059 27.0172H15.6845V27.6926C15.6845 27.8718 15.7557 28.0436 15.8824 28.1702C16.009 28.2969 16.1808 28.3681 16.36 28.3681H23.1143C23.2934 28.3681 23.4652 28.2969 23.5919 28.1702C23.7185 28.0436 23.7897 27.8718 23.7897 27.6926V27.0172H37.4536C37.5597 27.0168 37.6643 27.0419 37.7587 27.0904C37.8531 27.1389 37.9344 27.2094 37.9958 27.2959C38.0591 27.3824 38.1006 27.4829 38.1169 27.5889C38.1332 27.6948 38.1238 27.8031 38.0895 27.9047Z" fill="#FF6100"/>
<path d="M19.7374 8.1051C18.6687 8.1051 17.624 8.42201 16.7354 9.01575C15.8468 9.60948 15.1543 10.4534 14.7453 11.4407C14.3363 12.4281 14.2293 13.5145 14.4378 14.5627C14.6463 15.6109 15.1609 16.5737 15.9166 17.3293C16.6723 18.085 17.6351 18.5997 18.6833 18.8082C19.7314 19.0166 20.8179 18.9096 21.8052 18.5007C22.7926 18.0917 23.6365 17.3991 24.2302 16.5105C24.824 15.6219 25.1409 14.5772 25.1409 13.5085C25.1392 12.076 24.5694 10.7025 23.5564 9.68955C22.5434 8.67656 21.17 8.10675 19.7374 8.1051ZM19.7374 17.5611C18.9359 17.5611 18.1524 17.3234 17.4859 16.8781C16.8195 16.4328 16.3001 15.7999 15.9933 15.0594C15.6866 14.3189 15.6063 13.504 15.7627 12.7179C15.9191 11.9318 16.3051 11.2097 16.8718 10.6429C17.4386 10.0762 18.1607 9.6902 18.9468 9.53383C19.7329 9.37746 20.5478 9.45772 21.2883 9.76445C22.0288 10.0712 22.6617 10.5906 23.107 11.257C23.5523 11.9235 23.79 12.707 23.79 13.5085C23.7888 14.583 23.3615 15.6131 22.6017 16.3728C21.842 17.1326 20.8119 17.5599 19.7374 17.5611Z" fill="#FF6100"/>
<path d="M37.9741 0H27.8427C27.3055 0.000589974 26.7904 0.214263 26.4105 0.594138C26.0307 0.974013 25.817 1.48906 25.8164 2.02629V10.8069C25.8164 10.9264 25.8482 11.0437 25.9084 11.1469C25.9686 11.2502 26.0551 11.3356 26.159 11.3944C26.263 11.4533 26.3807 11.4836 26.5002 11.4821C26.6197 11.4806 26.7367 11.4474 26.8391 11.386L29.8898 9.55733C29.9953 9.49221 30.1165 9.45718 30.2405 9.45601H37.9741C38.5114 9.45543 39.0264 9.24175 39.4063 8.86188C39.7862 8.482 39.9998 7.96695 40.0004 7.42973V2.02629C39.9998 1.48906 39.7862 0.974013 39.4063 0.594138C39.0264 0.214263 38.5114 0.000589974 37.9741 0ZM38.6496 7.42973C38.6493 7.60879 38.5781 7.78045 38.4515 7.90707C38.3249 8.03369 38.1532 8.10492 37.9741 8.10516H30.2405C29.873 8.10705 29.5128 8.20786 29.1977 8.39701L27.1673 9.61434V2.02629C27.1675 1.84723 27.2387 1.67556 27.3654 1.54894C27.492 1.42233 27.6636 1.35109 27.8427 1.35086H37.9741C38.1532 1.35109 38.3249 1.42233 38.4515 1.54894C38.5781 1.67556 38.6493 1.84723 38.6496 2.02629V7.42973Z" fill="#FF6100"/>
<path d="M33.2454 4.05261H32.57C32.3908 4.05261 32.219 4.12377 32.0924 4.25044C31.9657 4.37711 31.8945 4.54891 31.8945 4.72804C31.8945 4.90718 31.9657 5.07898 32.0924 5.20564C32.219 5.33231 32.3908 5.40347 32.57 5.40347H33.2454C33.4245 5.40347 33.5963 5.33231 33.723 5.20564C33.8497 5.07898 33.9208 4.90718 33.9208 4.72804C33.9208 4.54891 33.8497 4.37711 33.723 4.25044C33.5963 4.12377 33.4245 4.05261 33.2454 4.05261Z" fill="#FF6100"/>
<path d="M29.8684 4.05261H29.193C29.0139 4.05261 28.8421 4.12377 28.7154 4.25044C28.5887 4.37711 28.5176 4.54891 28.5176 4.72804C28.5176 4.90718 28.5887 5.07898 28.7154 5.20564C28.8421 5.33231 29.0139 5.40347 29.193 5.40347H29.8684C30.0476 5.40347 30.2194 5.33231 30.346 5.20564C30.4727 5.07898 30.5439 4.90718 30.5439 4.72804C30.5439 4.54891 30.4727 4.37711 30.346 4.25044C30.2194 4.12377 30.0476 4.05261 29.8684 4.05261Z" fill="#FF6100"/>
<path d="M36.6233 4.05261H35.9479C35.7688 4.05261 35.597 4.12377 35.4703 4.25044C35.3436 4.37711 35.2725 4.54891 35.2725 4.72804C35.2725 4.90718 35.3436 5.07898 35.4703 5.20564C35.597 5.33231 35.7688 5.40347 35.9479 5.40347H36.6233C36.8025 5.40347 36.9743 5.33231 37.1009 5.20564C37.2276 5.07898 37.2987 4.90718 37.2987 4.72804C37.2987 4.54891 37.2276 4.37711 37.1009 4.25044C36.9743 4.12377 36.8025 4.05261 36.6233 4.05261Z" fill="#FF6100"/>
</svg>
