<svg width="20" height="20" viewBox="0 0 20 20" fill="none" xmlns="http://www.w3.org/2000/svg">
<path d="M15.4274 12.2459C15.0447 11.8475 14.5831 11.6344 14.0939 11.6344C13.6086 11.6344 13.143 11.8435 12.7445 12.242L11.4977 13.4848C11.3952 13.4296 11.2926 13.3783 11.1939 13.327C11.0519 13.256 10.9178 13.1889 10.8033 13.1179C9.63548 12.3761 8.57415 11.4095 7.55622 10.1588C7.06304 9.53541 6.73162 9.01067 6.49095 8.47803C6.81448 8.18212 7.11433 7.87437 7.4063 7.57846C7.51677 7.46799 7.62724 7.35357 7.73771 7.2431C8.56626 6.41455 8.56626 5.34139 7.73771 4.51284L6.6606 3.43573C6.53829 3.31342 6.41204 3.18716 6.29368 3.06091C6.05695 2.81629 5.80838 2.56378 5.55193 2.32705C5.16922 1.94829 4.71154 1.74707 4.2302 1.74707C3.74885 1.74707 3.28329 1.94829 2.88874 2.32705C2.8848 2.331 2.8848 2.331 2.88085 2.33494L1.53939 3.68824C1.03437 4.19326 0.746355 4.80875 0.683227 5.52288C0.588536 6.67495 0.927846 7.74812 1.18825 8.45041C1.82741 10.1746 2.78221 11.7725 4.20653 13.4848C5.93464 15.5483 8.0139 17.1778 10.3891 18.3259C11.2965 18.756 12.5078 19.2649 13.8611 19.3517C13.9439 19.3557 14.0307 19.3596 14.1096 19.3596C15.021 19.3596 15.7865 19.0321 16.3862 18.3811C16.3901 18.3732 16.398 18.3693 16.402 18.3614C16.6071 18.1128 16.8438 17.888 17.0924 17.6473C17.2621 17.4855 17.4357 17.3159 17.6053 17.1383C17.9959 16.7319 18.2011 16.2585 18.2011 15.7732C18.2011 15.284 17.992 14.8144 17.5935 14.4199L15.4274 12.2459ZM16.8399 16.4005C16.836 16.4045 16.836 16.4005 16.8399 16.4005C16.686 16.5662 16.5282 16.7162 16.3586 16.8819C16.1021 17.1265 15.8417 17.3829 15.5971 17.671C15.1986 18.0971 14.7291 18.2983 14.1136 18.2983C14.0544 18.2983 13.9913 18.2983 13.9321 18.2943C12.7603 18.2194 11.6713 17.7617 10.8546 17.3711C8.6215 16.29 6.6606 14.7553 5.03113 12.8101C3.68572 11.1886 2.78616 9.68929 2.19039 8.07954C1.82347 7.09712 1.68932 6.3317 1.7485 5.60968C1.78796 5.14806 1.9655 4.76535 2.29298 4.43788L3.63838 3.09247C3.83171 2.91098 4.03687 2.81234 4.23809 2.81234C4.48665 2.81234 4.68787 2.96227 4.81413 3.08853C4.81807 3.09247 4.82202 3.09642 4.82596 3.10036C5.06664 3.32526 5.29547 3.55804 5.53615 3.8066C5.65846 3.93286 5.78471 4.05911 5.91097 4.18931L6.98808 5.26642C7.4063 5.68464 7.4063 6.0713 6.98808 6.48952C6.87366 6.60393 6.76319 6.71835 6.64877 6.82882C6.31735 7.16813 6.00171 7.48377 5.65846 7.79152C5.65057 7.79941 5.64267 7.80335 5.63873 7.81125C5.29942 8.15056 5.36255 8.48197 5.43356 8.70687C5.43751 8.7187 5.44146 8.73054 5.4454 8.74237C5.72553 9.42099 6.12007 10.0602 6.71979 10.8216L6.72373 10.8256C7.81268 12.167 8.96081 13.2126 10.2273 14.0135C10.3891 14.1161 10.5548 14.1989 10.7126 14.2779C10.8546 14.3489 10.9888 14.4159 11.1032 14.487C11.119 14.4949 11.1348 14.5067 11.1505 14.5146C11.2847 14.5817 11.4109 14.6132 11.5411 14.6132C11.8686 14.6132 12.0738 14.4081 12.1409 14.341L13.4902 12.9916C13.6243 12.8575 13.8374 12.6957 14.086 12.6957C14.3306 12.6957 14.5318 12.8496 14.6541 12.9837C14.6581 12.9877 14.6581 12.9877 14.662 12.9916L16.836 15.1656C17.2423 15.568 17.2423 15.9823 16.8399 16.4005Z" fill="white"/>
<path d="M10.7568 5.11375C11.7905 5.28735 12.7295 5.77659 13.4792 6.52623C14.2288 7.27587 14.7141 8.21489 14.8916 9.2486C14.935 9.509 15.1599 9.69049 15.4164 9.69049C15.4479 9.69049 15.4756 9.68654 15.5071 9.6826C15.7991 9.63525 15.9924 9.35907 15.9451 9.06711C15.732 7.8164 15.1402 6.67616 14.2367 5.77265C13.3332 4.86913 12.1929 4.27731 10.9422 4.06426C10.6503 4.01691 10.378 4.21024 10.3267 4.49826C10.2754 4.78628 10.4648 5.06641 10.7568 5.11375Z" fill="white"/>
<path d="M19.3256 8.91275C18.9744 6.85322 18.0038 4.97912 16.5124 3.48774C15.021 1.99635 13.147 1.02577 11.0874 0.674624C10.7994 0.623333 10.5272 0.820606 10.4759 1.10863C10.4285 1.40059 10.6219 1.67283 10.9138 1.72412C12.7524 2.03581 14.4292 2.90776 15.7628 4.23738C17.0964 5.57094 17.9644 7.24777 18.2761 9.08635C18.3195 9.34675 18.5443 9.52824 18.8008 9.52824C18.8324 9.52824 18.86 9.5243 18.8915 9.52035C19.1796 9.47695 19.3768 9.20077 19.3256 8.91275Z" fill="white"/>
</svg>
