<svg width="29" height="52" viewBox="0 0 29 52" fill="none" xmlns="http://www.w3.org/2000/svg">
<path d="M5 7.5166L4 12.5166L5 15.5166L7 18.0166L9.5 20.5166L14 21.5166L19 20.5166L22 18.0166L24 15.5166L24.5 11.5166L24 7.5166L22 4.5166L19 2.0166L14 1.0166L9.5 2.0166L7 4.0166L5 7.5166Z" fill="#FFEDE2"/>
<path d="M20.7324 44.9986L20.3241 42.9681C20.243 42.5661 19.8867 42.2744 19.4768 42.2744H9.40554C8.99557 42.2744 8.6393 42.5661 8.55822 42.9683L8.14994 44.9985C8.14994 44.9985 8.14984 44.9988 8.14984 44.999C8.09871 45.254 8.16398 45.5157 8.32881 45.7168C8.49365 45.9179 8.73739 46.0333 8.99735 46.0333H19.8849C20.145 46.0333 20.3887 45.9179 20.5535 45.7168C20.7183 45.5157 20.7836 45.254 20.7324 44.9986ZM9.7542 44.5491L9.9133 43.7585H18.9692L19.1282 44.5491H9.7542Z" fill="#FF6100"/>
<path d="M28.0103 12.8333C27.7526 12.5516 27.3857 12.3902 27.0039 12.3902H25.3507C25.3789 12.0925 25.395 11.7915 25.3988 11.4876L25.3994 11.452C25.3997 11.4302 25.3999 11.4084 25.4001 11.3866C25.4001 11.3737 25.4006 11.3608 25.4006 11.3479C25.4006 11.1983 25.3967 11.0496 25.3908 10.9015C25.3902 10.8862 25.3897 10.8708 25.389 10.8554C25.3823 10.7036 25.3723 10.5527 25.3594 10.4026C25.3592 10.4005 25.359 10.3982 25.3588 10.396C25.2485 9.11916 24.9185 7.9042 24.4065 6.7894C24.3992 6.77348 24.3916 6.75766 24.3843 6.74184C24.3322 6.63 24.2787 6.51896 24.223 6.4092C24.195 6.35373 24.1659 6.29875 24.137 6.24377C24.1058 6.18493 24.0744 6.1263 24.0422 6.06806C23.7156 5.47338 23.335 4.90659 22.8995 4.37866C22.8809 4.35601 22.8605 4.33535 22.8396 4.31537C21.6621 2.91145 20.1401 1.80605 18.4047 1.13058C18.3948 1.12633 18.3857 1.12089 18.3756 1.11704C17.6429 0.835124 16.887 0.634888 16.1155 0.516427C16.1087 0.51534 16.1018 0.514351 16.095 0.513362C16.0155 0.501298 15.9359 0.490125 15.856 0.479841C15.8407 0.477863 15.8252 0.475985 15.8099 0.474007C15.7382 0.465108 15.6664 0.456802 15.5945 0.449287C15.5735 0.447111 15.5524 0.444837 15.5314 0.44276C15.4648 0.436234 15.3981 0.430301 15.3312 0.424962C15.3061 0.422885 15.2811 0.420809 15.256 0.41893C15.1924 0.414282 15.1286 0.410327 15.0648 0.406767C15.0374 0.405185 15.0102 0.403504 14.9829 0.40212C14.918 0.398956 14.8529 0.396681 14.788 0.394704C14.7625 0.393913 14.7371 0.392726 14.7116 0.392133C14.6215 0.389957 14.5315 0.388672 14.4413 0.388672C14.3511 0.388672 14.261 0.389957 14.1711 0.392133C14.1456 0.392726 14.1203 0.393913 14.0949 0.394704C14.0298 0.396681 13.9648 0.398956 13.8999 0.40212C13.8725 0.403504 13.8453 0.405284 13.818 0.406767C13.7541 0.410327 13.6904 0.414282 13.6267 0.41893C13.6017 0.420809 13.5767 0.422885 13.5516 0.424962C13.4848 0.430301 13.418 0.436234 13.3513 0.44276C13.3303 0.444837 13.3094 0.447012 13.2884 0.449188C13.2163 0.456703 13.1444 0.465009 13.0727 0.473908C13.0574 0.475787 13.0422 0.477765 13.027 0.479643C12.947 0.489927 12.8672 0.5012 12.7875 0.513263C12.7809 0.514252 12.7741 0.515241 12.7675 0.51623C11.9959 0.63469 11.24 0.834926 10.5073 1.11684C10.4971 1.12079 10.4879 1.12613 10.4779 1.13048C8.74301 1.80585 7.22141 2.91085 6.04403 4.31429C6.02286 4.33456 6.0022 4.35552 5.98321 4.37846C5.54665 4.90777 5.16516 5.47605 4.83806 6.07251C4.8084 6.1262 4.77942 6.18039 4.75065 6.23457C4.71881 6.29509 4.68687 6.35551 4.65612 6.41662C4.60272 6.52212 4.55121 6.62872 4.50117 6.7361C4.49257 6.75479 4.48357 6.77328 4.47497 6.79207C3.96434 7.90479 3.63506 9.11708 3.52431 10.3911C3.52382 10.3962 3.52343 10.4015 3.52293 10.4066C3.51027 10.5541 3.50048 10.7026 3.49386 10.8517C3.49297 10.8702 3.49248 10.8887 3.49178 10.9072C3.48595 11.0534 3.48219 11.2001 3.48219 11.3477C3.48219 11.3825 3.48278 11.4172 3.48328 11.4518L3.48397 11.4909C3.48397 11.4913 3.48407 11.4917 3.48407 11.4921C3.48803 11.7945 3.50404 12.0939 3.53213 12.39H1.87882C1.49694 12.39 1.13019 12.5514 0.8724 12.8331C0.615505 13.1138 0.487354 13.4919 0.520875 13.8706C0.60087 14.7724 0.783407 16.2076 1.44226 18.2509C1.54361 18.5654 1.83482 18.7656 2.14827 18.7655C2.22372 18.7655 2.30055 18.7539 2.3762 18.7295C2.76629 18.6037 2.98047 18.1855 2.85469 17.7955C2.27385 15.9936 2.09181 14.7103 2.01162 13.8741H3.77666C4.05679 15.0567 4.52915 16.1657 5.15874 17.1664C5.16951 17.1876 5.18009 17.2091 5.19315 17.2295C6.39239 19.1115 8.12549 20.5702 10.1529 21.4324C10.1776 21.443 10.2024 21.4532 10.2271 21.4636C10.3455 21.5129 10.4647 21.5604 10.5851 21.6056C10.6438 21.6277 10.7028 21.6495 10.7621 21.6706C10.8377 21.6976 10.9136 21.7241 10.99 21.7494C11.085 21.7811 11.1807 21.8113 11.277 21.8403C11.3067 21.8493 11.3358 21.8597 11.3657 21.8684C11.3723 21.8704 11.379 21.871 11.3856 21.8728C12.356 22.155 13.3812 22.3067 14.4414 22.3067C15.5016 22.3067 16.5269 22.1549 17.4972 21.8727C17.5039 21.871 17.5106 21.8703 17.5171 21.8684C17.5467 21.8598 17.5756 21.8494 17.6051 21.8405C17.7021 21.8113 17.7986 21.7808 17.8944 21.7489C17.9698 21.7238 18.0446 21.6977 18.1193 21.6711C18.1795 21.6496 18.2394 21.6276 18.2992 21.6051C18.4182 21.5603 18.5363 21.5133 18.6535 21.4646C18.6794 21.4537 18.7054 21.443 18.7312 21.4319C20.7581 20.5696 22.4906 19.1111 23.6896 17.2295C23.7024 17.2094 23.7127 17.1883 23.7233 17.1675C24.3532 16.1665 24.8259 15.0571 25.1061 13.8741H26.8709C26.7896 14.723 26.6038 16.0271 26.0065 17.8611C25.8796 18.2508 26.0927 18.6697 26.4824 18.7965C26.5588 18.8215 26.6362 18.8332 26.7124 18.8332C27.025 18.8332 27.3159 18.6341 27.418 18.3207C28.0945 16.2429 28.2807 14.7858 28.3619 13.8704C28.3953 13.4921 28.2672 13.1139 28.0103 12.8333ZM22.6103 6.55287C22.6277 6.58244 22.6455 6.61171 22.6626 6.64147C22.7058 6.71702 22.7483 6.79306 22.7893 6.86969C22.813 6.91369 22.8364 6.9579 22.8594 7.00229C22.9129 7.10612 22.965 7.21064 23.0145 7.31634C23.0239 7.33632 23.0333 7.35629 23.0426 7.37636C23.4163 8.1867 23.6756 9.04806 23.8097 9.93355L22.0192 8.6115L22.6103 6.55287ZM21.5015 5.03632L20.5629 8.30546L18.5901 9.07397L15.1834 6.70723V4.74571L18.199 2.6507C19.4671 3.20068 20.592 4.02001 21.5015 5.03632ZM17.5788 10.1786L16.3897 13.678H12.4929L11.304 10.1786L14.4413 7.99883L17.5788 10.1786ZM12.9931 1.98344C13.0102 1.98087 13.0273 1.97859 13.0444 1.97602C13.1033 1.96722 13.1623 1.95882 13.2217 1.95111C13.2698 1.94488 13.3181 1.93954 13.3663 1.9342C13.3954 1.93093 13.4243 1.92728 13.4534 1.92421C14.1085 1.85667 14.7729 1.85657 15.428 1.92411C15.4611 1.92757 15.4941 1.93172 15.5271 1.93548C15.5714 1.94053 15.6157 1.94537 15.6599 1.95111C15.7218 1.95912 15.7834 1.96792 15.8449 1.97711C15.8594 1.97929 15.8741 1.98117 15.8885 1.98344C16.0667 2.01093 16.2431 2.04376 16.4179 2.08104L14.4413 3.45411L12.4647 2.08094C12.6392 2.04366 12.8152 2.01083 12.9931 1.98344ZM10.6837 2.6507L13.6993 4.74581V6.70723L10.2961 9.0715L8.31861 8.30111L7.38111 5.03642C8.29052 4.02001 9.4155 3.20068 10.6837 2.6507ZM5.67154 7.7622C5.72424 7.63316 5.78051 7.5055 5.83885 7.37884C5.84893 7.35698 5.85912 7.33513 5.8695 7.31338C5.91835 7.20945 5.96947 7.10671 6.02207 7.00457C6.046 6.95839 6.07023 6.91241 6.09495 6.86673C6.13272 6.79622 6.17178 6.72641 6.21143 6.6568C6.23141 6.62189 6.25188 6.58738 6.27224 6.55287L6.86336 8.6114L5.07291 9.93345C5.18593 9.18729 5.38735 8.45813 5.67154 7.7622ZM7.34373 17.6174L9.60941 17.6828L10.3625 19.899C9.20815 19.3461 8.18274 18.5661 7.34373 17.6174ZM9.75645 16.2023L6.24743 16.1009C5.51214 14.8382 5.06005 13.3913 4.97946 11.8475L7.86454 9.7171L9.84099 10.487L11.1279 14.2746L9.75645 16.2023ZM16.7341 20.5418C15.9996 20.725 15.2316 20.8229 14.4413 20.8229C13.6509 20.8229 12.8829 20.725 12.1484 20.5418L10.9661 17.0623L12.3179 15.1623H16.564L17.9162 17.0629L16.7341 20.5418ZM18.5201 19.899L19.2731 17.6828L21.5389 17.6174C20.6999 18.5661 19.6744 19.3461 18.5201 19.899ZM22.6352 16.1009L19.1254 16.2023L17.7543 14.2751L19.04 10.4914L21.0214 9.71957L23.9031 11.8475C23.8226 13.3914 23.3705 14.8382 22.6352 16.1009Z" fill="#FF6100"/>
<path d="M24.8421 47.0224H23.7837L22.4282 40.8813C22.298 40.2545 21.7406 39.8004 21.0997 39.8004H18.5868C18.8542 36.3845 19.6806 31.9215 22.0062 28.6119C23.6946 26.209 25.0764 23.855 26.1132 21.6153C26.2853 21.2434 26.1234 20.8023 25.7514 20.6302C25.3797 20.4581 24.9385 20.6199 24.7662 20.9919C23.7667 23.1513 22.4294 25.4279 20.7918 27.7585C18.2501 31.3757 17.3712 36.1777 17.0982 39.8002H15.1838V29.0358C15.1838 28.6259 14.8516 28.2937 14.4417 28.2937C14.0318 28.2937 13.6996 28.6259 13.6996 29.0358V39.8002H11.7853C11.5121 36.1776 10.6334 31.3757 8.09161 27.7585C6.44632 25.4169 5.10459 23.1305 4.10361 20.9625C3.93185 20.5904 3.49093 20.4278 3.11874 20.5999C2.74665 20.7717 2.58419 21.2126 2.75604 21.5848C3.7943 23.8333 5.18082 26.1976 6.87714 28.6119C9.20275 31.9215 10.029 36.3844 10.2965 39.8004H7.7836C7.14274 39.8004 6.58544 40.2545 6.45512 40.8813L5.09964 47.0224H4.04121C3.32007 47.0224 2.7335 47.6091 2.7335 48.3302V49.7087C2.7335 50.4298 3.32016 51.0165 4.04121 51.0165H24.8421C25.5633 51.0165 26.1498 50.4298 26.1498 49.7087V48.3302C26.1498 47.6091 25.5632 47.0224 24.8421 47.0224ZM7.88604 41.2844H20.9974L22.2639 47.0222H6.61956L7.88604 41.2844ZM24.6657 49.5322H4.21772V48.5065H24.6657V49.5322Z" fill="#FF6100"/>
</svg>
