<svg width="27" height="50" viewBox="0 0 27 50" fill="none" xmlns="http://www.w3.org/2000/svg">
<path d="M12 12.5L13 10L15 12.5L17.5 13.5L16 15.5V18.5L13 17.5L10.5 18.5V15L8.5 12.5H12Z" fill="#FFEDE2"/>
<path d="M22.5 37.5V39.5L25 40L25.5 41V49H1V41L2 40L4 39.5V38.5L5 36.5H20.5L22.5 37.5Z" fill="#FFEDE2"/>
<path d="M24.2188 39.0628H23.4375V38.2815C23.4375 37.6599 23.1906 37.0638 22.751 36.6242C22.3115 36.1847 21.7154 35.9378 21.0938 35.9378H20.4211L20.9172 32.1323C20.9402 31.9287 20.8823 31.7242 20.7559 31.5629C20.6295 31.4016 20.4449 31.2964 20.2417 31.2699C20.0385 31.2435 19.833 31.2979 19.6696 31.4215C19.5062 31.5452 19.3978 31.728 19.368 31.9307L18.8453 35.9378H7.70156L3.25312 7.02215C10.1973 6.87947 17.0251 5.21171 23.2531 2.13699L19.775 28.8057C19.7483 29.0113 19.8043 29.219 19.9307 29.3833C20.0572 29.5475 20.2437 29.6548 20.4492 29.6815C20.6548 29.7083 20.8625 29.6522 21.0267 29.5258C21.191 29.3994 21.2983 29.2128 21.325 29.0073L24.9969 0.882301C25.0156 0.74128 24.9955 0.597813 24.9387 0.467381C24.8819 0.336948 24.7906 0.2245 24.6746 0.142169C24.5586 0.0598377 24.4223 0.0107489 24.2804 0.00019851C24.1385 -0.0103519 23.9965 0.0180366 23.8695 0.0823012L22.7148 0.660426C16.3867 3.81441 9.41428 5.46027 2.34375 5.46902C2.23114 5.46906 2.11987 5.49345 2.01756 5.54051C1.91526 5.58757 1.82433 5.65619 1.75102 5.74167C1.67771 5.82715 1.62375 5.92747 1.59283 6.03575C1.56191 6.14403 1.55476 6.25772 1.57187 6.36902L6.12031 35.9378H5.46875C4.84715 35.9378 4.25101 36.1847 3.81147 36.6242C3.37193 37.0638 3.125 37.6599 3.125 38.2815V39.0628H2.34375C1.72215 39.0628 1.12601 39.3097 0.686468 39.7492C0.24693 40.1888 0 40.7849 0 41.4065V49.219C0 49.4262 0.0823102 49.6249 0.228823 49.7714C0.375336 49.918 0.57405 50.0003 0.78125 50.0003H25.7812C25.9885 50.0003 26.1872 49.918 26.3337 49.7714C26.4802 49.6249 26.5625 49.4262 26.5625 49.219V41.4065C26.5625 40.7849 26.3156 40.1888 25.876 39.7492C25.4365 39.3097 24.8404 39.0628 24.2188 39.0628ZM25 48.4378H1.5625V41.4065C1.5625 41.1993 1.64481 41.0006 1.79132 40.8541C1.93783 40.7076 2.13655 40.6253 2.34375 40.6253H7.03125C7.23845 40.6253 7.43716 40.543 7.58368 40.3964C7.73019 40.2499 7.8125 40.0512 7.8125 39.844C7.8125 39.6368 7.73019 39.4381 7.58368 39.2916C7.43716 39.1451 7.23845 39.0628 7.03125 39.0628H4.6875V38.2815C4.6875 38.0743 4.76981 37.8756 4.91632 37.7291C5.06284 37.5826 5.26155 37.5003 5.46875 37.5003H21.0938C21.301 37.5003 21.4997 37.5826 21.6462 37.7291C21.7927 37.8756 21.875 38.0743 21.875 38.2815V39.0628H10.1562C9.94905 39.0628 9.75033 39.1451 9.60382 39.2916C9.45731 39.4381 9.375 39.6368 9.375 39.844C9.375 40.0512 9.45731 40.2499 9.60382 40.3964C9.75033 40.543 9.94905 40.6253 10.1562 40.6253H24.2188C24.426 40.6253 24.6247 40.7076 24.7712 40.8541C24.9177 41.0006 25 41.1993 25 41.4065V48.4378Z" fill="#FF6100"/>
<path d="M17.9688 43.75H8.59375C8.38655 43.75 8.18784 43.8323 8.04132 43.9788C7.89481 44.1253 7.8125 44.324 7.8125 44.5312C7.8125 44.7385 7.89481 44.9372 8.04132 45.0837C8.18784 45.2302 8.38655 45.3125 8.59375 45.3125H17.9688C18.176 45.3125 18.3747 45.2302 18.5212 45.0837C18.6677 44.9372 18.75 44.7385 18.75 44.5312C18.75 44.324 18.6677 44.1253 18.5212 43.9788C18.3747 43.8323 18.176 43.75 17.9688 43.75Z" fill="#FF6100"/>
<path d="M18.953 12.7148C18.9078 12.5763 18.8249 12.4531 18.7135 12.3593C18.6021 12.2654 18.4667 12.2045 18.3225 12.1836L15.3233 11.7469L13.9842 9.02967C13.9126 8.90765 13.8103 8.80648 13.6875 8.73618C13.5647 8.66589 13.4257 8.62891 13.2842 8.62891C13.1427 8.62891 13.0037 8.66589 12.8809 8.73618C12.7581 8.80648 12.6558 8.90765 12.5842 9.02967L11.242 11.7469L8.2428 12.1836C8.09872 12.2048 7.96344 12.2658 7.85221 12.3598C7.74098 12.4538 7.65823 12.577 7.61331 12.7155C7.56838 12.854 7.56306 13.0023 7.59795 13.1437C7.63284 13.2851 7.70655 13.4139 7.81076 13.5156L9.9803 15.6312L9.4678 18.6179C9.44318 18.7616 9.45925 18.9093 9.51419 19.0443C9.56912 19.1794 9.66074 19.2963 9.77868 19.382C9.89661 19.4676 10.0362 19.5186 10.1816 19.5291C10.3269 19.5396 10.4724 19.5092 10.6014 19.4414L13.2811 18.0312L15.9639 19.4414C16.0929 19.5092 16.2383 19.5396 16.3837 19.5291C16.5291 19.5186 16.6687 19.4676 16.7866 19.382C16.9045 19.2963 16.9962 19.1794 17.0511 19.0443C17.106 18.9093 17.1221 18.7616 17.0975 18.6179L16.585 15.6312L18.7545 13.5156C18.859 13.4139 18.933 13.2851 18.9681 13.1435C19.0031 13.002 18.9979 12.8535 18.953 12.7148ZM15.203 14.7984C15.1121 14.8867 15.044 14.9958 15.0047 15.1162C14.9654 15.2367 14.9559 15.3649 14.9772 15.4898L15.2897 17.3219L13.6444 16.457C13.5323 16.3982 13.4076 16.3674 13.2811 16.3674C13.1545 16.3674 13.0298 16.3982 12.9178 16.457L11.2725 17.3219L11.585 15.4898C11.6062 15.3649 11.5968 15.2367 11.5575 15.1162C11.5181 14.9958 11.4501 14.8867 11.3592 14.7984L10.0311 13.5015L11.8701 13.2336C11.9954 13.2154 12.1144 13.1672 12.2169 13.0928C12.3194 13.0185 12.4023 12.9204 12.4584 12.807L13.2811 11.1406L14.1037 12.807C14.1599 12.9204 14.2428 13.0185 14.3453 13.0928C14.4477 13.1672 14.5667 13.2154 14.692 13.2336L16.5311 13.5015L15.203 14.7984Z" fill="#FF6100"/>
<path d="M17.9688 24.2188C17.9688 24.0115 17.8864 23.8128 17.7399 23.6663C17.5934 23.5198 17.3947 23.4375 17.1875 23.4375H9.375C9.1678 23.4375 8.96909 23.5198 8.82257 23.6663C8.67606 23.8128 8.59375 24.0115 8.59375 24.2188C8.59375 24.426 8.67606 24.6247 8.82257 24.7712C8.96909 24.9177 9.1678 25 9.375 25H17.1875C17.3947 25 17.5934 24.9177 17.7399 24.7712C17.8864 24.6247 17.9688 24.426 17.9688 24.2188Z" fill="#FF6100"/>
<path d="M10.9375 26.5625C10.7303 26.5625 10.5316 26.6448 10.3851 26.7913C10.2386 26.9378 10.1562 27.1365 10.1562 27.3438C10.1562 27.551 10.2386 27.7497 10.3851 27.8962C10.5316 28.0427 10.7303 28.125 10.9375 28.125H15.625C15.8322 28.125 16.0309 28.0427 16.1774 27.8962C16.3239 27.7497 16.4062 27.551 16.4062 27.3438C16.4062 27.1365 16.3239 26.9378 16.1774 26.7913C16.0309 26.6448 15.8322 26.5625 15.625 26.5625H10.9375Z" fill="#FF6100"/>
</svg>
