<svg width="47" height="50" viewBox="0 0 47 50" fill="none" xmlns="http://www.w3.org/2000/svg">
<path d="M21.5 16.5L23.5 13.5L26.5 16.5L29.5 17.5V19.5L27.5 22L28 24.5L26.5 26L23.5 24.5L20 26L19 24.5V21.5L17.5 19.5V16.5H21.5Z" fill="#FFEDE2"/>
<path d="M5.5 3L6.5 7L9 8L40 7.5L41.5 5.5V3L39 1H7.5L5.5 3Z" fill="#FFEDE2"/>
<path d="M13.5 49V39.5H10L7.5 40.5V47.5L9 49H13.5Z" fill="#FFEDE2"/>
<path d="M34 49V39.5L38.5 40L39.5 41.5V47L39 49H34Z" fill="#FFEDE2"/>
<path d="M18.9558 45.2349H27.8779C28.1229 45.2349 28.3578 45.1376 28.531 44.9644C28.7042 44.7912 28.8015 44.5563 28.8015 44.3113C28.8015 44.0663 28.7042 43.8314 28.531 43.6582C28.3578 43.485 28.1229 43.3877 27.8779 43.3877H18.9558C18.7109 43.3877 18.476 43.485 18.3027 43.6582C18.1295 43.8314 18.0322 44.0663 18.0322 44.3113C18.0322 44.5563 18.1295 44.7912 18.3027 44.9644C18.476 45.1376 18.7109 45.2349 18.9558 45.2349Z" fill="#FF6100"/>
<path d="M9.7102 28.9232H11.7421C13.0518 30.7492 14.7689 32.245 16.7574 33.2919V38.6211H9.28534C8.51692 38.6235 7.78067 38.9299 7.23732 39.4732C6.69397 40.0166 6.38763 40.7528 6.3852 41.5212V47.0629C6.38154 47.4465 6.45379 47.8271 6.59779 48.1827C6.74178 48.5382 6.95468 48.8618 7.22422 49.1348C7.49377 49.4078 7.81464 49.6248 8.16837 49.7733C8.5221 49.9217 8.90171 49.9988 9.28534 50H37.5478C38.3163 49.9976 39.0525 49.6912 39.5959 49.1479C40.1392 48.6045 40.4455 47.8683 40.448 47.0999V41.5582C40.4455 40.7898 40.1392 40.0535 39.5959 39.5102C39.0525 38.9668 38.3163 38.6605 37.5478 38.6581H30.0758V33.2919C32.0642 32.245 33.7814 30.7492 35.091 28.9232H37.123C39.4952 28.9566 41.7865 28.0609 43.5073 26.4277C45.2281 24.7944 46.2421 22.553 46.3325 20.1822C46.4229 17.8114 45.5827 15.4993 43.9914 13.7397C42.4 11.98 40.1836 10.9125 37.8157 10.765V8.82542H38.1944C39.3481 8.82542 40.4546 8.36709 41.2704 7.55127C42.0863 6.73545 42.5446 5.62896 42.5446 4.47521C42.5446 3.32146 42.0863 2.21497 41.2704 1.39915C40.4546 0.583324 39.3481 0.125 38.1944 0.125H8.63881C7.48506 0.125 6.37857 0.583324 5.56275 1.39915C4.74693 2.21497 4.2886 3.32146 4.2886 4.47521C4.2886 5.62896 4.74693 6.73545 5.56275 7.55127C6.37857 8.36709 7.48506 8.82542 8.63881 8.82542H8.99902V10.765C6.6311 10.9125 4.41473 11.98 2.82335 13.7397C1.23197 15.4993 0.391757 17.8114 0.482199 20.1822C0.57264 22.553 1.58656 24.7944 3.30738 26.4277C5.02819 28.0609 7.31946 28.9566 9.69173 28.9232H9.7102ZM9.30381 23.3353C8.46081 23.2448 7.67838 22.8545 7.09899 22.2355C6.5196 21.6165 6.18181 20.81 6.14712 19.9629C6.11242 19.1158 6.38315 18.2843 6.90998 17.62C7.43682 16.9558 8.18472 16.5028 9.01749 16.3436V20.5368C9.01849 21.4769 9.11442 22.4145 9.30381 23.3353ZM32.7635 40.4683V48.1528H14.0696V40.4683H32.7635ZM8.23242 47.0999V41.5582C8.23242 41.2789 8.34335 41.0111 8.54081 40.8137C8.73827 40.6162 9.00609 40.5053 9.28534 40.5053H12.2224V48.1528H9.28534C9.00609 48.1528 8.73827 48.0418 8.54081 47.8444C8.34335 47.6469 8.23242 47.3791 8.23242 47.0999ZM38.6008 41.5582V47.0999C38.6008 47.3791 38.4898 47.6469 38.2924 47.8444C38.0949 48.0418 37.8271 48.1528 37.5478 48.1528H34.6108V40.4683H37.5478C37.8271 40.4683 38.0949 40.5793 38.2924 40.7767C38.4898 40.9742 38.6008 41.242 38.6008 41.5212V41.5582ZM28.2286 38.6211H18.6046V34.0862C21.7125 35.2193 25.1207 35.2193 28.2286 34.0862V38.6211ZM37.8157 16.3436C38.6485 16.5028 39.3964 16.9558 39.9232 17.62C40.45 18.2843 40.7207 19.1158 40.6861 19.9629C40.6514 20.81 40.3136 21.6165 39.7342 22.2355C39.1548 22.8545 38.3724 23.2448 37.5294 23.3353C37.7169 22.4236 37.8128 21.4954 37.8157 20.5645V16.3436ZM44.3733 19.8256C44.3709 21.7478 43.6062 23.5905 42.247 24.9497C40.8879 26.3089 39.0451 27.0735 37.123 27.076H36.1994C36.5043 26.4795 36.7666 25.8622 36.9844 25.2288H37.0953C38.4771 25.2456 39.8126 24.7315 40.8265 23.7925C41.8403 22.8535 42.4551 21.5611 42.5439 20.1821C42.6328 18.803 42.1889 17.4425 41.304 16.3811C40.4191 15.3197 39.1605 14.6385 37.788 14.4779V12.6307C39.5823 12.8001 41.2497 13.6301 42.4666 14.9597C43.6834 16.2892 44.363 18.0233 44.3733 19.8256ZM6.1543 4.47521C6.15668 3.8153 6.41863 3.18283 6.88353 2.71447C7.34842 2.24612 7.97894 1.9795 8.63881 1.97222H38.1944C38.8582 1.97222 39.4948 2.23593 39.9642 2.70533C40.4336 3.17473 40.6973 3.81138 40.6973 4.47521C40.6973 5.13904 40.4336 5.77569 39.9642 6.24509C39.4948 6.71449 38.8582 6.97819 38.1944 6.97819H8.63881C7.97818 6.97332 7.34627 6.70746 6.88086 6.23859C6.41545 5.76971 6.15428 5.13585 6.1543 4.47521ZM35.9685 8.82542V20.5368C35.9685 23.8658 34.646 27.0584 32.2921 29.4123C29.9382 31.7663 26.7456 33.0887 23.4166 33.0887C20.0876 33.0887 16.895 31.7663 14.5411 29.4123C12.1871 27.0584 10.8647 23.8658 10.8647 20.5368V8.82542H35.9685ZM9.01749 12.6122V14.4594C7.64495 14.62 6.3864 15.3013 5.50146 16.3627C4.61652 17.424 4.1727 18.7846 4.26155 20.1636C4.35041 21.5427 4.96516 22.835 5.979 23.774C6.99283 24.7131 8.3284 25.2272 9.7102 25.2103H9.82103C10.0389 25.8437 10.3012 26.461 10.6061 27.0575H9.68249C7.8261 27.0479 6.0441 26.3267 4.70369 25.0423C3.36328 23.758 2.56659 22.0084 2.47778 20.1541C2.38898 18.2998 3.01482 16.4821 4.22636 15.0755C5.43789 13.6689 7.1428 12.7807 8.98978 12.5938L9.01749 12.6122Z" fill="#FF6100"/>
<path d="M18.3181 21.6827L17.9948 23.8624C17.9103 24.425 18.0282 24.9993 18.3276 25.4831C18.627 25.9669 19.0884 26.3286 19.6296 26.5039C19.8734 26.5878 20.1292 26.6315 20.387 26.6332C20.7621 26.63 21.1317 26.5416 21.4676 26.3746L23.4164 25.3863L25.356 26.3654C25.7991 26.5949 26.3033 26.6789 26.7968 26.6055C27.1136 26.5593 27.418 26.4507 27.6925 26.2861C27.967 26.1214 28.206 25.9039 28.3959 25.6462C28.5857 25.3885 28.7226 25.0957 28.7985 24.7847C28.8743 24.4738 28.8878 24.1509 28.838 23.8347L28.5148 21.6549L30.0202 20.1402C30.332 19.8253 30.5517 19.4311 30.6555 19.0002C30.7594 18.5694 30.7433 18.1184 30.6092 17.696C30.4751 17.2736 30.2279 16.896 29.8946 16.604C29.5612 16.312 29.1543 16.1167 28.718 16.0394L26.5659 15.6607L25.5684 13.795C25.3074 13.2893 24.8757 12.8922 24.35 12.6742C23.8243 12.4561 23.2384 12.4311 22.696 12.6036C22.3896 12.6959 22.1049 12.8489 21.859 13.0536C21.613 13.2583 21.4108 13.5105 21.2644 13.795L20.2669 15.6884L18.1149 16.0671C17.628 16.1493 17.1791 16.3818 16.8311 16.7321C16.6057 16.9569 16.4269 17.2239 16.3049 17.5179C16.1829 17.8119 16.1201 18.1271 16.1201 18.4454C16.1201 18.7637 16.1829 19.0789 16.3049 19.3729C16.4269 19.6669 16.6057 19.9339 16.8311 20.1587L18.3181 21.6827ZM18.4382 17.8866L21.0335 17.4248C21.1722 17.4001 21.3034 17.3439 21.4171 17.2607C21.5307 17.1774 21.6238 17.0693 21.6893 16.9445L22.8992 14.654C22.9475 14.5586 23.0215 14.4786 23.113 14.4231C23.2044 14.3676 23.3095 14.3388 23.4164 14.3399C23.5229 14.3408 23.6272 14.3705 23.7183 14.4258C23.8093 14.481 23.8837 14.5599 23.9336 14.654L25.1436 16.9445C25.209 17.0693 25.3021 17.1774 25.4158 17.2607C25.5294 17.3439 25.6606 17.4001 25.7993 17.4248L28.3947 17.8866C28.4987 17.9052 28.5957 17.9519 28.6753 18.0215C28.7548 18.0911 28.8139 18.181 28.8462 18.2817C28.8785 18.3823 28.8828 18.4899 28.8585 18.5927C28.8343 18.6956 28.7825 18.79 28.7087 18.8656L26.8615 20.7129C26.7604 20.8146 26.6844 20.9386 26.6395 21.0749C26.5946 21.2111 26.5821 21.356 26.6029 21.4979L27.0093 24.1395C27.0225 24.2414 27.008 24.345 26.9673 24.4394C26.9266 24.5339 26.8613 24.6156 26.7782 24.676C26.695 24.7365 26.5972 24.7735 26.4948 24.7831C26.3925 24.7927 26.2894 24.7745 26.1965 24.7306L23.8321 23.5391C23.7031 23.4741 23.5608 23.4403 23.4164 23.4403C23.2721 23.4403 23.1297 23.4741 23.0008 23.5391L20.6456 24.7213C20.5529 24.7687 20.4489 24.7895 20.3451 24.7814C20.2414 24.7733 20.1419 24.7366 20.0577 24.6754C19.9735 24.6141 19.9079 24.5308 19.8682 24.4346C19.8285 24.3383 19.8163 24.233 19.8328 24.1302L20.2207 21.4979C20.2416 21.356 20.229 21.2111 20.1842 21.0749C20.1393 20.9386 20.0632 20.8146 19.9621 20.7129L18.1149 18.8656C18.041 18.7894 17.9894 18.6943 17.9656 18.5908C17.9419 18.4872 17.947 18.3792 17.9803 18.2783C18.0136 18.1774 18.0738 18.0876 18.1546 18.0186C18.2353 17.9495 18.3334 17.9039 18.4382 17.8866Z" fill="#FF6100"/>
</svg>
