<svg width="37" height="50" viewBox="0 0 37 50" fill="none" xmlns="http://www.w3.org/2000/svg">
<path d="M18.5 27.5L15 26.5L11.5 23.5L8.5 19.5L7 14.5L6 7.5V3.5L7 0.5H30V2L30.5 7.5L30 13L28 19.5L25.5 23.5L22 26.5L18.5 27.5Z" fill="#FFEDE2"/>
<path d="M27.5 36.5H9.5V46L28 45.5L27.5 36.5Z" fill="#FFEDE2"/>
<path d="M27.8088 46.724H8.97307C8.78363 46.724 8.60195 46.6487 8.468 46.5148C8.33404 46.3808 8.25879 46.1991 8.25879 46.0097V36.4897C8.25879 36.3002 8.33404 36.1186 8.468 35.9846C8.60195 35.8506 8.78363 35.7754 8.97307 35.7754H27.8088C27.9982 35.7754 28.1799 35.8506 28.3139 35.9846C28.4478 36.1186 28.5231 36.3002 28.5231 36.4897V46.0097C28.5231 46.1991 28.4478 46.3808 28.3139 46.5148C28.1799 46.6487 27.9982 46.724 27.8088 46.724ZM9.68736 45.2954H27.0945V37.204H9.68736V45.2954Z" fill="#FF6100"/>
<path d="M30.9817 50.0002H5.80022C5.61078 50.0002 5.4291 49.9249 5.29515 49.791C5.16119 49.657 5.08594 49.4753 5.08594 49.2859V46.0102C5.08594 45.8207 5.16119 45.6391 5.29515 45.5051C5.4291 45.3712 5.61078 45.2959 5.80022 45.2959H30.9817C31.1711 45.2959 31.3528 45.3712 31.4867 45.5051C31.6207 45.6391 31.6959 45.8207 31.6959 46.0102V49.2859C31.6959 49.4753 31.6207 49.657 31.4867 49.791C31.3528 49.9249 31.1711 50.0002 30.9817 50.0002ZM6.51451 48.5716H30.2674V46.7245H6.51451V48.5716Z" fill="#FF6100"/>
<path d="M18.3908 27.85C11.2301 27.85 5.40434 18.6207 5.40434 7.27857C5.40051 5.02165 5.63781 2.77079 6.1122 0.564286C6.14649 0.404626 6.23446 0.261537 6.36144 0.158859C6.48842 0.0561813 6.64676 0.000114546 6.81006 0H29.9715C30.1346 4.39847e-05 30.2928 0.0559071 30.4197 0.158303C30.5467 0.2607 30.6348 0.403461 30.6693 0.562857C31.1437 2.76936 31.381 5.02023 31.3772 7.27714C31.3772 18.6207 25.5515 27.85 18.3908 27.85ZM7.39077 1.42857C7.01662 3.35531 6.82956 5.3137 6.8322 7.27643C6.8322 17.8329 12.0172 26.4193 18.3901 26.4193C24.7629 26.4193 29.9479 17.8307 29.9479 7.27643C29.951 5.31375 29.7644 3.35536 29.3908 1.42857H7.39077Z" fill="#FF6100"/>
<path d="M16.6354 34.096H16.5804C16.3915 34.0816 16.2161 33.9927 16.0928 33.849C15.9694 33.7053 15.9082 33.5184 15.9225 33.3296C16.1053 31.072 15.6454 28.8089 14.5961 26.8017C14.5077 26.6341 14.4896 26.4382 14.5457 26.2571C14.6017 26.0761 14.7274 25.9247 14.895 25.8364C15.0627 25.748 15.2586 25.7298 15.4396 25.7859C15.6207 25.8419 15.772 25.9676 15.8604 26.1353C17.0347 28.3809 17.55 30.9129 17.3468 33.4389C17.3325 33.6177 17.2513 33.7846 17.1195 33.9064C16.9877 34.0282 16.8149 34.0959 16.6354 34.096Z" fill="#FF6100"/>
<path d="M20.1462 34.0962C19.9659 34.0967 19.7921 34.0291 19.6596 33.9068C19.5272 33.7845 19.4458 33.6167 19.4319 33.4369C19.2288 30.9109 19.7441 28.379 20.9184 26.1333C21.0067 25.9657 21.1581 25.84 21.3391 25.7839C21.5202 25.7279 21.7161 25.746 21.8837 25.8344C22.0514 25.9228 22.1771 26.0741 22.2331 26.2552C22.2892 26.4362 22.271 26.6321 22.1826 26.7998C21.1333 28.8069 20.6735 31.0701 20.8562 33.3276C20.8706 33.5165 20.8094 33.7033 20.686 33.8471C20.5626 33.9908 20.3872 34.0796 20.1984 34.094L20.1462 34.0962Z" fill="#FF6100"/>
<path d="M24.5747 37.2049C24.4129 37.2047 24.256 37.1497 24.1296 37.0487C24.0032 36.9478 23.9148 36.8069 23.8789 36.6492C23.5332 35.1321 21.1239 33.9442 18.3904 33.9442C15.6568 33.9442 13.2475 35.1321 12.9018 36.6492C12.8824 36.7421 12.8447 36.8301 12.791 36.9083C12.7372 36.9864 12.6684 37.0531 12.5885 37.1043C12.5087 37.1556 12.4195 37.1904 12.326 37.2068C12.2326 37.2232 12.1368 37.2209 12.0443 37.1998C11.9518 37.1788 11.8644 37.1396 11.7872 37.0844C11.7101 37.0293 11.6446 36.9593 11.5948 36.8786C11.545 36.7979 11.5117 36.708 11.497 36.6143C11.4822 36.5206 11.4863 36.4249 11.5089 36.3328C12.0089 34.1185 14.9047 32.5156 18.3904 32.5156C21.8761 32.5156 24.7704 34.1213 25.2718 36.3328C25.2955 36.4374 25.2953 36.546 25.2713 36.6505C25.2473 36.755 25.2001 36.8528 25.1331 36.9366C25.0661 37.0204 24.9812 37.088 24.8845 37.1345C24.7878 37.1809 24.6819 37.205 24.5747 37.2049Z" fill="#FF6100"/>
<path d="M9.35714 21.4292C9.32682 21.429 9.29653 21.4271 9.26643 21.4234C6.70616 21.0914 4.35413 19.8392 2.6491 17.9007C0.944068 15.9621 0.00248439 13.4694 0 10.8877V5.92915C0.000376853 4.96058 0.384966 4.03171 1.06938 3.34635C1.7538 2.661 2.68214 2.27514 3.65071 2.27344H6.40786C6.5973 2.27344 6.77898 2.34869 6.91293 2.48265C7.04689 2.6166 7.12214 2.79828 7.12214 2.98772C7.12214 3.17716 7.04689 3.35884 6.91293 3.4928C6.77898 3.62675 6.5973 3.70201 6.40786 3.70201H3.65071C3.06091 3.70333 2.49571 3.93856 2.07912 4.35609C1.66253 4.77362 1.42857 5.33934 1.42857 5.92915V10.8856C1.43115 13.1192 2.24604 15.2756 3.72128 16.9527C5.19652 18.6298 7.23139 19.7131 9.44643 20.0006C9.63587 20.0124 9.81285 20.099 9.93843 20.2414C10.064 20.3837 10.1279 20.5701 10.1161 20.7595C10.1042 20.949 10.0176 21.1259 9.8753 21.2515C9.73297 21.3771 9.54658 21.441 9.35714 21.4292Z" fill="#FF6100"/>
<path d="M27.4244 21.4292C27.2349 21.441 27.0486 21.3771 26.9062 21.2515C26.7639 21.1259 26.6773 20.949 26.6655 20.7595C26.6536 20.5701 26.7175 20.3837 26.8431 20.2414C26.9687 20.099 27.1457 20.0124 27.3351 20.0006C29.5501 19.7131 31.585 18.6298 33.0603 16.9527C34.5355 15.2756 35.3504 13.1192 35.353 10.8856V5.92915C35.353 5.33934 35.119 4.77362 34.7024 4.35609C34.2858 3.93856 33.7206 3.70333 33.1308 3.70201H30.3737C30.1842 3.70201 30.0026 3.62675 29.8686 3.4928C29.7346 3.35884 29.6594 3.17716 29.6594 2.98772C29.6594 2.79828 29.7346 2.6166 29.8686 2.48265C30.0026 2.34869 30.1842 2.27344 30.3737 2.27344H33.1308C34.0994 2.27514 35.0277 2.661 35.7121 3.34635C36.3966 4.03171 36.7812 4.96058 36.7815 5.92915V10.8856C36.779 13.4673 35.8375 15.9599 34.1324 17.8985C32.4274 19.8371 30.0754 21.0892 27.5151 21.4213C27.485 21.4257 27.4548 21.4283 27.4244 21.4292Z" fill="#FF6100"/>
</svg>
