<svg width="33" height="25" viewBox="0 0 33 25" fill="none" xmlns="http://www.w3.org/2000/svg">
<path d="M8.20761 0.25C12.7327 0.25 15.9993 3.98582 15.9992 9.51731C15.9702 17.5543 9.92841 23.2366 1.21227 24.3278C0.40362 24.4291 0.091815 23.3089 0.836477 22.9778C4.18093 21.4906 5.87005 19.6035 6.08823 17.7357C6.25123 16.3402 5.49261 15.1177 4.54004 14.8888C2.07053 14.2954 0.415939 11.2201 0.415939 8.04167C0.415939 3.73845 3.90439 0.25 8.20761 0.25Z" fill="#D05EFC"/>
<path d="M25.2076 0.25C29.7327 0.25 32.9993 3.98582 32.9992 9.51731C32.9702 17.5543 26.9284 23.2366 18.2123 24.3278C17.4036 24.4291 17.0918 23.3089 17.8365 22.9778C21.1809 21.4906 22.8701 19.6035 23.0882 17.7357C23.2512 16.3402 22.4926 15.1177 21.54 14.8888C19.0705 14.2954 17.4159 11.2201 17.4159 8.04167C17.4159 3.73845 20.9044 0.25 25.2076 0.25Z" fill="#D05EFC"/>
</svg>
