<svg width="15" height="13" viewBox="0 0 15 13" fill="none" xmlns="http://www.w3.org/2000/svg">
<path d="M6.25 3.1264V0.468904C6.25 0.280779 6.13687 0.110779 5.96375 0.0370291C5.79125 -0.0360959 5.58938 0.000779033 5.455 0.132654L0.1425 5.2889C0.05125 5.37703 0 5.49828 0 5.62515C0 5.75203 0.05125 5.87328 0.1425 5.9614L5.455 11.1177C5.59062 11.2489 5.79187 11.2858 5.96375 11.2133C6.13687 11.1395 6.25 10.9695 6.25 10.7814V8.12516H7.13625C10.0338 8.12516 12.705 9.70016 14.1069 12.2327L14.12 12.2564C14.2037 12.4089 14.3625 12.5002 14.5312 12.5002C14.57 12.5002 14.6088 12.4958 14.6475 12.4858C14.855 12.4327 15 12.2458 15 12.0314C15 7.17265 11.0894 3.21015 6.25 3.1264Z" fill="white"/>
</svg>
