<svg width="21" height="21" viewBox="0 0 21 21" fill="none" xmlns="http://www.w3.org/2000/svg">
<path d="M8.98936 0.00377699C6.60646 0.0077718 4.3223 0.956144 2.63733 2.64111C0.952368 4.32608 0.00399481 6.61023 0 8.99313C0.00199154 11.378 0.949241 13.6649 2.63421 15.3527C4.31917 17.0405 6.60446 17.9916 8.98936 17.9976C11.1045 17.9976 13.0534 17.2535 14.5945 16.0222L18.3375 19.7652C18.5272 19.9416 18.7777 20.0375 19.0366 20.033C19.2955 20.0285 19.5426 19.9238 19.7259 19.7409C19.9092 19.5581 20.0146 19.3113 20.0198 19.0524C20.025 18.7936 19.9297 18.5427 19.7539 18.3526L16.0109 14.6058C17.2892 13.0159 17.9862 11.037 17.9863 8.99691C17.9863 4.04143 13.9448 0.00377699 8.98936 0.00377699ZM8.98936 2.00561C12.8646 2.00561 15.9844 5.12167 15.9844 8.99313C15.9844 12.8646 12.8646 15.9995 8.98936 15.9995C5.11411 15.9995 1.99805 12.8759 1.99805 9.00068C1.99805 5.12544 5.11411 2.00561 8.98936 2.00561Z" fill="#19254B"/>
</svg>
