<svg width="14" height="17" viewBox="0 0 14 17" fill="none" xmlns="http://www.w3.org/2000/svg">
<path d="M11.3672 10.8196C10.5965 10.8196 9.90214 11.1524 9.42022 11.6818L5.08563 8.9972C5.20136 8.70096 5.26554 8.37919 5.26554 8.04257C5.26554 7.70582 5.20136 7.38405 5.08563 7.08793L9.42022 4.40319C9.90214 4.9326 10.5965 5.26554 11.3672 5.26554C12.8189 5.26554 14 4.08448 14 2.63271C14 1.18093 12.8189 0 11.3672 0C9.91539 0 8.73434 1.18106 8.73434 2.63283C8.73434 2.96945 8.79864 3.29122 8.91425 3.58747L4.57978 6.27209C4.09786 5.74267 3.40351 5.40974 2.63283 5.40974C1.18106 5.40974 0 6.59091 0 8.04257C0 9.49434 1.18106 10.6754 2.63283 10.6754C3.40351 10.6754 4.09786 10.3426 4.57978 9.81305L8.91425 12.4977C8.79864 12.7939 8.73434 13.1157 8.73434 13.4524C8.73434 14.9041 9.91539 16.0851 11.3672 16.0851C12.8189 16.0851 14 14.9041 14 13.4524C14 12.0007 12.8189 10.8196 11.3672 10.8196ZM9.69438 2.63283C9.69438 1.71047 10.4448 0.960037 11.3672 0.960037C12.2895 0.960037 13.04 1.71047 13.04 2.63283C13.04 3.55519 12.2895 4.30563 11.3672 4.30563C10.4448 4.30563 9.69438 3.55519 9.69438 2.63283ZM2.63283 9.71536C1.71035 9.71536 0.959914 8.96493 0.959914 8.04257C0.959914 7.1202 1.71035 6.36977 2.63283 6.36977C3.55519 6.36977 4.3055 7.1202 4.3055 8.04257C4.3055 8.96493 3.55519 9.71536 2.63283 9.71536ZM9.69438 13.4523C9.69438 12.5299 10.4448 11.7795 11.3672 11.7795C12.2895 11.7795 13.04 12.5299 13.04 13.4523C13.04 14.3747 12.2895 15.1251 11.3672 15.1251C10.4448 15.1251 9.69438 14.3747 9.69438 13.4523Z" fill="#D05EFC"/>
</svg>
