<svg width="20" height="25" viewBox="0 0 20 25" fill="none" xmlns="http://www.w3.org/2000/svg">
<path d="M17.1101 16.333L15.6429 15.9022L12.4507 13.8172V13.3394C13.3749 12.6423 14.0096 11.5767 14.1275 10.3553C14.5911 10.2807 14.9462 9.87789 14.9462 9.39371V8.07999C14.9462 8.07491 14.9457 8.06993 14.9454 8.06486V6.4007C15.1301 6.26847 15.2473 6.05309 15.2473 5.81149V4.28854L17.4502 3.91329C17.8123 3.85162 18.0727 3.56407 18.0982 3.19772C18.1237 2.83136 17.9058 2.51046 17.5559 2.39918L10.1292 0.0369751C9.97427 -0.0123413 9.8106 -0.0122925 9.65571 0.0369263L2.229 2.39918C1.87905 2.51046 1.66108 2.83136 1.68662 3.19767C1.70283 3.43043 1.81406 3.63112 1.98574 3.76256V5.75411H1.96758C1.54937 5.75411 1.20913 6.09435 1.20913 6.51256V7.50113L0.719531 10.3748C0.634912 10.8718 1.01772 11.3267 1.5231 11.3267H3.18076C3.68501 11.3267 4.06914 10.8729 3.98433 10.3747L3.49473 7.50113V6.51256C3.49473 6.09435 3.15449 5.75411 2.73628 5.75411H2.71816V3.97858L4.53916 4.28873V5.81149C4.53916 6.05206 4.65581 6.2671 4.8396 6.39952L4.84028 8.08014V9.39371C4.84028 9.87794 5.19541 10.2807 5.65894 10.3553C5.77686 11.576 6.41084 12.6411 7.33418 13.3383V13.8183L4.14268 15.9029L2.67661 16.3332C1.10781 16.7937 9.76026e-05 18.2339 9.76026e-05 19.9082V20.9996C9.76026e-05 21.2018 0.164014 21.3658 0.366309 21.3658C0.568603 21.3658 0.73252 21.2019 0.73252 20.9996V19.9082C0.73252 18.5886 1.61675 17.4075 2.88291 17.0359L4.24893 16.635L9.70625 19.8778C9.81704 19.9436 9.96362 19.9471 10.0804 19.8778L15.538 16.6348L16.9039 17.0358C18.1699 17.4074 19.0541 18.5885 19.0541 19.9079V23.4449C19.0541 23.8986 18.685 24.2677 18.2313 24.2677H16.6172V22.6892C16.6172 22.4869 16.4533 22.323 16.251 22.323C16.0488 22.323 15.8848 22.4869 15.8848 22.6892V24.2677H3.90005V22.6892C3.90005 22.4869 3.73613 22.323 3.53384 22.323C3.33154 22.323 3.16763 22.4869 3.16763 22.6892V24.2677H1.55518C1.10151 24.2677 0.732422 23.8986 0.732422 23.4449V22.7114C0.732422 22.5092 0.568506 22.3452 0.366211 22.3452C0.163916 22.3452 0 22.5091 0 22.7114V23.4449C0 24.3024 0.697607 25 1.55513 25H18.2313C19.0888 25 19.7864 24.3024 19.7864 23.4449V19.9079C19.7864 18.2731 18.7165 16.8046 17.1101 16.333ZM3.18071 10.5943H1.5231C1.47188 10.5943 1.43281 10.5485 1.4415 10.4977L1.88437 7.8983H2.81943L3.2623 10.4977C3.27095 10.5484 3.23218 10.5943 3.18071 10.5943ZM2.7623 6.51256V7.16593H1.94146V6.51256C1.94146 6.49816 1.95312 6.48649 1.96753 6.48649H2.73618C2.75063 6.48644 2.7623 6.49816 2.7623 6.51256ZM8.5835 18.2213L8.72925 18.4453L4.99053 16.2237L7.36362 14.6737C7.47124 15.9364 7.88745 17.1515 8.5835 18.2213ZM8.58096 16.6404C9.44292 16.7629 10.343 16.763 11.2055 16.6404C11.0388 17.0505 10.8334 17.4462 10.5891 17.8219L9.89321 18.8914L9.19736 17.8219C8.95298 17.4462 8.74761 17.0505 8.58096 16.6404ZM11.2029 18.2213C11.899 17.1515 12.3152 15.9364 12.4228 14.6737L14.7958 16.2237L11.0572 18.4453L11.2029 18.2213ZM13.3451 6.53707H14.213V7.71373H13.7822C13.5412 7.71373 13.345 7.51764 13.345 7.27657V6.53707H13.3451ZM2.45098 3.09713L9.87778 0.734827C9.8873 0.731799 9.89756 0.73175 9.90723 0.734876L17.334 3.09713C17.3493 3.10201 17.3704 3.10865 17.3677 3.14679C17.365 3.18488 17.3433 3.18854 17.3273 3.19127L14.8719 3.60948L13.95 3.49547C13.7494 3.47062 13.5665 3.61329 13.5417 3.81398C13.5168 4.01471 13.6595 4.19752 13.8602 4.22233L14.5149 4.30333V5.8047L5.27153 5.80436V4.30328L9.06094 3.83439C9.61289 3.76617 10.1725 3.76617 10.724 3.83439L12.1583 4.01178C12.3589 4.03663 12.5418 3.89401 12.5667 3.69332C12.5915 3.49259 12.4489 3.30978 12.2482 3.28492L10.814 3.10753C10.2028 3.0319 9.58267 3.0319 8.97104 3.10753L4.91372 3.60958L2.45752 3.19127C2.4416 3.18854 2.41987 3.18488 2.41719 3.14679C2.41455 3.10865 2.4356 3.10197 2.45098 3.09713ZM5.57246 7.71373L5.57197 6.53707H6.44136V7.27662C6.44136 7.51764 6.24526 7.71378 6.00415 7.71378L5.57246 7.71373ZM6.37847 10.1671C6.35962 9.86886 6.11177 9.63527 5.81426 9.63527C5.68101 9.63527 5.57261 9.52687 5.57261 9.39366V8.44615H6.00415C6.64902 8.44615 7.17373 7.9215 7.17373 7.27662V6.53707H12.6126V7.27662C12.6126 7.9215 13.1374 8.44615 13.7822 8.44615H14.2138V9.39366C14.2138 9.52687 14.1054 9.63527 13.9721 9.63527C13.6746 9.63527 13.4268 9.86886 13.4079 10.1671C13.2913 12.0162 11.7474 13.4647 9.89316 13.4647C8.03892 13.4647 6.49512 12.0162 6.37847 10.1671ZM9.89321 14.197C10.5445 14.197 11.1636 14.0481 11.7183 13.7833V14.0154C11.7183 14.6415 11.6338 15.2591 11.4712 15.8548C10.476 16.0446 9.35083 16.0523 8.31523 15.8548C8.15259 15.2592 8.06811 14.6416 8.06811 14.0154C8.06811 14.0076 8.06704 14.0001 8.06655 13.9924C8.06645 13.9909 8.0666 13.9894 8.0665 13.9879V13.7826C8.62163 14.0478 9.24126 14.197 9.89321 14.197Z" fill="#D05EFC"/>
</svg>
