<svg width="30" height="20" viewBox="0 0 30 20" fill="none" xmlns="http://www.w3.org/2000/svg">
<circle cx="14.5" cy="4.5" r="4.5" fill="#FFEDE2"/>
<path d="M7.99986 15.0001C7.59986 9.80007 11.8332 9.16674 13.9999 9.50007C18.3999 8.30013 20.4999 11 20.9999 12.5C21.3999 13.7 21.1665 16 20.9999 17C19.7999 18.2 16.1665 18.5 14.4999 18.5C8.09986 18.5 7.49986 16.1667 7.99986 15.0001Z" fill="#FFEDE2"/>
<path d="M4.17682 15.6438C4.14951 15.6438 4.12161 15.642 4.09313 15.638C2.76513 15.4462 1.49118 15.0295 0.307896 14.3989C0.0248601 14.2478 -0.0826584 13.8956 0.0684489 13.612C0.220137 13.3295 0.57059 13.222 0.855369 13.3725C1.91893 13.9403 3.06444 14.3146 4.25877 14.4866C4.57668 14.5326 4.79695 14.8272 4.75161 15.1451C4.70977 15.4351 4.46102 15.6438 4.17682 15.6438Z" fill="#FF6100"/>
<path d="M24.8832 15.6437C24.599 15.6437 24.3502 15.435 24.3084 15.1456C24.2631 14.8277 24.4833 14.533 24.8012 14.4871C25.9961 14.3151 27.1411 13.9408 28.2046 13.373C28.49 13.2225 28.8399 13.33 28.9916 13.6125C29.1427 13.8955 29.0351 14.2483 28.7521 14.3994C27.5688 15.03 26.2949 15.4467 24.9669 15.6385C24.9384 15.6419 24.9105 15.6437 24.8832 15.6437Z" fill="#FF6100"/>
<path d="M18.804 10.4265C18.6947 10.4265 18.5849 10.3957 18.4873 10.3324C18.2182 10.1569 18.142 9.79711 18.3176 9.52802C19.1411 8.26512 20.5324 7.51074 22.04 7.51074C22.3614 7.51074 22.6212 7.77053 22.6212 8.09192C22.6212 8.41332 22.3614 8.67311 22.04 8.67311C20.9265 8.67311 19.899 9.22988 19.2916 10.1627C19.1806 10.3335 18.9946 10.4265 18.804 10.4265Z" fill="#FF6100"/>
<path d="M23.3285 8.67302C21.2682 8.67302 19.5282 6.93296 19.5282 4.87325C19.5282 2.81354 21.2682 1.07349 23.3285 1.07349C25.3882 1.07349 27.1283 2.81354 27.1283 4.87325C27.1283 6.93296 25.3882 8.67302 23.3285 8.67302ZM23.3285 2.23585C21.8988 2.23585 20.6905 3.44355 20.6905 4.87325C20.6905 6.30296 21.8988 7.51066 23.3285 7.51066C24.7582 7.51066 25.9659 6.30296 25.9659 4.87325C25.9659 3.44355 24.7582 2.23585 23.3285 2.23585Z" fill="#FF6100"/>
<path d="M28.4784 12.5361C28.157 12.5361 27.8972 12.2763 27.8972 11.9549C27.8972 10.1457 26.4251 8.67359 24.6158 8.67359C24.2944 8.67359 24.0347 8.41381 24.0347 8.09241C24.0347 7.77102 24.2944 7.51123 24.6158 7.51123C27.0661 7.51123 29.0596 9.50526 29.0596 11.9549C29.0596 12.2758 28.7998 12.5361 28.4784 12.5361Z" fill="#FF6100"/>
<path d="M24.6158 8.67359L22.04 8.67311C21.7186 8.67311 21.4594 8.41332 21.4594 8.09192C21.4594 7.77053 21.7186 7.51074 22.04 7.51074L24.6158 7.51123C24.9372 7.51123 25.197 7.77053 25.197 8.09192C25.197 8.41332 24.9366 8.67359 24.6158 8.67359Z" fill="#FF6100"/>
<path d="M28.4784 14.4674C28.157 14.4674 27.8972 14.2076 27.8972 13.8862L27.8972 11.9549C27.8972 11.6336 28.157 11.3738 28.4784 11.3738C28.7998 11.3738 29.0596 11.6336 29.0596 11.9549L29.0595 13.8862C29.0595 14.2076 28.7998 14.4674 28.4784 14.4674Z" fill="#FF6100"/>
<path d="M7.66334 14.8962C7.34194 14.8962 7.08215 14.6364 7.08215 14.315C7.08215 11.1546 9.6533 8.58398 12.8132 8.58398C13.1346 8.58398 13.3944 8.84377 13.3944 9.16517C13.3944 9.48656 13.1346 9.74635 12.8132 9.74635C10.2938 9.74635 8.24452 11.7956 8.24452 14.315C8.24452 14.6364 7.98415 14.8962 7.66334 14.8962Z" fill="#FF6100"/>
<path d="M16.2468 9.74635H12.8132C12.4918 9.74635 12.232 9.48656 12.232 9.16517C12.232 8.84377 12.4918 8.58398 12.8132 8.58398H16.2468C16.5682 8.58398 16.828 8.84377 16.828 9.16517C16.828 9.48656 16.5682 9.74635 16.2468 9.74635Z" fill="#FF6100"/>
<path d="M10.256 10.4265C10.0659 10.4265 9.87996 10.3335 9.76838 10.1627C9.16046 9.23046 8.13351 8.67311 7.01997 8.67311C6.69857 8.67311 6.43878 8.41332 6.43878 8.09192C6.43878 7.77053 6.69857 7.51074 7.01997 7.51074C8.52813 7.51074 9.9189 8.26512 10.7424 9.52802C10.918 9.79711 10.8418 10.1569 10.5727 10.3324C10.4745 10.3957 10.3647 10.4265 10.256 10.4265Z" fill="#FF6100"/>
<path d="M7.66334 17.4715C7.34194 17.4715 7.08215 17.2117 7.08215 16.8903V14.315C7.08215 13.9936 7.34194 13.7339 7.66334 13.7339C7.98473 13.7339 8.24452 13.9936 8.24452 14.315V16.8903C8.24452 17.2117 7.98415 17.4715 7.66334 17.4715Z" fill="#FF6100"/>
<path d="M14.53 9.74642C11.8885 9.74642 9.65679 7.51468 9.65679 4.87321C9.65679 2.23174 11.8885 0 14.53 0C17.1715 0 19.4032 2.23174 19.4032 4.87321C19.4032 7.51468 17.1715 9.74642 14.53 9.74642ZM14.53 1.16236C12.5185 1.16236 10.8192 2.86174 10.8192 4.87321C10.8192 6.88468 12.5185 8.58406 14.53 8.58406C16.5415 8.58406 18.2408 6.88468 18.2408 4.87321C18.2408 2.86174 16.5415 1.16236 14.53 1.16236Z" fill="#FF6100"/>
<path d="M21.3967 14.8962C21.0753 14.8962 20.8155 14.6364 20.8155 14.315C20.8155 11.7956 18.7662 9.74635 16.2468 9.74635C15.9254 9.74635 15.6656 9.48656 15.6656 9.16517C15.6656 8.84377 15.9254 8.58398 16.2468 8.58398C19.4073 8.58398 21.9778 11.1551 21.9778 14.315C21.9778 14.6364 21.7181 14.8962 21.3967 14.8962Z" fill="#FF6100"/>
<path d="M21.3967 17.4715C21.0753 17.4715 20.8155 17.2117 20.8155 16.8903L20.8155 14.315C20.8155 13.9936 21.0753 13.7339 21.3967 13.7339C21.7181 13.7339 21.9778 13.9936 21.9778 14.315L21.9778 16.8903C21.9778 17.2117 21.7181 17.4715 21.3967 17.4715Z" fill="#FF6100"/>
<path d="M14.53 19.1918C12.0774 19.1918 9.62541 18.5955 7.3896 17.4035C7.10656 17.2518 6.99904 16.9002 7.15015 16.6166C7.30184 16.3342 7.65171 16.2266 7.93707 16.3772C12.0658 18.5793 16.9954 18.5793 21.1235 16.3772C21.4083 16.2266 21.7593 16.3342 21.9104 16.6166C22.0615 16.8996 21.954 17.2518 21.671 17.4035C19.4346 18.5949 16.9826 19.1918 14.53 19.1918Z" fill="#FF6100"/>
<path d="M5.73148 8.67302C3.67178 8.67302 1.93172 6.93296 1.93172 4.87325C1.93172 2.81354 3.67178 1.07349 5.73148 1.07349C7.79119 1.07349 9.53125 2.81354 9.53125 4.87325C9.53125 6.93296 7.79119 8.67302 5.73148 8.67302ZM5.73148 2.23585C4.30178 2.23585 3.09408 3.44355 3.09408 4.87325C3.09408 6.30296 4.30178 7.51066 5.73148 7.51066C7.16119 7.51066 8.36889 6.30296 8.36889 4.87325C8.36889 3.44355 7.16119 2.23585 5.73148 2.23585Z" fill="#FF6100"/>
<path d="M0.581634 12.5361C0.26024 12.5361 0.000452041 12.2763 0.000452041 11.9549C0.000452041 9.50468 1.99449 7.51123 4.44417 7.51123C4.76556 7.51123 5.02535 7.77102 5.02535 8.09241C5.02535 8.41381 4.76556 8.67359 4.44417 8.67359C2.63495 8.67301 1.16282 10.1451 1.16282 11.9549C1.16282 12.2758 0.903028 12.5361 0.581634 12.5361Z" fill="#FF6100"/>
<path d="M7.01997 8.67311L4.44417 8.67359C4.12278 8.67359 3.86299 8.41332 3.86299 8.09192C3.86299 7.77053 4.12278 7.51123 4.44417 7.51123L7.01997 7.51074C7.34136 7.51074 7.60057 7.77053 7.60057 8.09192C7.60057 8.41332 7.34136 8.67311 7.01997 8.67311Z" fill="#FF6100"/>
<path d="M0.581634 14.4674C0.26024 14.4674 0.000452041 14.2076 0.000452041 13.8862V11.9549C0.000452041 11.6336 0.26024 11.3738 0.581634 11.3738C0.903028 11.3738 1.16282 11.6336 1.16282 11.9549V13.8862C1.16282 14.2076 0.903028 14.4674 0.581634 14.4674Z" fill="#FF6100"/>
</svg>
